<?xml version="1.0" standalone="no"?>
<!DOCTYPE svg PUBLIC "-//W3C//DTD SVG 1.1//EN" "http://www.w3.org/Graphics/SVG/1.1/DTD/svg11.dtd" >
<svg>
<metadata>
Created by FontForge 20090622 at Sat Feb 16 10:48:02 2013
 By ffonts
</metadata>
<defs>
<font id="ChrysanthiUnicode" horiz-adv-x="2048" >
  <font-face 
    font-family="Chrysanthi Unicode"
    font-weight="400"
    font-style="italic"
    font-stretch="normal"
    units-per-em="2048"
    panose-1="0 0 0 0 0 0 0 0 0 0"
    ascent="1638"
    descent="-410"
    x-height="978"
    cap-height="1388"
    bbox="-2251 -628 3066 2013"
    underline-thickness="37"
    underline-position="-146"
    slope="17"
    unicode-range="U+0020-U+FEFC"
  />
<missing-glyph horiz-adv-x="1144" 
d="M256 0v1280h1024v-1280h-1024zM288 32h960v1216h-960v-1216z" />
    <glyph glyph-name="uniFB57" unicode="&#x67e;" horiz-adv-x="1461" arabic-form="final" 
d="M1531 293h-954q-192 0 -306 67q-143 84 -143 263q0 93 42 190q15 35 72 133l30 -19l-43 -92q-29 -71 -29 -127q0 -118 124 -183q111 -58 281 -58h847v27q0 112 -27 182.5t-92 120.5l77 163q44 -55 53 -69q68 -112 68 -326v-272zM1088 56l-74 -145l-164 84l76 145z
M1054 -213l-74 -146l-163 86l77 146zM860 -37l-75 -143l-165 85l78 144z" />
    <glyph glyph-name="uniFB58" unicode="&#x67e;" horiz-adv-x="500" arabic-form="initial" 
d="M465 56l-74 -145l-164 84l76 145zM431 -213l-74 -146l-163 86l77 146zM237 -37l-75 -143l-165 85l78 144zM571 293h-570v174h497q0 118 -28 180q-19 43 -94 124l78 163q72 -91 90 -142q27 -77 27 -255v-244z" />
    <glyph glyph-name="uniFB59" unicode="&#x67e;" horiz-adv-x="500" arabic-form="medial" 
d="M465 56l-74 -145l-164 84l76 145zM431 -213l-74 -146l-163 86l77 146zM237 -37l-75 -143l-165 85l78 144zM571 293h-570v174h497q0 118 -28 180q-19 43 -94 124l78 163q72 -91 90 -142q27 -77 27 -255v-244z" />
    <glyph glyph-name="uniFB7B" unicode="&#x686;" horiz-adv-x="1077" arabic-form="final" 
d="M1147 293h-207q-121 0 -172 45t-51 149q0 39 10 97l11 58q-171 -52 -258 -89q-160 -68 -248 -154q-111 -108 -111 -246q0 -215 224 -323q195 -94 521 -94h184l6 -11l-226 -159h-58q-216 0 -359 40q-171 48 -259 154q-100 121 -100 320q0 171 85 299q66 100 193 183
q37 25 206 115q-40 5 -84.5 8.5t-80.5 3.5q-101 0 -164 -9q-21 -3 -131 -27q34 98 71 136q83 84 260 84q97 0 210 -18.5t190 -18.5q51 0 99.5 4t101.5 11l-40 -170q-41 -5 -93 -14l-91 -17l-2 -56q0 -82 50 -110q31 -17 106 -17h207v-174zM720 248l-74 -145l-164 84l76 145z
M686 -21l-74 -146l-163 86l77 146zM492 155l-75 -143l-165 85l78 144z" />
    <glyph glyph-name="uniFB7C" unicode="&#x686;" horiz-adv-x="1085" arabic-form="initial" 
d="M1145 293h-1145v174h805q-102 79 -172 123q-87 55 -159 80q-81 28 -164 28q-51 0 -103 -7q29 74 76 119q68 65 172 65q102 0 241 -100q69 -50 225 -190q121 -109 164 -118h60v-174zM766 56l-74 -145l-164 84l76 145zM732 -213l-74 -146l-163 86l77 146zM538 -37l-75 -143
l-165 85l78 144z" />
    <glyph glyph-name="uniFB7D" unicode="&#x686;" horiz-adv-x="1085" arabic-form="medial" 
d="M1145 293h-1145v174h805q-102 79 -172 123q-87 55 -159 80q-81 28 -164 28q-51 0 -103 -7q29 74 76 119q68 65 172 65q102 0 241 -100q69 -50 225 -190q121 -109 164 -118h60v-174zM766 56l-74 -145l-164 84l76 145zM732 -213l-74 -146l-163 86l77 146zM538 -37l-75 -143
l-165 85l78 144z" />
    <glyph glyph-name="uniFB8B" unicode="&#x698;" horiz-adv-x="1001" arabic-form="final" 
d="M1071 293q0 -110 -94 -228q-82 -104 -204 -179q-116 -72 -191 -72q-69 0 -149 20q-61 15 -146 47l-143 54l17 40l137.5 -26.5t129.5 -13.5q128 0 267 82q126 75 215 189.5t89 206.5q0 79 -46 166q-37 70 -104 144l57 157q82 -76 121 -152q44 -86 44 -192v-243zM848 1395
l-77 -146l-160 86l74 146zM1045 1217l-78 -144l-162 86l75 143zM815 1127l-76 -145l-162 84l74 145z" />
    <glyph glyph-name="uniFB8F" unicode="&#x6a9;" horiz-adv-x="1910" arabic-form="final" 
d="M538 293q-239 0 -340 57q-108 61 -108 208q0 88 47 200q13 31 55 115l34 -20q-34 -78 -44.5 -120t-10.5 -80q0 -109 115 -153q86 -33 252 -33h426q159 0 267 41q129 49 129 138q0 67 -49 113q-25 24 -97 62l-33 -31l-118 90q-62 52 -62 81q0 172 84 270q78 90 269 162
l282 110v-173l-209 -70q-171 -58 -241 -93q-59 -30 -59 -48q0 -23 64 -71l81 -60q88 -67 159 -132q61 -56 114 -116q33 -37 106 -127q47 -57 92 -95q61 -51 106 -51h131v-174h-123q-82 0 -172 84q-44 41 -125 146q-49 63 -60 76q-25 30 -76 79q0 -178 -111 -278
q-119 -107 -354 -107h-421z" />
    <glyph glyph-name="uniFB90" unicode="&#x6a9;" horiz-adv-x="807" arabic-form="initial" 
d="M877 293h-877v174h761q-70 106 -160 184.5t-243 169.5l-33 -31l-118 90q-62 52 -62 81q0 172 84 270q78 90 269 162l282 110v-173l-209 -70q-125 -41 -202 -75q-98 -43 -98 -66t64 -71l81 -60q152 -115 265 -241q122 -135 196 -280v-174z" />
    <glyph glyph-name="uniFB91" unicode="&#x6a9;" horiz-adv-x="1054" arabic-form="medial" 
d="M795 613q47 -57 92 -95q61 -51 106 -51h131v-174h-123q-82 0 -172 84q-44 41 -125 146q-49 63 -60 76q-25 30 -76 79q0 -178 -111 -278q-119 -107 -354 -107h-103v174h108q159 0 267 41q129 49 129 138q0 67 -49 113q-25 24 -97 62l-33 -31l-118 90q-62 52 -62 81
q0 172 84 270q78 90 269 162l282 110v-173l-209 -70q-125 -41 -202 -75q-98 -43 -98 -66t64 -71l81 -60q88 -67 159 -132q61 -56 114 -116q33 -37 106 -127z" />
    <glyph glyph-name="uniFB93" unicode="&#x6af;" horiz-adv-x="1910" arabic-form="final" 
d="M538 293q-239 0 -340 57q-108 61 -108 208q0 88 47 200q13 31 55 115l34 -20q-34 -78 -44.5 -120t-10.5 -80q0 -109 115 -153q86 -33 252 -33h426q159 0 267 41q129 49 129 138q0 67 -49 113q-25 24 -97 62l-33 -31l-118 90q-62 52 -62 81q0 172 84 270q78 90 269 162
l282 110v-173l-209 -70q-171 -58 -241 -93q-59 -30 -59 -48q0 -23 64 -71l81 -60q88 -67 159 -132q61 -56 114 -116q33 -37 106 -127q47 -57 92 -95q61 -51 106 -51h131v-174h-123q-82 0 -172 84q-44 41 -125 146q-49 63 -60 76q-25 30 -76 79q0 -178 -111 -278
q-119 -107 -354 -107h-421zM1636 1776v-169q-216 -79 -400 -168q-163 -78 -256 -141v106q32 36 128 99t230 133q150 79 298 140z" />
    <glyph glyph-name="uniFB94" unicode="&#x6af;" horiz-adv-x="807" arabic-form="initial" 
d="M877 293h-877v174h761q-70 106 -160 184.5t-243 169.5l-33 -31l-118 90q-62 52 -62 81q0 172 84 270q78 90 269 162l282 110v-173l-209 -70q-125 -41 -202 -75q-98 -43 -98 -66t64 -71l81 -60q152 -115 265 -241q122 -135 196 -280v-174zM780 1794v-169
q-216 -79 -400 -168q-163 -78 -256 -141v106q32 36 128 99t230 133q150 79 298 140z" />
    <glyph glyph-name="uniFB95" unicode="&#x6af;" horiz-adv-x="1054" arabic-form="medial" 
d="M795 613q47 -57 92 -95q61 -51 106 -51h131v-174h-123q-82 0 -172 84q-44 41 -125 146q-49 63 -60 76q-25 30 -76 79q0 -178 -111 -278q-119 -107 -354 -107h-103v174h108q159 0 267 41q129 49 129 138q0 67 -49 113q-25 24 -97 62l-33 -31l-118 90q-62 52 -62 81
q0 172 84 270q78 90 269 162l282 110v-173l-209 -70q-125 -41 -202 -75q-98 -43 -98 -66t64 -71l81 -60q88 -67 159 -132q61 -56 114 -116q33 -37 106 -127zM780 1794v-169q-216 -79 -400 -168q-163 -78 -256 -141v106q32 36 128 99t230 133q150 79 298 140z" />
    <glyph glyph-name="uniFBFD" unicode="&#x6cc;" horiz-adv-x="1205" arabic-form="final" 
d="M1275 293h-175q-154 0 -231.5 -8t-77.5 -32q0 -33 93 -33q41 0 65 -2t105 -11q48 -6 66 -15q29 -15 29 -52q0 -187 -123 -272q-134 -93 -443 -93q-215 0 -342 73q-135 78 -135 222q0 116 64 246q23 47 121 201l40 -20l-75 -129q-57 -110 -57 -180q0 -123 128 -187
q122 -61 335 -61q143 0 252 22q134 27 134 74q0 17 -15 25.5t-50 8.5q-27 3 -84.5 6.5t-75.5 3.5q-63 0 -90 16.5t-27 49.5q0 124 73 203q60 64 161 95q76 23 160 23h175v-174z" />
    <glyph glyph-name="uniFCFE" unicode="&#xfcfe;" horiz-adv-x="463" arabic-form="isolated" 
d="M458 1813q-4 -23 -10.5 -46.5t-28.5 -58.5q15 -12 23.5 -22.5t8.5 -23.5q0 -18 -1.5 -39.5t-5.5 -47.5l-86 67q-46 -54 -104 -84q-71 -36 -158 -36l36 60q20 37 20 66q0 22 -10 41t-29 19q-21 0 -39 -24l-26 -44q7 71 18 101q20 55 66 55q34 0 53 -33.5t19 -75.5
q0 -17 -3.5 -34.5t-11.5 -50.5q69 20 133 66q-32 32 -41 44q-18 24 -18 51q0 47 37 92q46 55 96 56q29 -1 48 -20t14 -78zM433 1476q0 -75 -26 -123q-29 -54 -80 -54q-18 0 -33 6t-34 19q-20 -34 -39 -53q-32 -32 -67 -32q-42 0 -63 28t-21 78q0 26 7 51t20 58l21 8
q0 -8 -2 -26t-2 -30q0 -22 9 -39.5t27 -17.5q43 0 69 56q12 25 30 101l21 6q8 -49 13 -60q12 -31 40 -31q38 0 60 50q18 41 18 85l21 6q4 -19 7.5 -43.5t3.5 -42.5zM392 1786q0 24 -11.5 43t-23.5 19q-19 0 -25 -8.5t-6 -20.5q0 -18 18 -38q5 -6 35 -33q13 17 13 38z" />
    <glyph glyph-name="uniFCFF" unicode="&#xfcff;" horiz-adv-x="433" arabic-form="isolated" 
d="M433 1767q0 -76 -26 -124q-29 -53 -80 -53q-17 0 -33.5 6.5t-33.5 18.5q-19 -34 -39 -53q-32 -31 -67 -31q-42 0 -63 28t-21 77q0 25 8 54q5 18 19 54l21 8q0 -8 -2 -26t-2 -30q0 -23 8.5 -39.5t27.5 -16.5q43 0 69 56q13 27 30 100l21 6q9 -49 13 -60q12 -32 40 -32
q38 0 60 50q18 41 18 86l21 7l7.5 -46t3.5 -40zM418 1571q0 -46 -52 -90l-290 -117q0 44 43 85zM418 1448q0 -47 -51 -92l-291 -117q0 43 43 84z" />
    <glyph glyph-name="uniFD00" unicode="&#xfd00;" horiz-adv-x="433" arabic-form="isolated" 
d="M418 1721q0 -46 -52 -92l-290 -115q0 42 45 83zM433 1476q0 -75 -26 -123q-29 -54 -80 -54q-17 0 -33.5 6.5t-33.5 18.5q-20 -34 -39 -53q-32 -32 -67 -32q-42 0 -63 28t-21 78q0 26 8 55q5 18 19 54l21 8q0 -8 -2 -26t-2 -30q0 -22 9 -39.5t27 -17.5q43 0 69 56
q12 25 30 101l21 6q8 -49 13 -60q12 -31 40 -31q38 0 60 50q18 41 18 85l21 6q4 -19 7.5 -43.5t3.5 -42.5z" />
    <glyph glyph-name="uniFD01" unicode="&#xfd01;" horiz-adv-x="433" arabic-form="isolated" 
d="M433 1585q-35 0 -74 9q-8 2 -43 12q-57 -49 -80 -63q-60 -38 -116 -38q-14 0 -27.5 4.5t-28.5 12.5q76 34 107 49q48 23 106 56q-23 22 -34 37q-17 23 -17 46q0 43 35.5 85.5t80.5 42.5q29 0 52.5 -20.5t23.5 -49.5q0 -21 -10 -44q-3 -7 -23 -42q32 -15 38 -26
q10 -17 10 -71zM433 1478q0 -75 -26 -123q-29 -54 -80 -54q-17 0 -33.5 6.5t-33.5 18.5q-20 -34 -39 -53q-32 -32 -67 -32q-42 0 -63 28t-21 78q0 26 8 55q5 18 19 54l21 8q0 -8 -2 -26t-2 -30q0 -22 9 -39.5t27 -17.5q43 0 69 56q12 25 30 100l21 7q9 -50 13 -61
q12 -31 40 -31q38 0 60 50q18 41 18 86l21 6q4 -20 7.5 -44.5t3.5 -41.5zM352 1737q0 21 -15 41t-37 20q-7 0 -10 -7t-3 -16q0 -21 10 -35.5t45 -33.5q3 7 6.5 16t3.5 15z" />
    <glyph glyph-name="uniFD02" unicode="&#xfd02;" horiz-adv-x="433" arabic-form="isolated" 
d="M433 1661q0 -75 -26 -122q-29 -53 -80 -53q-18 0 -33 6t-34 19q-20 -34 -39 -53q-32 -32 -67 -32q-42 0 -63 28t-21 78q0 25 8 54q5 18 19 53l21 9q0 -9 -2 -27t-2 -30q0 -22 9 -38.5t27 -16.5q43 0 69 55q12 26 30 100l21 6q8 -49 13 -60q12 -31 40 -31q38 0 60 50
q18 41 18 85l21 6q4 -19 7.5 -43.5t3.5 -42.5zM418 1447q0 -47 -51 -92l-291 -116q0 43 44 83z" />
    <glyph glyph-name="uniFDF2" unicode="&#xfdf2;" horiz-adv-x="1262" arabic-form="isolated" 
d="M765 1361l-21 -8q-25 61 -76 114q-13 14 -67 59q9 42 46 42t58 -36q31 -57 36 -69q17 -42 24 -102zM945 1315q0 -72 -26.5 -125.5t-67.5 -53.5q-23 0 -41.5 5.5t-41.5 18.5q-12 -30 -37 -54q-32 -31 -65 -31q-42 0 -63 27t-21 72q0 18 4 40.5l6 34.5l30 12
q0 -48 14.5 -65.5t46.5 -17.5q21 0 44.5 42.5t29.5 82.5l23 6q11 -40 17 -47q14 -19 52 -19q27 0 46 41q12 27 20 65l25 6q5 -20 5 -40zM1235 474q0 -37 -5 -68q-8 -50 -28 -88l-13 -25q-119 0 -195 35q-61 28 -107 87q-40 -68 -96 -97q-48 -25 -111 -25q-65 0 -126.5 38
t-83.5 98q-40 -59 -96 -97.5t-109 -38.5q-112 0 -178 16.5t-66 42.5q0 84 114 190.5t278 182.5q-4 15 -9.5 41t-5.5 41q0 34 23 76q19 34 51 72l27 -164q21 -123 43 -229q12 -55 45.5 -79t90.5 -24q46 0 71.5 12.5t64.5 72.5l-59 273q-7 32 -10 52q-7 39 -7 56q0 35 23 77
q19 34 51 71q9 -51 20.5 -110.5l34.5 -173.5l36 -172q16 -73 48 -111q39 -46 105 -46q28 0 45.5 22.5t22.5 61.5l-58 273q-7 42 -9 52q-7 41 -7 56q0 34 23 77q20 37 49 71q4 -25 34 -160q36 -164 52 -248q27 -142 27 -191zM449 500l-19 111q-88 -32 -134 -63
q-52 -35 -87 -91q22 -9 49.5 -14t77.5 -5q28 0 58 16.5t55 45.5z" />
    <glyph glyph-name="uniFE80" unicode="&#x621;" horiz-adv-x="845" arabic-form="isolated" 
d="M744 537l-48 -164q-152 -38 -250 -85q-113 -54 -206 -141l-31 17q13 46 35 85q19 34 44 61l-116 66q-51 34 -51 74q0 32 40 116q48 100 110 167q80 86 161 86q75 0 124 -43q11 -9 51 -55l-52 -131l-44 30q-61 39 -100 39q-48 0 -100 -27t-52 -61q0 -41 60 -79
q47 -29 142 -63q139 67 283 108z" />
    <glyph glyph-name="uniFE81" unicode="&#x622;" horiz-adv-x="424" arabic-form="isolated" 
d="M422 1654q-28 -32 -57 -49q-41 -24 -89 -24q-50 0 -95 15q-99 33 -105 33q-12 0 -24 -3.5t-27 -10.5l-11 13q25 36 36 45q23 20 61 20q9 0 109 -32q50 -16 83 -16q53 0 105 23zM338 548q0 -80 -29 -155q-15 -40 -65 -127l-18 10q3 29 5.5 67t2.5 51q0 104 -16.5 290.5
t-39.5 389.5q-14 123 -31 251q20 44 45.5 95l48.5 96q16 -114 40.5 -312t38.5 -357q18 -198 18 -299z" />
    <glyph glyph-name="uniFE82" unicode="&#x622;" horiz-adv-x="470" arabic-form="final" 
d="M540 293h-140q-68 0 -109 55q-36 48 -54.5 143t-28.5 234l-12.5 232t-17 180.5t-28.5 100.5q-22 48 -61 84l123 194q39 -120 55 -287q10 -104 20 -492q18 -178 52 -228q28 -42 61 -42h140v-174zM442 1654q-28 -32 -57 -49q-41 -24 -89 -24q-50 0 -95 15q-99 33 -105 33
q-12 0 -24 -3.5t-27 -10.5l-11 13q25 36 36 45q23 20 61 20q9 0 109 -32q50 -16 83 -16q53 0 105 23z" />
    <glyph glyph-name="uniFE83" unicode="&#x623;" horiz-adv-x="424" arabic-form="isolated" 
d="M366 1638q0 -25 -31 -45q-21 -13 -63 -28l-186 -64q0 46 100 81q-31 16 -47 31q-21 19 -21 40q0 31 53 87q59 62 104 62q20 0 34.5 -13.5t14.5 -35.5q0 -14 -6 -28.5t-17 -32.5q-31 28 -67 28q-22 0 -43.5 -9t-21.5 -21q0 -15 46.5 -41t79.5 -26q22 0 31.5 1.5t39.5 13.5
zM338 548q0 -80 -29 -155q-15 -40 -65 -127l-18 10q3 29 5.5 67t2.5 51q0 104 -16.5 290.5t-39.5 389.5q-14 123 -31 251q20 44 45.5 95l48.5 96q16 -114 40.5 -312t38.5 -357q18 -198 18 -299z" />
    <glyph glyph-name="uniFE84" unicode="&#x623;" horiz-adv-x="470" arabic-form="final" 
d="M366 1638q0 -25 -31 -45q-21 -13 -63 -28l-186 -64q0 46 100 81q-31 16 -47 31q-21 19 -21 40q0 31 53 87q59 62 104 62q20 0 34.5 -13.5t14.5 -35.5q0 -14 -6 -28.5t-17 -32.5q-31 28 -67 28q-22 0 -43.5 -9t-21.5 -21q0 -15 46.5 -41t79.5 -26q22 0 31.5 1.5t39.5 13.5
zM540 293h-140q-68 0 -109 55q-36 48 -54.5 143t-28.5 234l-12.5 232t-17 180.5t-28.5 100.5q-22 48 -61 84l123 194q39 -120 55 -287q10 -104 20 -492q18 -178 52 -228q28 -42 61 -42h140v-174z" />
    <glyph glyph-name="uniFE85" unicode="&#x624;" horiz-adv-x="885" arabic-form="isolated" 
d="M955 353q0 -165 -122 -328q-136 -182 -314 -182q-66 0 -136 15q-51 11 -133 38l-130 45l17 35l117.5 -27.5t110.5 -14.5q122 0 231 62q85 49 170 142q43 47 122 153q-135 0 -202 43q-76 49 -76 161q0 103 48 191q56 102 142 102q87 0 125 -101q30 -79 30 -220v-114z
M892 462q-22 96 -53 133q-27 32 -66 32q-28 0 -48.5 -18.5t-20.5 -46.5q0 -49 44 -74.5t144 -25.5zM715 973q0 -25 -31 -45q-21 -13 -63 -28l-186 -64q0 46 100 81q-31 16 -47 31q-21 19 -21 40q0 31 53 87q59 62 104 62q20 0 34.5 -13.5t14.5 -35.5q0 -14 -6 -28.5
t-17 -32.5q-31 28 -67 28q-22 0 -43.5 -9t-21.5 -21q0 -15 46.5 -41t79.5 -26q22 0 31.5 1.5t39.5 13.5z" />
    <glyph glyph-name="uniFE86" unicode="&#x624;" horiz-adv-x="885" arabic-form="final" 
d="M955 353q0 -165 -122 -328q-136 -182 -314 -182q-66 0 -136 15q-51 11 -133 38l-130 45l17 35l117.5 -27.5t110.5 -14.5q122 0 231 62q85 49 170 142q43 47 122 153q-135 0 -202 43q-76 49 -76 161q0 103 48 191q56 102 142 102q87 0 125 -101q30 -79 30 -220v-114z
M892 462q-22 96 -53 133q-27 32 -66 32q-28 0 -48.5 -18.5t-20.5 -46.5q0 -49 44 -74.5t144 -25.5zM715 973q0 -25 -31 -45q-21 -13 -63 -28l-186 -64q0 46 100 81q-31 16 -47 31q-21 19 -21 40q0 31 53 87q59 62 104 62q20 0 34.5 -13.5t14.5 -35.5q0 -14 -6 -28.5
t-17 -32.5q-31 28 -67 28q-22 0 -43.5 -9t-21.5 -21q0 -15 46.5 -41t79.5 -26q22 0 31.5 1.5t39.5 13.5z" />
    <glyph glyph-name="uniFE87" unicode="&#x625;" horiz-adv-x="424" arabic-form="isolated" 
d="M325 -55q0 -25 -31 -45q-21 -13 -63 -28l-186 -64q0 46 100 81q-31 16 -47 31q-21 19 -21 40q0 31 53 87q59 62 104 62q20 0 34.5 -13.5t14.5 -35.5q0 -14 -6 -28.5t-17 -32.5q-31 28 -67 28q-22 0 -43.5 -9t-21.5 -21q0 -15 46.5 -41t79.5 -26q22 0 31.5 1.5t39.5 13.5z
M338 548q0 -80 -29 -155q-15 -40 -65 -127l-18 10q3 29 5.5 67t2.5 51q0 104 -16.5 290.5t-39.5 389.5q-14 123 -31 251q20 44 45.5 95l48.5 96q16 -114 40.5 -312t38.5 -357q18 -198 18 -299z" />
    <glyph glyph-name="uniFE88" unicode="&#x625;" horiz-adv-x="470" arabic-form="final" 
d="M540 293h-140q-68 0 -109 55q-36 48 -54.5 143t-28.5 234l-12.5 232t-17 180.5t-28.5 100.5q-22 48 -61 84l123 194q39 -120 55 -287q10 -104 20 -492q18 -178 52 -228q28 -42 61 -42h140v-174zM375 -55q0 -25 -31 -45q-21 -13 -63 -28l-186 -64q0 46 100 81
q-31 16 -47 31q-21 19 -21 40q0 31 53 87q59 62 104 62q20 0 34.5 -13.5t14.5 -35.5q0 -14 -6 -28.5t-17 -32.5q-31 28 -67 28q-22 0 -43.5 -9t-21.5 -21q0 -15 46.5 -41t79.5 -26q22 0 31.5 1.5t39.5 13.5z" />
    <glyph glyph-name="uniFE89" unicode="&#x626;" horiz-adv-x="1307" arabic-form="isolated" 
d="M1241 800q0 -32 -6 -65.5t-8 -47.5q-35 45 -83.5 71t-98.5 26q-87 0 -183 -101q-88 -93 -88 -148q0 -19 21.5 -28.5t74.5 -9.5h80q72 0 106.5 -1.5t82.5 -9.5t48 -73q0 -251 -219 -382q-201 -120 -544 -120q-178 0 -272 69q-102 75 -102 226q0 104 34 218q26 87 72 182
q3 6 63 119l42 -17q-63 -112 -96.5 -209.5t-33.5 -172.5q0 -122 84.5 -183t241.5 -61q120 0 279 48q136 41 245 98t109 84q0 19 -12.5 25t-40.5 6h-234q-43 0 -76 31t-33 80q0 67 55 182q60 125 145 209q102 101 205 101q66 0 104 -40t38 -106zM362 973q0 -25 -31 -45
q-21 -13 -63 -28l-186 -64q0 46 100 81q-31 16 -47 31q-21 19 -21 40q0 31 53 87q59 62 104 62q20 0 34.5 -13.5t14.5 -35.5q0 -14 -6 -28.5t-17 -32.5q-31 28 -67 28q-22 0 -43.5 -9t-21.5 -21q0 -15 46.5 -41t79.5 -26q22 0 31.5 1.5t39.5 13.5z" />
    <glyph glyph-name="uniFE8A" unicode="&#x626;" horiz-adv-x="1205" arabic-form="final" 
d="M1275 293h-175q-154 0 -231.5 -8t-77.5 -32q0 -33 93 -33q41 0 65 -2t105 -11q48 -6 66 -15q29 -15 29 -52q0 -187 -123 -272q-134 -93 -443 -93q-215 0 -342 73q-135 78 -135 222q0 116 64 246q23 47 121 201l40 -20l-75 -129q-57 -110 -57 -180q0 -123 128 -187
q122 -61 335 -61q143 0 252 22q134 27 134 74q0 17 -15 25.5t-50 8.5q-27 3 -84.5 6.5t-75.5 3.5q-63 0 -90 16.5t-27 49.5q0 124 73 203q60 64 161 95q76 23 160 23h175v-174zM422 842q0 -25 -31 -45q-21 -13 -63 -28l-186 -64q0 46 100 81q-31 16 -47 31q-21 19 -21 40
q0 31 53 87q59 62 104 62q20 0 34.5 -13.5t14.5 -35.5q0 -14 -6 -28.5t-17 -32.5q-31 28 -67 28q-22 0 -43.5 -9t-21.5 -21q0 -15 46.5 -41t79.5 -26q22 0 31.5 1.5t39.5 13.5z" />
    <glyph glyph-name="uniFE8B" unicode="&#x626;" horiz-adv-x="500" arabic-form="initial" 
d="M570 293h-570v174h497q0 118 -28 180q-19 43 -94 124l78 163q72 -91 90 -142q27 -77 27 -255v-244zM462 1205q0 -25 -31 -45q-21 -13 -63 -28l-186 -64q0 46 100 81q-31 16 -47 31q-21 19 -21 40q0 31 53 87q59 62 104 62q20 0 34.5 -13.5t14.5 -35.5q0 -14 -6 -28.5
t-17 -32.5q-31 28 -67 28q-22 0 -43.5 -9t-21.5 -21q0 -15 46.5 -41t79.5 -26q22 0 31.5 1.5t39.5 13.5z" />
    <glyph glyph-name="uniFE8C" unicode="&#x626;" horiz-adv-x="500" arabic-form="medial" 
d="M570 293h-570v174h497q0 118 -28 180q-19 43 -94 124l78 163q72 -91 90 -142q27 -77 27 -255v-244zM462 1205q0 -25 -31 -45q-21 -13 -63 -28l-186 -64q0 46 100 81q-31 16 -47 31q-21 19 -21 40q0 31 53 87q59 62 104 62q20 0 34.5 -13.5t14.5 -35.5q0 -14 -6 -28.5
t-17 -32.5q-31 28 -67 28q-22 0 -43.5 -9t-21.5 -21q0 -15 46.5 -41t79.5 -26q22 0 31.5 1.5t39.5 13.5z" />
    <glyph glyph-name="uniFE8D" unicode="&#x627;" horiz-adv-x="424" arabic-form="isolated" 
d="M338 548q0 -80 -29 -155q-15 -40 -65 -127l-18 10q3 29 5.5 67t2.5 51q0 104 -16.5 290.5t-39.5 389.5q-14 123 -31 251q20 44 45.5 95l48.5 96q16 -114 40.5 -312t38.5 -357q18 -198 18 -299z" />
    <glyph glyph-name="uniFE8E" unicode="&#x627;" horiz-adv-x="470" arabic-form="final" 
d="M540 293h-140q-68 0 -109 55q-36 48 -54.5 143t-28.5 234l-12.5 232t-17 180.5t-28.5 100.5q-22 48 -61 84l123 194q39 -120 55 -287q10 -104 20 -492q18 -178 52 -228q28 -42 61 -42h140v-174z" />
    <glyph glyph-name="uniFE8F" unicode="&#x628;" horiz-adv-x="1461" arabic-form="isolated" 
d="M1531 293h-954q-192 0 -306 67q-143 84 -143 263q0 93 42 190q15 35 72 133l30 -19l-43 -92q-29 -71 -29 -127q0 -118 124 -183q111 -58 281 -58h847v27q0 112 -27 182.5t-92 120.5l77 163q44 -55 53 -69q68 -112 68 -326v-272zM958 50l-78 -145l-162 84l74 146z" />
    <glyph glyph-name="uniFE90" unicode="&#x628;" horiz-adv-x="1461" arabic-form="final" 
d="M1531 293h-954q-192 0 -306 67q-143 84 -143 263q0 93 42 190q15 35 72 133l30 -19l-43 -92q-29 -71 -29 -127q0 -118 124 -183q111 -58 281 -58h847v27q0 112 -27 182.5t-92 120.5l77 163q44 -55 53 -69q68 -112 68 -326v-272zM958 50l-78 -145l-162 84l74 146z" />
    <glyph glyph-name="uniFE91" unicode="&#x628;" horiz-adv-x="500" arabic-form="initial" 
d="M570 293h-570v174h497q0 118 -28 180q-19 43 -94 124l78 163q72 -91 90 -142q27 -77 27 -255v-244zM468 50l-78 -145l-162 84l74 146z" />
    <glyph glyph-name="uniFE92" unicode="&#x628;" horiz-adv-x="500" arabic-form="medial" 
d="M570 293h-570v174h497q0 118 -28 180q-19 43 -94 124l78 163q72 -91 90 -142q27 -77 27 -255v-244zM468 50l-78 -145l-162 84l74 146z" />
    <glyph glyph-name="uniFE93" unicode="&#x629;" horiz-adv-x="578" arabic-form="isolated" 
d="M468 1227l-78 -144l-162 86l75 143zM238 1137l-76 -145l-162 84l74 145zM556 588q0 -141 -46 -212q-71 -110 -260 -110q-73 0 -121 29q-55 33 -55 94q0 70 35 162l65 157l-15 4l61 169q181 -95 216 -120q120 -84 120 -173zM469 510q0 38 -110 101q-47 27 -101 53
q-45 -49 -54 -61q-28 -39 -28 -74q0 -51 28.5 -79.5t76.5 -28.5q56 0 122 31.5t66 57.5z" />
    <glyph glyph-name="uniFE94" unicode="&#x629;" horiz-adv-x="768" arabic-form="final" 
d="M585 1488l-78 -144l-162 86l75 143zM355 1398l-76 -145l-162 84l74 145zM838 293h-143q-72 0 -127 123q-41 92 -66 237q-30 -56 -76 -87t-97 -31q-115 0 -191.5 15.5t-76.5 39.5q0 86 112 190.5t280 182.5q-2 8 -8.5 42t-6.5 42q0 34 23 76q19 34 50 70q10 -62 20.5 -120
t24.5 -120l30 -172q25 -142 45 -210q31 -104 64 -104h143v-174zM489 740l-19 109q-87 -31 -137 -64.5t-84 -88.5q21 -9 49 -14t77 -5q60 0 114 63z" />
    <glyph glyph-name="uniFE95" unicode="&#x62a;" horiz-adv-x="1461" arabic-form="isolated" 
d="M1061 1201l-78 -144l-162 86l75 143zM831 1111l-76 -145l-162 84l74 145zM1531 293h-954q-192 0 -306 67q-143 84 -143 263q0 93 42 190q15 35 72 133l30 -19l-43 -92q-29 -71 -29 -127q0 -118 124 -183q111 -58 281 -58h847v27q0 112 -27 182.5t-92 120.5l77 163
q44 -55 53 -69q68 -112 68 -326v-272z" />
    <glyph glyph-name="uniFE96" unicode="&#x62a;" horiz-adv-x="1461" arabic-form="final" 
d="M1061 1201l-78 -144l-162 86l75 143zM831 1111l-76 -145l-162 84l74 145zM1531 293h-954q-192 0 -306 67q-143 84 -143 263q0 93 42 190q15 35 72 133l30 -19l-43 -92q-29 -71 -29 -127q0 -118 124 -183q111 -58 281 -58h847v27q0 112 -27 182.5t-92 120.5l77 163
q44 -55 53 -69q68 -112 68 -326v-272z" />
    <glyph glyph-name="uniFE97" unicode="&#x62a;" horiz-adv-x="500" arabic-form="initial" 
d="M505 1281l-78 -144l-162 86l75 143zM275 1191l-76 -145l-162 84l74 145zM570 293h-570v174h497q0 118 -28 180q-19 43 -94 124l78 163q72 -91 90 -142q27 -77 27 -255v-244z" />
    <glyph glyph-name="uniFE98" unicode="&#x62a;" horiz-adv-x="500" arabic-form="medial" 
d="M505 1281l-78 -144l-162 86l75 143zM275 1191l-76 -145l-162 84l74 145zM570 293h-570v174h497q0 118 -28 180q-19 43 -94 124l78 163q72 -91 90 -142q27 -77 27 -255v-244z" />
    <glyph glyph-name="uniFE99" unicode="&#x62b;" horiz-adv-x="1461" arabic-form="isolated" 
d="M864 1379l-77 -146l-160 86l74 146zM1061 1201l-78 -144l-162 86l75 143zM831 1111l-76 -145l-162 84l74 145zM1531 293h-954q-192 0 -306 67q-143 84 -143 263q0 93 42 190q15 35 72 133l30 -19l-43 -92q-29 -71 -29 -127q0 -118 124 -183q111 -58 281 -58h847v27
q0 112 -27 182.5t-92 120.5l77 163q44 -55 53 -69q68 -112 68 -326v-272z" />
    <glyph glyph-name="uniFE9A" unicode="&#x62b;" horiz-adv-x="1461" arabic-form="final" 
d="M864 1379l-77 -146l-160 86l74 146zM1061 1201l-78 -144l-162 86l75 143zM831 1111l-76 -145l-162 84l74 145zM1531 293h-954q-192 0 -306 67q-143 84 -143 263q0 93 42 190q15 35 72 133l30 -19l-43 -92q-29 -71 -29 -127q0 -118 124 -183q111 -58 281 -58h847v27
q0 112 -27 182.5t-92 120.5l77 163q44 -55 53 -69q68 -112 68 -326v-272z" />
    <glyph glyph-name="uniFE9B" unicode="&#x62b;" horiz-adv-x="500" arabic-form="initial" 
d="M308 1459l-77 -146l-160 86l74 146zM505 1281l-78 -144l-162 86l75 143zM275 1191l-76 -145l-162 84l74 145zM570 293h-570v174h497q0 118 -28 180q-19 43 -94 124l78 163q72 -91 90 -142q27 -77 27 -255v-244z" />
    <glyph glyph-name="uniFE9C" unicode="&#x62b;" horiz-adv-x="500" arabic-form="medial" 
d="M308 1459l-77 -146l-160 86l74 146zM505 1281l-78 -144l-162 86l75 143zM275 1191l-76 -145l-162 84l74 145zM570 293h-570v174h497q0 118 -28 180q-19 43 -94 124l78 163q72 -91 90 -142q27 -77 27 -255v-244z" />
    <glyph glyph-name="uniFE9D" unicode="&#x62c;" horiz-adv-x="1153" arabic-form="isolated" 
d="M774 263l-85 -151l-157 90l77 145zM484 696q-20 0 -58 3t-57 3q-64 0 -144 -12q-52 -8 -142 -26q40 113 75 147q75 74 252 74q66 0 270 -28q95 -13 164 -13q29 0 85 7t84 7l-37 -169q-211 -36 -359 -82q-220 -68 -343 -166q-153 -122 -153 -288q0 -215 224 -323
q195 -94 521 -94h184l6 -11l-226 -159h-58q-216 0 -359 40q-171 48 -259 154q-100 121 -100 320q0 168 79 302q60 102 175 193q35 28 176 121z" />
    <glyph glyph-name="uniFE9E" unicode="&#x62c;" horiz-adv-x="1077" arabic-form="final" 
d="M1147 293h-207q-121 0 -172 45t-51 149q0 39 10 97l11 58q-171 -52 -258 -89q-160 -68 -248 -154q-111 -108 -111 -246q0 -215 224 -323q195 -94 521 -94h184l6 -11l-226 -159h-58q-216 0 -359 40q-171 48 -259 154q-100 121 -100 320q0 171 85 299q66 100 193 183
q37 25 206 115q-40 5 -84.5 8.5t-80.5 3.5q-101 0 -164 -9q-21 -3 -131 -27q34 98 71 136q83 84 260 84q97 0 210 -18.5t190 -18.5q51 0 99.5 4t101.5 11l-40 -170q-41 -5 -93 -14l-91 -17l-2 -56q0 -82 50 -110q31 -17 106 -17h207v-174zM703 185l-77 -146l-161 85l77 146z
" />
    <glyph glyph-name="uniFE9F" unicode="&#x62c;" horiz-adv-x="1085" arabic-form="initial" 
d="M1145 293h-1145v174h805q-102 79 -172 123q-87 55 -159 80q-81 28 -164 28q-51 0 -103 -7q29 74 76 119q68 65 172 65q102 0 241 -100q69 -50 225 -190q121 -109 164 -118h60v-174zM636 76l-75 -144l-163 84l78 146z" />
    <glyph glyph-name="uniFEA0" unicode="&#x62c;" horiz-adv-x="1085" arabic-form="medial" 
d="M1145 293h-1145v174h805q-102 79 -172 123q-87 55 -159 80q-81 28 -164 28q-51 0 -103 -7q29 74 76 119q68 65 172 65q102 0 241 -100q69 -50 225 -190q121 -109 164 -118h60v-174zM636 76l-75 -144l-163 84l78 146z" />
    <glyph glyph-name="uniFEA1" unicode="&#x62d;" horiz-adv-x="1153" arabic-form="isolated" 
d="M484 696q-20 0 -58 3t-57 3q-64 0 -144 -12q-52 -8 -142 -26q40 113 75 147q75 74 252 74q66 0 270 -28q95 -13 164 -13q29 0 85 7t84 7l-37 -169q-211 -36 -359 -82q-220 -68 -343 -166q-153 -122 -153 -288q0 -215 224 -323q195 -94 521 -94h184l6 -11l-226 -159h-58
q-216 0 -359 40q-171 48 -259 154q-100 121 -100 320q0 168 79 302q60 102 175 193q35 28 176 121z" />
    <glyph glyph-name="uniFEA2" unicode="&#x62d;" horiz-adv-x="1077" arabic-form="final" 
d="M1147 293h-207q-121 0 -172 45t-51 149q0 39 10 97l11 58q-171 -52 -258 -89q-160 -68 -248 -154q-111 -108 -111 -246q0 -215 224 -323q195 -94 521 -94h184l6 -11l-226 -159h-58q-216 0 -359 40q-171 48 -259 154q-100 121 -100 320q0 171 85 299q66 100 193 183
q37 25 206 115q-40 5 -84.5 8.5t-80.5 3.5q-101 0 -164 -9q-21 -3 -131 -27q34 98 71 136q83 84 260 84q97 0 210 -18.5t190 -18.5q51 0 99.5 4t101.5 11l-40 -170q-41 -5 -93 -14l-91 -17l-2 -56q0 -82 50 -110q31 -17 106 -17h207v-174z" />
    <glyph glyph-name="uniFEA3" unicode="&#x62d;" horiz-adv-x="1085" arabic-form="initial" 
d="M1145 293h-1145v174h805q-102 79 -172 123q-87 55 -159 80q-81 28 -164 28q-51 0 -103 -7q29 74 76 119q68 65 172 65q102 0 241 -100q69 -50 225 -190q121 -109 164 -118h60v-174z" />
    <glyph glyph-name="uniFEA4" unicode="&#x62d;" horiz-adv-x="1085" arabic-form="medial" 
d="M1145 293h-1145v174h805q-102 79 -172 123q-87 55 -159 80q-81 28 -164 28q-51 0 -103 -7q29 74 76 119q68 65 172 65q102 0 241 -100q69 -50 225 -190q121 -109 164 -118h60v-174z" />
    <glyph glyph-name="uniFEA5" unicode="&#x62e;" horiz-adv-x="1153" arabic-form="isolated" 
d="M676 1224l-77 -145l-161 84l75 146zM484 696q-20 0 -58 3t-57 3q-64 0 -144 -12q-52 -8 -142 -26q40 113 75 147q75 74 252 74q66 0 270 -28q95 -13 164 -13q29 0 85 7t84 7l-37 -169q-211 -36 -359 -82q-220 -68 -343 -166q-153 -122 -153 -288q0 -215 224 -323
q195 -94 521 -94h184l6 -11l-226 -159h-58q-216 0 -359 40q-171 48 -259 154q-100 121 -100 320q0 168 79 302q60 102 175 193q35 28 176 121z" />
    <glyph glyph-name="uniFEA6" unicode="&#x62e;" horiz-adv-x="1077" arabic-form="final" 
d="M680 1224l-77 -145l-161 84l75 146zM1147 293h-207q-121 0 -172 45t-51 149q0 39 10 97l11 58q-171 -52 -258 -89q-160 -68 -248 -154q-111 -108 -111 -246q0 -215 224 -323q195 -94 521 -94h184l6 -11l-226 -159h-58q-216 0 -359 40q-171 48 -259 154q-100 121 -100 320
q0 171 85 299q66 100 193 183q37 25 206 115q-40 5 -84.5 8.5t-80.5 3.5q-101 0 -164 -9q-21 -3 -131 -27q34 98 71 136q83 84 260 84q97 0 210 -18.5t190 -18.5q51 0 99.5 4t101.5 11l-40 -170q-41 -5 -93 -14l-91 -17l-2 -56q0 -82 50 -110q31 -17 106 -17h207v-174z" />
    <glyph glyph-name="uniFEA7" unicode="&#x62e;" horiz-adv-x="1085" arabic-form="initial" 
d="M666 1224l-76 -145l-162 84l74 146zM1145 293h-1145v174h805q-102 79 -172 123q-87 55 -159 80q-81 28 -164 28q-51 0 -103 -7q29 74 76 119q68 65 172 65q102 0 241 -100q69 -50 225 -190q121 -109 164 -118h60v-174z" />
    <glyph glyph-name="uniFEA8" unicode="&#x62e;" horiz-adv-x="1085" arabic-form="medial" 
d="M666 1224l-76 -145l-162 84l74 146zM1145 293h-1145v174h805q-102 79 -172 123q-87 55 -159 80q-81 28 -164 28q-51 0 -103 -7q29 74 76 119q68 65 172 65q102 0 241 -100q69 -50 225 -190q121 -109 164 -118h60v-174z" />
    <glyph glyph-name="uniFEA9" unicode="&#x62f;" horiz-adv-x="691" arabic-form="isolated" 
d="M761 293h-448q-57 0 -102.5 33t-45.5 78q0 38 4 69t15 68h23q11 -41 40 -59q24 -15 66 -15h387q0 179 -50 288q-62 136 -207 181l15 194q173 -85 245 -271q58 -150 58 -392v-174z" />
    <glyph glyph-name="uniFEAA" unicode="&#x62f;" horiz-adv-x="691" arabic-form="final" 
d="M761 293h-448q-57 0 -102.5 33t-45.5 78q0 38 4 69t15 68h23q11 -41 40 -59q24 -15 66 -15h387q0 179 -50 288q-62 136 -207 181l15 194q173 -85 245 -271q58 -150 58 -392v-174z" />
    <glyph glyph-name="uniFEAB" unicode="&#x630;" horiz-adv-x="691" arabic-form="isolated" 
d="M495 1469l-78 -145l-160 86l73 145zM761 293h-448q-57 0 -102.5 33t-45.5 78q0 38 4 69t15 68h23q11 -41 40 -59q24 -15 66 -15h387q0 179 -50 288q-62 136 -207 181l15 194q173 -85 245 -271q58 -150 58 -392v-174z" />
    <glyph glyph-name="uniFEAC" unicode="&#x630;" horiz-adv-x="691" arabic-form="final" 
d="M495 1469l-78 -145l-160 86l73 145zM761 293h-448q-57 0 -102.5 33t-45.5 78q0 38 4 69t15 68h23q11 -41 40 -59q24 -15 66 -15h387q0 179 -50 288q-62 136 -207 181l15 194q173 -85 245 -271q58 -150 58 -392v-174z" />
    <glyph glyph-name="uniFEAD" unicode="&#x631;" horiz-adv-x="1001" arabic-form="isolated" 
d="M1071 293q0 -110 -94 -228q-82 -104 -204 -179q-116 -72 -191 -72q-69 0 -149 20q-61 15 -146 47l-143 54l17 40l137.5 -26.5t129.5 -13.5q128 0 267 82q126 75 215 189.5t89 206.5q0 79 -46 166q-37 70 -104 144l57 157q82 -76 121 -152q44 -86 44 -192v-243z" />
    <glyph glyph-name="uniFEAE" unicode="&#x631;" horiz-adv-x="1001" arabic-form="final" 
d="M1071 293q0 -110 -94 -228q-82 -104 -204 -179q-116 -72 -191 -72q-69 0 -149 20q-61 15 -146 47l-143 54l17 40l137.5 -26.5t129.5 -13.5q128 0 267 82q126 75 215 189.5t89 206.5q0 79 -46 166q-37 70 -104 144l57 157q82 -76 121 -152q44 -86 44 -192v-243z" />
    <glyph glyph-name="uniFEAF" unicode="&#x632;" horiz-adv-x="1001" arabic-form="isolated" 
d="M921 1224l-77 -145l-161 84l75 146zM1071 293q0 -110 -94 -228q-82 -104 -204 -179q-116 -72 -191 -72q-69 0 -149 20q-61 15 -146 47l-143 54l17 40l137.5 -26.5t129.5 -13.5q128 0 267 82q126 75 215 189.5t89 206.5q0 79 -46 166q-37 70 -104 144l57 157
q82 -76 121 -152q44 -86 44 -192v-243z" />
    <glyph glyph-name="uniFEB0" unicode="&#x632;" horiz-adv-x="1001" arabic-form="final" 
d="M921 1224l-77 -145l-161 84l75 146zM1071 293q0 -110 -94 -228q-82 -104 -204 -179q-116 -72 -191 -72q-69 0 -149 20q-61 15 -146 47l-143 54l17 40l137.5 -26.5t129.5 -13.5q128 0 267 82q126 75 215 189.5t89 206.5q0 79 -46 166q-37 70 -104 144l57 157
q82 -76 121 -152q44 -86 44 -192v-243z" />
    <glyph glyph-name="uniFEB1" unicode="&#x633;" horiz-adv-x="1682" arabic-form="isolated" 
d="M1752 293h-79q-60 0 -105.5 16.5t-92.5 52.5q-42 -38 -75 -51q-47 -18 -137 -18h-123q0 -92 -44 -179q-57 -113 -174 -179q-147 -83 -368 -83q-200 0 -306 70q-116 77 -116 236q0 86 21 174t57 177q22 54 76 166l40 -18q-70 -144 -92.5 -227t-22.5 -152
q0 -124 88.5 -188.5t252.5 -64.5q192 0 343 67q188 83 188 232q0 100 -37 190q-29 71 -82 136l83 205q50 -82 68 -145q25 -89 25 -243h123q95 0 135 29q35 25 35 77q0 29 -3.5 58.5t-10.5 64.5l40 60l16 -97q22 -98 59 -141q41 -48 116 -48q23 0 35.5 14.5t12.5 36.5
q0 50 -31 107q-23 42 -61 84l67 109q47 -77 57 -105q22 -63 22 -183v-240z" />
    <glyph glyph-name="uniFEB2" unicode="&#x633;" horiz-adv-x="1682" arabic-form="final" 
d="M1752 293h-79q-60 0 -105.5 16.5t-92.5 52.5q-42 -38 -75 -51q-47 -18 -137 -18h-123q0 -92 -44 -179q-57 -113 -174 -179q-147 -83 -368 -83q-200 0 -306 70q-116 77 -116 236q0 86 21 174t57 177q22 54 76 166l40 -18q-70 -144 -92.5 -227t-22.5 -152
q0 -124 88.5 -188.5t252.5 -64.5q192 0 343 67q188 83 188 232q0 100 -37 190q-29 71 -82 136l83 205q50 -82 68 -145q25 -89 25 -243h123q95 0 135 29q35 25 35 77q0 29 -3.5 58.5t-10.5 64.5l40 60l16 -97q22 -98 59 -141q41 -48 116 -48q23 0 35.5 14.5t12.5 36.5
q0 50 -31 107q-23 42 -61 84l67 109q47 -77 57 -105q22 -63 22 -183v-240z" />
    <glyph glyph-name="uniFEB3" unicode="&#x633;" horiz-adv-x="1087" arabic-form="initial" 
d="M1157 293h-77q-64 0 -110 17.5t-84 49.5q-47 -37 -82 -49q-51 -18 -140 -18h-65q-52 0 -104 20q-34 13 -84 43q-48 -36 -88 -49.5t-130 -13.5h-193v174h193q81 0 116 14q58 23 58 92q0 29 -3 58t-11 65l41 60q28 -92 46 -134q32 -73 70 -110q46 -45 110 -45h67
q75 0 111 23q40 26 40 83q0 31 -4 60t-11 63l42 60l21 -94q27 -111 66 -154q34 -38 92 -38q27 0 43.5 16.5t16.5 42.5q0 56 -41 118q-7 10 -49 65l65 109q41 -62 56 -107q22 -68 22 -181v-240z" />
    <glyph glyph-name="uniFEB4" unicode="&#x633;" horiz-adv-x="1087" arabic-form="medial" 
d="M1157 293h-77q-64 0 -110 17.5t-84 49.5q-47 -37 -82 -49q-51 -18 -140 -18h-65q-52 0 -104 20q-34 13 -84 43q-48 -36 -88 -49.5t-130 -13.5h-193v174h193q81 0 116 14q58 23 58 92q0 29 -3 58t-11 65l41 60q28 -92 46 -134q32 -73 70 -110q46 -45 110 -45h67
q75 0 111 23q40 26 40 83q0 31 -4 60t-11 63l42 60l21 -94q27 -111 66 -154q34 -38 92 -38q27 0 43.5 16.5t16.5 42.5q0 56 -41 118q-7 10 -49 65l65 109q41 -62 56 -107q22 -68 22 -181v-240z" />
    <glyph glyph-name="uniFEB5" unicode="&#x634;" horiz-adv-x="1682" arabic-form="isolated" 
d="M1476 1379l-77 -146l-160 86l74 146zM1673 1201l-78 -144l-162 86l75 143zM1443 1111l-76 -145l-162 84l74 145zM1752 293h-79q-60 0 -105.5 16.5t-92.5 52.5q-42 -38 -75 -51q-47 -18 -137 -18h-123q0 -92 -44 -179q-57 -113 -174 -179q-147 -83 -368 -83
q-200 0 -306 70q-116 77 -116 236q0 86 21 174t57 177q22 54 76 166l40 -18q-70 -144 -92.5 -227t-22.5 -152q0 -124 88.5 -188.5t252.5 -64.5q192 0 343 67q188 83 188 232q0 100 -37 190q-29 71 -82 136l83 205q50 -82 68 -145q25 -89 25 -243h123q95 0 135 29
q35 25 35 77q0 29 -3.5 58.5t-10.5 64.5l40 60l16 -97q22 -98 59 -141q41 -48 116 -48q23 0 35.5 14.5t12.5 36.5q0 50 -31 107q-23 42 -61 84l67 109q47 -77 57 -105q22 -63 22 -183v-240z" />
    <glyph glyph-name="uniFEB6" unicode="&#x634;" horiz-adv-x="1682" arabic-form="final" 
d="M1476 1379l-77 -146l-160 86l74 146zM1673 1201l-78 -144l-162 86l75 143zM1443 1111l-76 -145l-162 84l74 145zM1752 293h-79q-60 0 -105.5 16.5t-92.5 52.5q-42 -38 -75 -51q-47 -18 -137 -18h-123q0 -92 -44 -179q-57 -113 -174 -179q-147 -83 -368 -83
q-200 0 -306 70q-116 77 -116 236q0 86 21 174t57 177q22 54 76 166l40 -18q-70 -144 -92.5 -227t-22.5 -152q0 -124 88.5 -188.5t252.5 -64.5q192 0 343 67q188 83 188 232q0 100 -37 190q-29 71 -82 136l83 205q50 -82 68 -145q25 -89 25 -243h123q95 0 135 29
q35 25 35 77q0 29 -3.5 58.5t-10.5 64.5l40 60l16 -97q22 -98 59 -141q41 -48 116 -48q23 0 35.5 14.5t12.5 36.5q0 50 -31 107q-23 42 -61 84l67 109q47 -77 57 -105q22 -63 22 -183v-240z" />
    <glyph glyph-name="uniFEB7" unicode="&#x634;" horiz-adv-x="1087" arabic-form="initial" 
d="M871 1379l-77 -146l-160 86l74 146zM1068 1201l-78 -144l-162 86l75 143zM838 1111l-76 -145l-162 84l74 145zM1157 293h-77q-64 0 -110 17.5t-84 49.5q-47 -37 -82 -49q-51 -18 -140 -18h-65q-52 0 -104 20q-34 13 -84 43q-48 -36 -88 -49.5t-130 -13.5h-193v174h193
q81 0 116 14q58 23 58 92q0 29 -3 58t-11 65l41 60q28 -92 46 -134q32 -73 70 -110q46 -45 110 -45h67q75 0 111 23q40 26 40 83q0 31 -4 60t-11 63l42 60l21 -94q27 -111 66 -154q34 -38 92 -38q27 0 43.5 16.5t16.5 42.5q0 56 -41 118q-7 10 -49 65l65 109q41 -62 56 -107
q22 -68 22 -181v-240z" />
    <glyph glyph-name="uniFEB8" unicode="&#x634;" horiz-adv-x="1087" arabic-form="medial" 
d="M871 1379l-77 -146l-160 86l74 146zM1068 1201l-78 -144l-162 86l75 143zM838 1111l-76 -145l-162 84l74 145zM1157 293h-77q-64 0 -110 17.5t-84 49.5q-47 -37 -82 -49q-51 -18 -140 -18h-65q-52 0 -104 20q-34 13 -84 43q-48 -36 -88 -49.5t-130 -13.5h-193v174h193
q81 0 116 14q58 23 58 92q0 29 -3 58t-11 65l41 60q28 -92 46 -134q32 -73 70 -110q46 -45 110 -45h67q75 0 111 23q40 26 40 83q0 31 -4 60t-11 63l42 60l21 -94q27 -111 66 -154q34 -38 92 -38q27 0 43.5 16.5t16.5 42.5q0 56 -41 118q-7 10 -49 65l65 109q41 -62 56 -107
q22 -68 22 -181v-240z" />
    <glyph glyph-name="uniFEB9" unicode="&#x635;" horiz-adv-x="2249" arabic-form="isolated" 
d="M2319 293h-1188q-30 -208 -144 -312q-142 -129 -433 -129q-200 0 -306 70q-116 77 -116 236q0 86 21 174t57 177q22 54 76 166l40 -18q-70 -144 -92.5 -227t-22.5 -152q0 -124 88.5 -188.5t252.5 -64.5q192 0 343 67q188 83 188 232q0 100 -37 190q-29 71 -82 136l83 205
q50 -82 68 -145q25 -89 25 -243h18q119 0 221 38q88 33 185 104l177 122q82 52 147 74q74 25 163 25q137 0 205 -79q63 -73 63 -205v-253zM2157 544q0 49 -61.5 76.5t-143.5 27.5q-72 0 -161 -32q-63 -23 -160 -73l-145 -76h461q96 0 153 19.5t57 57.5z" />
    <glyph glyph-name="uniFEBA" unicode="&#x635;" horiz-adv-x="2249" arabic-form="final" 
d="M2319 293h-1188q-30 -208 -144 -312q-142 -129 -433 -129q-200 0 -306 70q-116 77 -116 236q0 86 21 174t57 177q22 54 76 166l40 -18q-70 -144 -92.5 -227t-22.5 -152q0 -124 88.5 -188.5t252.5 -64.5q192 0 343 67q188 83 188 232q0 100 -37 190q-29 71 -82 136l83 205
q50 -82 68 -145q25 -89 25 -243h18q119 0 221 38q88 33 185 104l177 122q82 52 147 74q74 25 163 25q137 0 205 -79q63 -73 63 -205v-253zM2157 544q0 49 -61.5 76.5t-143.5 27.5q-72 0 -161 -32q-63 -23 -160 -73l-145 -76h461q96 0 153 19.5t57 57.5z" />
    <glyph glyph-name="uniFEBB" unicode="&#x635;" horiz-adv-x="1733" arabic-form="initial" 
d="M1803 293h-1202q-54 0 -103 18q-37 14 -87 45q-42 -36 -84 -49.5t-134 -13.5h-193v174h193q81 0 116 14q58 23 58 92q0 29 -3.5 58.5t-10.5 64.5l41 60q35 -136 96 -210q65 -79 153 -79q84 0 197 38q122 41 210 104q143 102 175 122q81 52 147 74q74 25 162 25
q136 0 205 -79q64 -73 64 -205v-253zM1640 544q0 49 -61 76.5t-142 27.5q-100 0 -242 -67l-225 -114h461q109 0 159 19t50 58z" />
    <glyph glyph-name="uniFEBC" unicode="&#x635;" horiz-adv-x="1733" arabic-form="medial" 
d="M1803 293h-1202q-54 0 -103 18q-37 14 -87 45q-42 -36 -84 -49.5t-134 -13.5h-193v174h193q81 0 116 14q58 23 58 92q0 29 -3.5 58.5t-10.5 64.5l41 60q35 -136 96 -210q65 -79 153 -79q84 0 197 38q122 41 210 104q143 102 175 122q81 52 147 74q74 25 162 25
q136 0 205 -79q64 -73 64 -205v-253zM1640 544q0 49 -61 76.5t-142 27.5q-100 0 -242 -67l-225 -114h461q109 0 159 19t50 58z" />
    <glyph glyph-name="uniFEBD" unicode="&#x636;" horiz-adv-x="2249" arabic-form="isolated" 
d="M1653 1124l-76 -145l-162 84l74 146zM2319 293h-1188q-30 -208 -144 -312q-142 -129 -433 -129q-200 0 -306 70q-116 77 -116 236q0 86 21 174t57 177q22 54 76 166l40 -18q-70 -144 -92.5 -227t-22.5 -152q0 -124 88.5 -188.5t252.5 -64.5q192 0 343 67q188 83 188 232
q0 100 -37 190q-29 71 -82 136l83 205q50 -82 68 -145q25 -89 25 -243h18q119 0 221 38q88 33 185 104l177 122q82 52 147 74q74 25 163 25q137 0 205 -79q63 -73 63 -205v-253zM2157 544q0 49 -61.5 76.5t-143.5 27.5q-72 0 -161 -32q-63 -23 -160 -73l-145 -76h461
q96 0 153 19.5t57 57.5z" />
    <glyph glyph-name="uniFEBE" unicode="&#x636;" horiz-adv-x="2249" arabic-form="final" 
d="M1653 1124l-76 -145l-162 84l74 146zM2319 293h-1188q-30 -208 -144 -312q-142 -129 -433 -129q-200 0 -306 70q-116 77 -116 236q0 86 21 174t57 177q22 54 76 166l40 -18q-70 -144 -92.5 -227t-22.5 -152q0 -124 88.5 -188.5t252.5 -64.5q192 0 343 67q188 83 188 232
q0 100 -37 190q-29 71 -82 136l83 205q50 -82 68 -145q25 -89 25 -243h18q119 0 221 38q88 33 185 104l177 122q82 52 147 74q74 25 163 25q137 0 205 -79q63 -73 63 -205v-253zM2157 544q0 49 -61.5 76.5t-143.5 27.5q-72 0 -161 -32q-63 -23 -160 -73l-145 -76h461
q96 0 153 19.5t57 57.5z" />
    <glyph glyph-name="uniFEBF" unicode="&#x636;" horiz-adv-x="1733" arabic-form="initial" 
d="M1167 1124l-76 -145l-162 84l74 146zM1803 293h-1202q-54 0 -103 18q-37 14 -87 45q-42 -36 -84 -49.5t-134 -13.5h-193v174h193q81 0 116 14q58 23 58 92q0 29 -3.5 58.5t-10.5 64.5l41 60q35 -136 96 -210q65 -79 153 -79q84 0 197 38q122 41 210 104q143 102 175 122
q81 52 147 74q74 25 162 25q136 0 205 -79q64 -73 64 -205v-253zM1640 544q0 49 -61 76.5t-142 27.5q-100 0 -242 -67l-225 -114h461q109 0 159 19t50 58z" />
    <glyph glyph-name="uniFEC0" unicode="&#x636;" horiz-adv-x="1733" arabic-form="medial" 
d="M1167 1124l-76 -145l-162 84l74 146zM1803 293h-1202q-54 0 -103 18q-37 14 -87 45q-42 -36 -84 -49.5t-134 -13.5h-193v174h193q81 0 116 14q58 23 58 92q0 29 -3.5 58.5t-10.5 64.5l41 60q35 -136 96 -210q65 -79 153 -79q84 0 197 38q122 41 210 104q143 102 175 122
q81 52 147 74q74 25 162 25q136 0 205 -79q64 -73 64 -205v-253zM1640 544q0 49 -61 76.5t-142 27.5q-100 0 -242 -67l-225 -114h461q109 0 159 19t50 58z" />
    <glyph glyph-name="uniFEC1" unicode="&#x637;" horiz-adv-x="1191" arabic-form="isolated" 
d="M1261 293h-1261v174l153 1q68 0 127 18q68 21 154 74q18 44 29 94.5t11 97.5q0 107 -20 236q-15 94 -45 221q-16 66 -42 161l-62 31q7 60 20.5 116t37.5 108q16 -47 73 -73q47 -21 120 -28q-10 -103 -15 -131t-19 -69q-7 1 -37 10l-13 4q35 -117 57.5 -240.5t22.5 -207.5
q0 -71 -14 -158q-5 -31 -18 -96q175 101 224 124q148 70 254 70q135 0 202 -79q61 -72 61 -205v-253zM1103 544q0 51 -52.5 77.5t-150.5 26.5q-73 0 -168 -32q-78 -26 -166 -72q-65 -34 -134 -77h435q236 0 236 77z" />
    <glyph glyph-name="uniFEC2" unicode="&#x637;" horiz-adv-x="1191" arabic-form="final" 
d="M1261 293h-1261v174l153 1q68 0 127 18q68 21 154 74q18 44 29 94.5t11 97.5q0 107 -20 236q-15 94 -45 221q-16 66 -42 161l-62 31q7 60 20.5 116t37.5 108q16 -47 73 -73q47 -21 120 -28q-10 -103 -15 -131t-19 -69q-7 1 -37 10l-13 4q35 -117 57.5 -240.5t22.5 -207.5
q0 -71 -14 -158q-5 -31 -18 -96q175 101 224 124q148 70 254 70q135 0 202 -79q61 -72 61 -205v-253zM1103 544q0 51 -52.5 77.5t-150.5 26.5q-73 0 -168 -32q-78 -26 -166 -72q-65 -34 -134 -77h435q236 0 236 77z" />
    <glyph glyph-name="uniFEC3" unicode="&#x637;" horiz-adv-x="1191" arabic-form="initial" 
d="M1261 293h-1261v174l153 1q68 0 127 18q68 21 154 74q18 44 29 94.5t11 97.5q0 107 -20 236q-15 94 -45 221q-16 66 -42 161l-62 31q7 60 20.5 116t37.5 108q16 -47 73 -73q47 -21 120 -28q-10 -103 -15 -131t-19 -69q-7 1 -37 10l-13 4q35 -117 57.5 -240.5t22.5 -207.5
q0 -71 -14 -158q-5 -31 -18 -96q175 101 224 124q148 70 254 70q135 0 202 -79q61 -72 61 -205v-253zM1103 544q0 51 -52.5 77.5t-150.5 26.5q-73 0 -168 -32q-78 -26 -166 -72q-65 -34 -134 -77h435q236 0 236 77z" />
    <glyph glyph-name="uniFEC4" unicode="&#x637;" horiz-adv-x="1191" arabic-form="medial" 
d="M1261 293h-1261v174l153 1q68 0 127 18q68 21 154 74q18 44 29 94.5t11 97.5q0 107 -20 236q-15 94 -45 221q-16 66 -42 161l-62 31q7 60 20.5 116t37.5 108q16 -47 73 -73q47 -21 120 -28q-10 -103 -15 -131t-19 -69q-7 1 -37 10l-13 4q35 -117 57.5 -240.5t22.5 -207.5
q0 -71 -14 -158q-5 -31 -18 -96q175 101 224 124q148 70 254 70q135 0 202 -79q61 -72 61 -205v-253zM1103 544q0 51 -52.5 77.5t-150.5 26.5q-73 0 -168 -32q-78 -26 -166 -72q-65 -34 -134 -77h435q236 0 236 77z" />
    <glyph glyph-name="uniFEC5" unicode="&#x638;" horiz-adv-x="1191" arabic-form="isolated" 
d="M989 1224l-77 -145l-162 84l74 146zM1261 293h-1261v174l153 1q68 0 127 18q68 21 154 74q18 44 29 94.5t11 97.5q0 107 -20 236q-15 94 -45 221q-16 66 -42 161l-62 31q7 60 20.5 116t37.5 108q16 -47 73 -73q47 -21 120 -28q-10 -103 -15 -131t-19 -69q-7 1 -37 10
l-13 4q35 -117 57.5 -240.5t22.5 -207.5q0 -71 -14 -158q-5 -31 -18 -96q175 101 224 124q148 70 254 70q135 0 202 -79q61 -72 61 -205v-253zM1103 544q0 51 -52.5 77.5t-150.5 26.5q-73 0 -168 -32q-78 -26 -166 -72q-65 -34 -134 -77h435q236 0 236 77z" />
    <glyph glyph-name="uniFEC6" unicode="&#x638;" horiz-adv-x="1191" arabic-form="final" 
d="M989 1224l-77 -145l-162 84l74 146zM1261 293h-1261v174l153 1q68 0 127 18q68 21 154 74q18 44 29 94.5t11 97.5q0 107 -20 236q-15 94 -45 221q-16 66 -42 161l-62 31q7 60 20.5 116t37.5 108q16 -47 73 -73q47 -21 120 -28q-10 -103 -15 -131t-19 -69q-7 1 -37 10
l-13 4q35 -117 57.5 -240.5t22.5 -207.5q0 -71 -14 -158q-5 -31 -18 -96q175 101 224 124q148 70 254 70q135 0 202 -79q61 -72 61 -205v-253zM1103 544q0 51 -52.5 77.5t-150.5 26.5q-73 0 -168 -32q-78 -26 -166 -72q-65 -34 -134 -77h435q236 0 236 77z" />
    <glyph glyph-name="uniFEC7" unicode="&#x638;" horiz-adv-x="1191" arabic-form="initial" 
d="M989 1224l-77 -145l-162 84l74 146zM1261 293h-1261v174l153 1q68 0 127 18q68 21 154 74q18 44 29 94.5t11 97.5q0 107 -20 236q-15 94 -45 221q-16 66 -42 161l-62 31q7 60 20.5 116t37.5 108q16 -47 73 -73q47 -21 120 -28q-10 -103 -15 -131t-19 -69q-7 1 -37 10
l-13 4q35 -117 57.5 -240.5t22.5 -207.5q0 -71 -14 -158q-5 -31 -18 -96q175 101 224 124q148 70 254 70q135 0 202 -79q61 -72 61 -205v-253zM1103 544q0 51 -52.5 77.5t-150.5 26.5q-73 0 -168 -32q-78 -26 -166 -72q-65 -34 -134 -77h435q236 0 236 77z" />
    <glyph glyph-name="uniFEC8" unicode="&#x638;" horiz-adv-x="1191" arabic-form="medial" 
d="M989 1224l-77 -145l-162 84l74 146zM1261 293h-1261v174l153 1q68 0 127 18q68 21 154 74q18 44 29 94.5t11 97.5q0 107 -20 236q-15 94 -45 221q-16 66 -42 161l-62 31q7 60 20.5 116t37.5 108q16 -47 73 -73q47 -21 120 -28q-10 -103 -15 -131t-19 -69q-7 1 -37 10
l-13 4q35 -117 57.5 -240.5t22.5 -207.5q0 -71 -14 -158q-5 -31 -18 -96q175 101 224 124q148 70 254 70q135 0 202 -79q61 -72 61 -205v-253zM1103 544q0 51 -52.5 77.5t-150.5 26.5q-73 0 -168 -32q-78 -26 -166 -72q-65 -34 -134 -77h435q236 0 236 77z" />
    <glyph glyph-name="uniFEC9" unicode="&#x639;" horiz-adv-x="1114" arabic-form="isolated" 
d="M1056 -267l-253 -167q-208 0 -322 17q-197 29 -304 116q-135 109 -135 313q0 124 38 223q31 81 89 153q28 34 98 103q-96 48 -133 83q-82 77 -82 195q0 106 89 208q102 117 247 117q65 0 138 -38q49 -25 123 -83q-98 0 -201 -13q-133 -17 -215 -49q-100 -39 -100 -96
q0 -61 115 -116q97 -46 220 -65q100 54 195 92q106 42 220 70l-42 -156q-208 -81 -300 -124q-186 -88 -285 -180q-127 -118 -127 -253q0 -141 106 -222q92 -70 271 -99q142 -23 362 -23q47 0 94 1l94 2v-9z" />
    <glyph glyph-name="uniFECA" unicode="&#x639;" horiz-adv-x="922" arabic-form="final" 
d="M995 -274l-202 -160q-187 0 -294 17q-194 31 -304 120q-141 115 -141 322q0 137 53 254q42 93 126 187q40 45 147 145q-10 34 -28.5 50t-39.5 16q-26 0 -51 -35h-17q21 105 44 145q56 96 184 96q86 0 148 -42q69 -47 69 -122q0 -49 -38 -83l-57 -46q56 -67 107.5 -95
t128.5 -28h162v-174h-162q-153 0 -237.5 46t-135.5 152q-73 -47 -132 -97q-80 -68 -125 -133q-56 -81 -56 -156q0 -169 169 -262q130 -71 357 -96q120 -13 321 -13z" />
    <glyph glyph-name="uniFECB" unicode="&#x639;" horiz-adv-x="1077" arabic-form="initial" 
d="M1033 605l-69 -182q-151 -55 -349.5 -92.5t-365.5 -37.5h-249v174h240q-29 47 -47 106.5t-18 115.5q0 118 98.5 198t253.5 80q123 0 203 -60q34 -25 115 -123l-19 -17q-69 19 -124 28.5t-114 9.5q-138 0 -216.5 -30.5t-78.5 -80.5q0 -49 49.5 -109.5t127.5 -107.5
q164 25 269 48.5t294 79.5z" />
    <glyph glyph-name="uniFECC" unicode="&#x639;" horiz-adv-x="807" arabic-form="medial" 
d="M877 293h-147q-65 0 -132 31q-80 37 -116 103q-67 -60 -153 -93q-105 -41 -239 -41h-90v174h90q84 0 156 18q82 21 161 67l-42 54q-32 38 -72 38q-18 0 -32 -6.5t-31 -28.5h-21v59q0 110 58 151q53 37 184 37q113 0 184 -30q93 -39 93 -120q0 -43 -37 -89
q-27 -34 -99 -94q16 -24 61.5 -40t76.5 -16h147v-174z" />
    <glyph glyph-name="uniFECD" unicode="&#x63a;" horiz-adv-x="1114" arabic-form="isolated" 
d="M498 1424l-81 -144l-156 83l81 146zM1056 -267l-253 -167q-208 0 -322 17q-197 29 -304 116q-135 109 -135 313q0 124 38 223q31 81 89 153q28 34 98 103q-96 48 -133 83q-82 77 -82 195q0 106 89 208q102 117 247 117q65 0 138 -38q49 -25 123 -83q-98 0 -201 -13
q-133 -17 -215 -49q-100 -39 -100 -96q0 -61 115 -116q97 -46 220 -65q100 54 195 92q106 42 220 70l-42 -156q-208 -81 -300 -124q-186 -88 -285 -180q-127 -118 -127 -253q0 -141 106 -222q92 -70 271 -99q142 -23 362 -23q47 0 94 1l94 2v-9z" />
    <glyph glyph-name="uniFECE" unicode="&#x63a;" horiz-adv-x="922" arabic-form="final" 
d="M599 1224l-76 -145l-162 84l75 146zM995 -274l-202 -160q-187 0 -294 17q-194 31 -304 120q-141 115 -141 322q0 137 53 254q42 93 126 187q40 45 147 145q-10 34 -28.5 50t-39.5 16q-26 0 -51 -35h-17q21 105 44 145q56 96 184 96q86 0 148 -42q69 -47 69 -122
q0 -49 -38 -83l-57 -46q56 -67 107.5 -95t128.5 -28h162v-174h-162q-153 0 -237.5 46t-135.5 152q-73 -47 -132 -97q-80 -68 -125 -133q-56 -81 -56 -156q0 -169 169 -262q130 -71 357 -96q120 -13 321 -13z" />
    <glyph glyph-name="uniFECF" unicode="&#x63a;" horiz-adv-x="1077" arabic-form="initial" 
d="M613 1224l-75 -145l-163 84l76 146zM1033 605l-69 -182q-151 -55 -349.5 -92.5t-365.5 -37.5h-249v174h240q-29 47 -47 106.5t-18 115.5q0 118 98.5 198t253.5 80q123 0 203 -60q34 -25 115 -123l-19 -17q-69 19 -124 28.5t-114 9.5q-138 0 -216.5 -30.5t-78.5 -80.5
q0 -49 49.5 -109.5t127.5 -107.5q164 25 269 48.5t294 79.5z" />
    <glyph glyph-name="uniFED0" unicode="&#x63a;" horiz-adv-x="807" arabic-form="medial" 
d="M536 1224l-76 -145l-162 84l75 146zM877 293h-147q-65 0 -132 31q-80 37 -116 103q-67 -60 -153 -93q-105 -41 -239 -41h-90v174h90q84 0 156 18q82 21 161 67l-42 54q-32 38 -72 38q-18 0 -32 -6.5t-31 -28.5h-21v59q0 110 58 151q53 37 184 37q113 0 184 -30
q93 -39 93 -120q0 -43 -37 -89q-27 -34 -99 -94q16 -24 61.5 -40t76.5 -16h147v-174z" />
    <glyph glyph-name="uniFED1" unicode="&#x641;" horiz-adv-x="1615" arabic-form="isolated" 
d="M1486 1309l-82 -148l-162 88l83 146zM1685 293h-917q-211 0 -340 26q-154 31 -233 103q-86 78 -86 212q0 89 51 208l55 121l40 -23q-43 -87 -57 -132.5t-14 -82.5q0 -132 144 -195t458 -63h737q-117 32 -172 74q-63 48 -63 119q0 93 62 199q70 119 155 119q99 0 143 -117
q37 -98 37 -279v-289zM1581 596q0 87 -19 134q-23 56 -70 56q-34 0 -50.5 -20.5t-16.5 -57.5q0 -49 41 -74q30 -18 115 -38z" />
    <glyph glyph-name="uniFED2" unicode="&#x641;" horiz-adv-x="1615" arabic-form="final" 
d="M1486 1309l-82 -148l-162 88l83 146zM1685 293h-917q-211 0 -340 26q-154 31 -233 103q-86 78 -86 212q0 89 51 208l55 121l40 -23q-43 -87 -57 -132.5t-14 -82.5q0 -132 144 -195t458 -63h737q-117 32 -172 74q-63 48 -63 119q0 93 62 199q70 119 155 119q99 0 143 -117
q37 -98 37 -279v-289zM1581 596q0 87 -19 134q-23 56 -70 56q-34 0 -50.5 -20.5t-16.5 -57.5q0 -49 41 -74q30 -18 115 -38z" />
    <glyph glyph-name="uniFED3" unicode="&#x641;" horiz-adv-x="548" arabic-form="initial" 
d="M485 1401l-77 -146l-161 86l74 146zM618 293h-618v174h533q0 89 -21 167q-52 -17 -80 -24q-46 -12 -81 -12q-73 0 -119 37q-53 42 -53 121q0 139 50 243q56 116 146 116q122 0 188 -191q55 -158 55 -371v-260zM455 813q-14 36 -45 73q-42 50 -80 50q-27 0 -44.5 -22.5
t-17.5 -53.5q0 -80 88 -80q23 0 49 9t50 24z" />
    <glyph glyph-name="uniFED4" unicode="&#x641;" horiz-adv-x="538" arabic-form="medial" 
d="M521 1355l-88 -144l-140 96l83 140zM608 293h-608v174h343q62 0 105.5 4.5t94.5 19.5q-172 25 -223 47q-115 50 -115 170q0 105 55 198q62 105 151 105q102 0 155 -130q42 -103 42 -243v-345zM518 642q-23 80 -44 119q-41 75 -99 75q-28 0 -48 -22t-20 -52q0 -76 79 -102
q28 -9 132 -18z" />
    <glyph glyph-name="uniFED5" unicode="&#x642;" horiz-adv-x="1191" arabic-form="isolated" 
d="M1144 1314l-78 -144l-162 86l75 143zM914 1224l-76 -145l-162 84l74 145zM1261 242q0 -198 -190 -302q-171 -93 -454 -93q-223 0 -345 80q-132 87 -132 258q0 118 38 248q35 120 100 240l42 -18q-29 -70 -49 -124q-27 -74 -39 -127q-15 -67 -15 -130q0 -130 110 -192
q102 -57 301 -57q213 0 373 70q185 81 185 219q0 51 -3.5 73.5t-12.5 45.5q-38 -18 -76.5 -28.5t-77.5 -10.5q-88 0 -143 40q-67 48 -67 145q0 113 58 216q65 116 154 116q117 0 185 -160q58 -136 58 -315v-194zM1102 613q-26 62 -37 77q-28 41 -70 41q-48 0 -70.5 -23
t-22.5 -58q0 -31 29 -49t66 -18q26 0 48.5 7.5t56.5 22.5z" />
    <glyph glyph-name="uniFED6" unicode="&#x642;" horiz-adv-x="1191" arabic-form="final" 
d="M1144 1314l-78 -144l-162 86l75 143zM914 1224l-76 -145l-162 84l74 145zM1261 242q0 -198 -190 -302q-171 -93 -454 -93q-223 0 -345 80q-132 87 -132 258q0 118 38 248q35 120 100 240l42 -18q-29 -70 -49 -124q-27 -74 -39 -127q-15 -67 -15 -130q0 -130 110 -192
q102 -57 301 -57q213 0 373 70q185 81 185 219q0 51 -3.5 73.5t-12.5 45.5q-38 -18 -76.5 -28.5t-77.5 -10.5q-88 0 -143 40q-67 48 -67 145q0 113 58 216q65 116 154 116q117 0 185 -160q58 -136 58 -315v-194zM1102 613q-26 62 -37 77q-28 41 -70 41q-48 0 -70.5 -23
t-22.5 -58q0 -31 29 -49t66 -18q26 0 48.5 7.5t56.5 22.5z" />
    <glyph glyph-name="uniFED7" unicode="&#x642;" horiz-adv-x="548" arabic-form="initial" 
d="M586 1431l-78 -144l-162 86l75 143zM356 1341l-76 -145l-162 84l74 145zM618 293h-618v174h533q0 89 -21 167q-52 -17 -80 -24q-46 -12 -81 -12q-73 0 -119 37q-53 42 -53 121q0 139 50 243q56 116 146 116q122 0 188 -191q55 -158 55 -371v-260zM455 813q-14 36 -45 73
q-42 50 -80 50q-27 0 -44.5 -22.5t-17.5 -53.5q0 -80 88 -80q23 0 49 9t50 24z" />
    <glyph glyph-name="uniFED8" unicode="&#x642;" horiz-adv-x="538" arabic-form="medial" 
d="M565 1407l-85 -134l-125 82l86 133zM336 1347l-79 -136l-123 81l83 134zM608 293h-608v174h343q62 0 105.5 4.5t94.5 19.5q-172 25 -223 47q-115 50 -115 170q0 105 55 198q62 105 151 105q102 0 155 -130q42 -103 42 -243v-345zM518 642q-23 80 -44 119q-41 75 -99 75
q-28 0 -48 -22t-20 -52q0 -76 79 -102q28 -9 132 -18z" />
    <glyph glyph-name="uniFED9" unicode="&#x643;" horiz-adv-x="1231" arabic-form="isolated" 
d="M935 904q0 -109 -73 -169t-205 -60q-61 0 -135 17q-45 10 -132 37l17 21q24 0 58 -3q79 -7 98 -7q115 0 197.5 33.5t82.5 79.5q0 21 -17 36t-40 15q-26 0 -40 -1l-70 -5q-25 0 -42.5 13t-17.5 44q0 84 87.5 201t183.5 149l-19 -131q-69 -19 -106 -41q-60 -35 -60 -84
q0 -17 16 -24.5t37 -7.5q18 0 32 2l54 7q52 0 73 -27t21 -95zM1301 293h-738q-239 0 -340 57q-108 61 -108 208q0 88 47 200q13 31 55 115l34 -20q-34 -78 -44.5 -120t-10.5 -80q0 -109 115 -153q86 -33 252 -33h637l-125 848l-52 25q0 69 12 129.5t36 117.5l15 -11
q0 -58 72 -87l108 -40q0 -46 -11.5 -103t-23.5 -89l-48 16l118 -784v-196z" />
    <glyph glyph-name="uniFEDA" unicode="&#x643;" horiz-adv-x="1231" arabic-form="final" 
d="M935 904q0 -109 -73 -169t-205 -60q-61 0 -135 17q-45 10 -132 37l17 21q24 0 58 -3q79 -7 98 -7q115 0 197.5 33.5t82.5 79.5q0 21 -17 36t-40 15q-26 0 -40 -1l-70 -5q-25 0 -42.5 13t-17.5 44q0 84 87.5 201t183.5 149l-19 -131q-69 -19 -106 -41q-60 -35 -60 -84
q0 -17 16 -24.5t37 -7.5q18 0 32 2l54 7q52 0 73 -27t21 -95zM1301 293h-738q-239 0 -340 57q-108 61 -108 208q0 88 47 200q13 31 55 115l34 -20q-34 -78 -44.5 -120t-10.5 -80q0 -109 115 -153q86 -33 252 -33h637l-125 848l-52 25q0 69 12 129.5t36 117.5l15 -11
q0 -58 72 -87l108 -40q0 -46 -11.5 -103t-23.5 -89l-48 16l118 -784v-196z" />
    <glyph glyph-name="uniFEDB" unicode="&#x643;" horiz-adv-x="807" arabic-form="initial" 
d="M877 293h-877v174h761q-70 106 -160 184.5t-243 169.5l-33 -31l-118 90q-62 52 -62 81q0 172 84 270q78 90 269 162l282 110v-173l-209 -70q-125 -41 -202 -75q-98 -43 -98 -66t64 -71l81 -60q152 -115 265 -241q122 -135 196 -280v-174z" />
    <glyph glyph-name="uniFEDC" unicode="&#x643;" horiz-adv-x="807" arabic-form="medial" 
d="M877 293h-877v174h761q-70 106 -160 184.5t-243 169.5l-33 -31l-118 90q-62 52 -62 81q0 172 84 270q78 90 269 162l282 110v-173l-209 -70q-125 -41 -202 -75q-98 -43 -98 -66t64 -71l81 -60q152 -115 265 -241q122 -135 196 -280v-174z" />
    <glyph glyph-name="uniFEDD" unicode="&#x644;" horiz-adv-x="1037" arabic-form="isolated" 
d="M1107 417q0 -160 -75 -254q-67 -83 -197 -119q-110 -30 -279 -30q-193 0 -299 71q-116 78 -116 233q0 86 25 179q21 79 64 173q31 68 84 164l32 -19q-37 -67 -62 -120q-33 -71 -49 -127q-19 -68 -19 -132q0 -123 89.5 -186t248.5 -63q169 0 313 58q158 64 158 153
q0 97 -31 329q-24 178 -59 398l-33 194l-46 24q0 134 55 244h17q4 -38 14 -56.5t33 -27.5q31 -13 68 -31l47 -23q0 -70 -5 -102t-20 -90l-57 18q2 -22 29 -201q31 -209 46 -339q24 -208 24 -318z" />
    <glyph glyph-name="uniFEDE" unicode="&#x644;" horiz-adv-x="1037" arabic-form="final" 
d="M1107 417q0 -160 -75 -254q-67 -83 -197 -119q-110 -30 -279 -30q-193 0 -299 71q-116 78 -116 233q0 86 25 179q21 79 64 173q31 68 84 164l32 -19q-37 -67 -62 -120q-33 -71 -49 -127q-19 -68 -19 -132q0 -123 89.5 -186t248.5 -63q169 0 313 58q158 64 158 153
q0 97 -31 329q-24 178 -59 398l-33 194l-46 24q0 134 55 244h17q4 -38 14 -56.5t33 -27.5q31 -13 68 -31l47 -23q0 -70 -5 -102t-20 -90l-57 18q2 -22 29 -201q31 -209 46 -339q24 -208 24 -318z" />
    <glyph glyph-name="uniFEDF" unicode="&#x644;" horiz-adv-x="424" arabic-form="initial" 
d="M494 293h-494v174h393l-119 848l-52 25q0 69 12 129.5t36 117.5l15 -11q0 -58 65 -87l101 -40q0 -50 -8 -107t-19 -85l-48 16l118 -784v-196z" />
    <glyph glyph-name="uniFEE0" unicode="&#x644;" horiz-adv-x="424" arabic-form="medial" 
d="M494 293h-494v174h393l-119 848l-52 25q0 69 12 129.5t36 117.5l15 -11q0 -58 65 -87l101 -40q0 -50 -8 -107t-19 -85l-48 16l118 -784v-196z" />
    <glyph glyph-name="uniFEE1" unicode="&#x645;" horiz-adv-x="692" arabic-form="isolated" 
d="M762 293h-119q-166 0 -290 -31q-157 -39 -157 -112q0 -66 22.5 -141l46 -152t23.5 -141q0 -38 -5.5 -69t-19.5 -81l-51 166l-71 239q-36 128 -36 154q0 128 53.5 196.5t164.5 101.5q88 26 265 44q-63 64 -78 76q-51 40 -103 40q-33 0 -63 -20q-24 -16 -58 -55l-46 29
q30 75 68 120q63 74 149 74q62 0 124 -46q51 -38 104 -106q26 -33 77 -112v-174z" />
    <glyph glyph-name="uniFEE2" unicode="&#x645;" horiz-adv-x="692" arabic-form="final" 
d="M762 293h-119q-166 0 -290 -31q-157 -39 -157 -112q0 -66 22.5 -141l46 -152t23.5 -141q0 -38 -5.5 -69t-19.5 -81l-51 166l-71 239q-36 128 -36 154q0 128 53.5 196.5t164.5 101.5q88 26 265 44q-63 64 -78 76q-51 40 -103 40q-33 0 -63 -20q-24 -16 -58 -55l-46 29
q30 75 68 120q63 74 149 74q62 0 124 -46q51 -38 104 -106q26 -33 77 -112v-174z" />
    <glyph glyph-name="uniFEE3" unicode="&#x645;" horiz-adv-x="807" arabic-form="initial" 
d="M877 293h-104q-67 0 -151 30q-97 35 -171 96q-58 -71 -118.5 -98.5t-176.5 -27.5h-156v174h153q91 0 162 46q55 36 100 101q61 88 150 153q80 58 147 74q69 -105 110 -189q55 -114 55 -185v-174zM762 490q-13 58 -40 114q-23 47 -61 97q-48 -12 -81 -45q-22 -21 -52 -71
q36 -39 101.5 -70t123.5 -38z" />
    <glyph glyph-name="uniFEE4" unicode="&#x645;" horiz-adv-x="807" arabic-form="medial" 
d="M877 293h-104q-67 0 -151 30q-97 35 -171 96q-58 -71 -118.5 -98.5t-176.5 -27.5h-156v174h153q91 0 162 46q55 36 100 101q61 88 150 153q80 58 147 74q69 -105 110 -189q55 -114 55 -185v-174zM762 490q-13 58 -40 114q-23 47 -61 97q-48 -12 -81 -45q-22 -21 -52 -71
q36 -39 101.5 -70t123.5 -38z" />
    <glyph glyph-name="uniFEE5" unicode="&#x646;" horiz-adv-x="1077" arabic-form="isolated" 
d="M775 1060l-75 -143l-156 86l72 139zM1147 293q0 -223 -131 -328q-141 -113 -455 -113q-200 0 -306 70q-116 77 -116 236q0 86 21 174t57 177q22 54 76 166l40 -18q-70 -144 -92.5 -227t-22.5 -152q0 -124 88.5 -188.5t252.5 -64.5q189 0 335 67q181 83 181 232
q0 102 -30 190q-26 78 -74 136l83 205q53 -81 73 -165t20 -223v-174z" />
    <glyph glyph-name="uniFEE6" unicode="&#x646;" horiz-adv-x="1077" arabic-form="final" 
d="M775 1060l-75 -143l-156 86l72 139zM1147 293q0 -223 -131 -328q-141 -113 -455 -113q-200 0 -306 70q-116 77 -116 236q0 86 21 174t57 177q22 54 76 166l40 -18q-70 -144 -92.5 -227t-22.5 -152q0 -124 88.5 -188.5t252.5 -64.5q189 0 335 67q181 83 181 232
q0 102 -30 190q-26 78 -74 136l83 205q53 -81 73 -165t20 -223v-174z" />
    <glyph glyph-name="uniFEE7" unicode="&#x646;" horiz-adv-x="500" arabic-form="initial" 
d="M490 1218l-76 -145l-162 84l74 145zM570 293h-570v174h497q0 118 -28 180q-19 43 -94 124l78 163q72 -91 90 -142q27 -77 27 -255v-244z" />
    <glyph glyph-name="uniFEE8" unicode="&#x646;" horiz-adv-x="500" arabic-form="medial" 
d="M490 1218l-76 -145l-162 84l74 145zM570 293h-570v174h497q0 118 -28 180q-19 43 -94 124l78 163q72 -91 90 -142q27 -77 27 -255v-244z" />
    <glyph glyph-name="uniFEE9" unicode="&#x647;" horiz-adv-x="578" arabic-form="isolated" 
d="M536 588q0 -141 -46 -212q-71 -110 -260 -110q-73 0 -121 29q-55 33 -55 94q0 70 35 162l65 157l-15 4l61 169q181 -95 216 -120q120 -84 120 -173zM449 510q0 38 -110 101q-47 27 -101 53q-45 -49 -54 -61q-28 -39 -28 -74q0 -51 28.5 -79.5t76.5 -28.5q56 0 122 31.5
t66 57.5z" />
    <glyph glyph-name="uniFEEA" unicode="&#x647;" horiz-adv-x="768" arabic-form="final" 
d="M838 293h-143q-72 0 -127 123q-41 92 -66 237q-30 -56 -76 -87t-97 -31q-115 0 -191.5 15.5t-76.5 39.5q0 86 112 190.5t280 182.5q-2 8 -8.5 42t-6.5 42q0 34 23 76q19 34 50 70q10 -62 20.5 -120t24.5 -120l30 -172q25 -142 45 -210q31 -104 64 -104h143v-174zM489 740
l-19 109q-87 -31 -137 -64.5t-84 -88.5q21 -9 49 -14t77 -5q60 0 114 63z" />
    <glyph glyph-name="uniFEEB" unicode="&#x647;" horiz-adv-x="922" arabic-form="initial" 
d="M858 462q0 -58 -36 -129q-39 -77 -78 -77q-41 0 -153 52q-103 48 -174 94q-116 -66 -169 -85q-67 -24 -158 -24h-90v174h90q41 0 79 6.5t103 23.5l-52 39q-28 25 -28 49q0 17 1.5 25t13.5 30l99 173q20 35 36.5 48.5t45.5 21.5q-69 47 -69 67t44 103l46 83
q64 -61 161 -177q123 -146 194 -261q94 -152 94 -236zM506 679q0 43 -18 68q-21 30 -67 30t-86 -30.5t-40 -73.5q0 -41 122 -108q43 28 64 54q25 30 25 60zM747 450q0 35 -56 109q-35 47 -86 100q0 -49 -20.5 -91.5t-57.5 -65.5l121 -61q50 -22 71 -22q12 0 20 9t8 22z" />
    <glyph glyph-name="uniFEEC" unicode="&#x647;" horiz-adv-x="807" arabic-form="medial" 
d="M877 293h-366q64 -30 109 -85q57 -69 57 -150q0 -78 -24 -125q-30 -59 -94 -59q-120 0 -220 83q-120 100 -120 264l2 72h-221v174h253q35 93 77 173q53 101 111 165q67 74 126 74q31 0 54.5 -54t23.5 -115q0 -88 -46 -143q-27 -33 -162 -100h440v-174zM546 636
q0 95 -40 95q-43 0 -103 -94q-29 -45 -82 -150q91 25 153 63q72 44 72 86zM586 74q0 79 -116 152q-95 60 -187 76q0 -110 53 -181q64 -86 191 -86q24 0 41.5 10t17.5 29z" />
    <glyph glyph-name="uniFEED" unicode="&#x648;" horiz-adv-x="885" arabic-form="isolated" 
d="M955 353q0 -165 -122 -328q-136 -182 -314 -182q-66 0 -136 15q-51 11 -133 38l-130 45l17 35l117.5 -27.5t110.5 -14.5q122 0 231 62q85 49 170 142q43 47 122 153q-135 0 -202 43q-76 49 -76 161q0 103 48 191q56 102 142 102q87 0 125 -101q30 -79 30 -220v-114z
M892 462q-22 96 -53 133q-27 32 -66 32q-28 0 -48.5 -18.5t-20.5 -46.5q0 -49 44 -74.5t144 -25.5z" />
    <glyph glyph-name="uniFEEE" unicode="&#x648;" horiz-adv-x="885" arabic-form="final" 
d="M955 353q0 -165 -122 -328q-136 -182 -314 -182q-66 0 -136 15q-51 11 -133 38l-130 45l17 35l117.5 -27.5t110.5 -14.5q122 0 231 62q85 49 170 142q43 47 122 153q-135 0 -202 43q-76 49 -76 161q0 103 48 191q56 102 142 102q87 0 125 -101q30 -79 30 -220v-114z
M892 462q-22 96 -53 133q-27 32 -66 32q-28 0 -48.5 -18.5t-20.5 -46.5q0 -49 44 -74.5t144 -25.5z" />
    <glyph glyph-name="uniFEEF" unicode="&#x649;" horiz-adv-x="1307" arabic-form="isolated" 
d="M1241 800q0 -32 -6 -65.5t-8 -47.5q-35 45 -83.5 71t-98.5 26q-87 0 -183 -101q-88 -93 -88 -148q0 -19 21.5 -28.5t74.5 -9.5h80q72 0 106.5 -1.5t82.5 -9.5t48 -73q0 -251 -219 -382q-201 -120 -544 -120q-178 0 -272 69q-102 75 -102 226q0 104 34 218q26 87 72 182
q3 6 63 119l42 -17q-63 -112 -96.5 -209.5t-33.5 -172.5q0 -122 84.5 -183t241.5 -61q120 0 279 48q136 41 245 98t109 84q0 19 -12.5 25t-40.5 6h-234q-43 0 -76 31t-33 80q0 67 55 182q60 125 145 209q102 101 205 101q66 0 104 -40t38 -106z" />
    <glyph glyph-name="uniFEF0" unicode="&#x649;" horiz-adv-x="1205" arabic-form="final" 
d="M1275 293h-175q-154 0 -231.5 -8t-77.5 -32q0 -33 93 -33q41 0 65 -2t105 -11q48 -6 66 -15q29 -15 29 -52q0 -187 -123 -272q-134 -93 -443 -93q-215 0 -342 73q-135 78 -135 222q0 116 64 246q23 47 121 201l40 -20l-75 -129q-57 -110 -57 -180q0 -123 128 -187
q122 -61 335 -61q143 0 252 22q134 27 134 74q0 17 -15 25.5t-50 8.5q-27 3 -84.5 6.5t-75.5 3.5q-63 0 -90 16.5t-27 49.5q0 124 73 203q60 64 161 95q76 23 160 23h175v-174z" />
    <glyph glyph-name="uniFEF1" unicode="&#x64a;" horiz-adv-x="1307" arabic-form="isolated" 
d="M1241 800q0 -32 -6 -65.5t-8 -47.5q-35 45 -83.5 71t-98.5 26q-87 0 -183 -101q-88 -93 -88 -148q0 -19 21.5 -28.5t74.5 -9.5h80q72 0 106.5 -1.5t82.5 -9.5t48 -73q0 -251 -219 -382q-201 -120 -544 -120q-178 0 -272 69q-102 75 -102 226q0 104 34 218q26 87 72 182
q3 6 63 119l42 -17q-63 -112 -96.5 -209.5t-33.5 -172.5q0 -122 84.5 -183t241.5 -61q120 0 279 48q136 41 245 98t109 84q0 19 -12.5 25t-40.5 6h-234q-43 0 -76 31t-33 80q0 67 55 182q60 125 145 209q102 101 205 101q66 0 104 -40t38 -106zM864 -191l-78 -144l-162 86
l75 143zM634 -281l-76 -145l-162 84l74 145z" />
    <glyph glyph-name="uniFEF2" unicode="&#x64a;" horiz-adv-x="1205" arabic-form="final" 
d="M1275 293h-175q-154 0 -231.5 -8t-77.5 -32q0 -33 93 -33q41 0 65 -2t105 -11q48 -6 66 -15q29 -15 29 -52q0 -187 -123 -272q-134 -93 -443 -93q-215 0 -342 73q-135 78 -135 222q0 116 64 246q23 47 121 201l40 -20l-75 -129q-57 -110 -57 -180q0 -123 128 -187
q122 -61 335 -61q143 0 252 22q134 27 134 74q0 17 -15 25.5t-50 8.5q-27 3 -84.5 6.5t-75.5 3.5q-63 0 -90 16.5t-27 49.5q0 124 73 203q60 64 161 95q76 23 160 23h175v-174zM861 -348l-93 -86l-112 71l90 94zM654 -348l-91 -86l-116 71l93 94z" />
    <glyph glyph-name="uniFEF3" unicode="&#x64a;" horiz-adv-x="500" arabic-form="initial" 
d="M570 293h-570v174h497q0 118 -28 180q-19 43 -94 124l78 163q72 -91 90 -142q27 -77 27 -255v-244zM565 93l-78 -144l-162 86l75 143zM335 3l-76 -145l-162 84l74 145z" />
    <glyph glyph-name="uniFEF4" unicode="&#x64a;" horiz-adv-x="500" arabic-form="medial" 
d="M570 293h-570v174h497q0 118 -28 180q-19 43 -94 124l78 163q72 -91 90 -142q27 -77 27 -255v-244zM565 93l-78 -144l-162 86l75 143zM335 3l-76 -145l-162 84l74 145z" />
    <glyph glyph-name="uniFEF5" unicode="&#xfef5;" horiz-adv-x="1114" arabic-form="isolated" 
d="M1038 1350l-48 -180l-59 29l2 -91q0 -134 -34 -260q-37 -138 -117 -273q38 -70 53 -110q23 -63 23 -128q0 -37 -2 -63t-9 -61q-106 -24 -226.5 -37.5t-234.5 -13.5q1 19 1 32q5 76 24 141q170 91 287 236q-70 132 -102 187q-35 60 -119 187q-31 43 -55 69q-33 35 -52 35
q-13 0 -43 -15q-16 -8 -27 -8q-22 0 -69 44q-41 39 -86 96q-36 46 -49 76.5t-13 73.5q0 62 8 97q12 53 41 53q41 0 119 -78q69 -70 154 -184q75 -101 148 -218l102 -164q45 -74 92 -168q67 135 92 273q22 120 22 306l-57 33q0 66 11.5 119.5t32.5 97.5l23 -6q4 -43 48 -69
q24 -14 61.5 -32t57.5 -26zM778 377q0 22 -8.5 45.5t-37.5 77.5q-30 -39 -89.5 -90t-117.5 -87q118 0 168 7q85 12 85 47zM472 1654q-28 -32 -57 -49q-41 -24 -89 -24q-50 0 -95 15q-99 33 -105 33q-12 0 -24 -3.5t-27 -10.5l-11 13q25 36 36 45q23 20 61 20q9 0 109 -32
q50 -16 83 -16q53 0 105 23z" />
    <glyph glyph-name="uniFEF6" unicode="&#xfef6;" horiz-adv-x="1230" arabic-form="final" 
d="M807 816q0 -20 -2 -34t-10 -35q-56 125 -166 258q-122 147 -192 147q-15 0 -30 -26t-35 -26q-27 0 -85 35q-73 44 -117 102q-59 78 -59 166q0 63 41 63q72 0 225 -91q171 -101 287 -236q143 -165 143 -323zM1291 293h-131q-84 0 -135 91q-61 110 -61 333q0 16 -3.5 43
t-3.5 34q-96 -267 -171 -366q-89 -116 -251 -154q-138 -32 -470 -32v28q269 81 401 140q213 94 323 217q133 148 133 351q0 98 -12.5 183t-34.5 174l33 84q20 49 37 83q26 -144 49 -311q16 -115 31 -247q19 -162 33 -261q18 -126 54 -180q24 -36 48 -36h131v-174zM472 1654
q-28 -32 -57 -49q-41 -24 -89 -24q-50 0 -95 15q-99 33 -105 33q-12 0 -24 -3.5t-27 -10.5l-11 13q25 36 36 45q23 20 61 20q9 0 109 -32q50 -16 83 -16q53 0 105 23z" />
    <glyph glyph-name="uniFEF7" unicode="&#xfef7;" horiz-adv-x="1114" arabic-form="isolated" 
d="M1038 1350l-48 -180l-59 29l2 -91q0 -134 -34 -260q-37 -138 -117 -273q38 -70 53 -110q23 -63 23 -128q0 -37 -2 -63t-9 -61q-106 -24 -226.5 -37.5t-234.5 -13.5q1 19 1 32q5 76 24 141q170 91 287 236q-70 132 -102 187q-35 60 -119 187q-31 43 -55 69q-33 35 -52 35
q-13 0 -43 -15q-16 -8 -27 -8q-22 0 -69 44q-41 39 -86 96q-36 46 -49 76.5t-13 73.5q0 62 8 97q12 53 41 53q41 0 119 -78q69 -70 154 -184q75 -101 148 -218l102 -164q45 -74 92 -168q67 135 92 273q22 120 22 306l-57 33q0 66 11.5 119.5t32.5 97.5l23 -6q4 -43 48 -69
q24 -14 61.5 -32t57.5 -26zM778 377q0 22 -8.5 45.5t-37.5 77.5q-30 -39 -89.5 -90t-117.5 -87q118 0 168 7q85 12 85 47zM318 1638q0 -25 -31 -45q-21 -13 -63 -28l-186 -64q0 46 100 81q-31 16 -47 31q-21 19 -21 40q0 31 53 87q59 62 104 62q20 0 34.5 -13.5t14.5 -35.5
q0 -14 -6 -28.5t-17 -32.5q-31 28 -67 28q-22 0 -43.5 -9t-21.5 -21q0 -15 46.5 -41t79.5 -26q22 0 31.5 1.5t39.5 13.5z" />
    <glyph glyph-name="uniFEF8" unicode="&#xfef8;" horiz-adv-x="1230" arabic-form="final" 
d="M807 816q0 -20 -2 -34t-10 -35q-56 125 -166 258q-122 147 -192 147q-15 0 -30 -26t-35 -26q-27 0 -85 35q-73 44 -117 102q-59 78 -59 166q0 63 41 63q72 0 225 -91q171 -101 287 -236q143 -165 143 -323zM1291 293h-131q-84 0 -135 91q-61 110 -61 333q0 16 -3.5 43
t-3.5 34q-96 -267 -171 -366q-89 -116 -251 -154q-138 -32 -470 -32v28q269 81 401 140q213 94 323 217q133 148 133 351q0 98 -12.5 183t-34.5 174l33 84q20 49 37 83q26 -144 49 -311q16 -115 31 -247q19 -162 33 -261q18 -126 54 -180q24 -36 48 -36h131v-174zM328 1638
q0 -25 -31 -45q-21 -13 -63 -28l-186 -64q0 46 100 81q-31 16 -47 31q-21 19 -21 40q0 31 53 87q59 62 104 62q20 0 34.5 -13.5t14.5 -35.5q0 -14 -6 -28.5t-17 -32.5q-31 28 -67 28q-22 0 -43.5 -9t-21.5 -21q0 -15 46.5 -41t79.5 -26q22 0 31.5 1.5t39.5 13.5z" />
    <glyph glyph-name="uniFEF9" unicode="&#xfef9;" horiz-adv-x="1114" arabic-form="isolated" 
d="M1038 1350l-48 -180l-59 29l2 -91q0 -134 -34 -260q-37 -138 -117 -273q38 -70 53 -110q23 -63 23 -128q0 -37 -2 -63t-9 -61q-106 -24 -226.5 -37.5t-234.5 -13.5q1 19 1 32q5 76 24 141q170 91 287 236q-70 132 -102 187q-35 60 -119 187q-31 43 -55 69q-33 35 -52 35
q-13 0 -43 -15q-16 -8 -27 -8q-22 0 -69 44q-41 39 -86 96q-36 46 -49 76.5t-13 73.5q0 62 8 97q12 53 41 53q41 0 119 -78q69 -70 154 -184q75 -101 148 -218l102 -164q45 -74 92 -168q67 135 92 273q22 120 22 306l-57 33q0 66 11.5 119.5t32.5 97.5l23 -6q4 -43 48 -69
q24 -14 61.5 -32t57.5 -26zM778 377q0 22 -8.5 45.5t-37.5 77.5q-30 -39 -89.5 -90t-117.5 -87q118 0 168 7q85 12 85 47zM623 -90q0 -25 -31 -45q-21 -13 -63 -28l-186 -64q0 46 100 81q-31 16 -47 31q-21 19 -21 40q0 31 53 87q59 62 104 62q20 0 34.5 -13.5t14.5 -35.5
q0 -14 -6 -28.5t-17 -32.5q-31 28 -67 28q-22 0 -43.5 -9t-21.5 -21q0 -15 46.5 -41t79.5 -26q22 0 31.5 1.5t39.5 13.5z" />
    <glyph glyph-name="uniFEFA" unicode="&#xfefa;" horiz-adv-x="1230" arabic-form="final" 
d="M807 816q0 -20 -2 -34t-10 -35q-56 125 -166 258q-122 147 -192 147q-15 0 -30 -26t-35 -26q-27 0 -85 35q-73 44 -117 102q-59 78 -59 166q0 63 41 63q72 0 225 -91q171 -101 287 -236q143 -165 143 -323zM1291 293h-131q-84 0 -135 91q-61 110 -61 333q0 16 -3.5 43
t-3.5 34q-96 -267 -171 -366q-89 -116 -251 -154q-138 -32 -470 -32v28q269 81 401 140q213 94 323 217q133 148 133 351q0 98 -12.5 183t-34.5 174l33 84q20 49 37 83q26 -144 49 -311q16 -115 31 -247q19 -162 33 -261q18 -126 54 -180q24 -36 48 -36h131v-174zM464 -90
q0 -25 -31 -45q-21 -13 -63 -28l-186 -64q0 46 100 81q-31 16 -47 31q-21 19 -21 40q0 31 53 87q59 62 104 62q20 0 34.5 -13.5t14.5 -35.5q0 -14 -6 -28.5t-17 -32.5q-31 28 -67 28q-22 0 -43.5 -9t-21.5 -21q0 -15 46.5 -41t79.5 -26q22 0 31.5 1.5t39.5 13.5z" />
    <glyph glyph-name="uniFEFB" unicode="&#xfefb;" horiz-adv-x="1114" arabic-form="isolated" 
d="M1038 1350l-48 -180l-59 29l2 -91q0 -134 -34 -260q-37 -138 -117 -273q38 -70 53 -110q23 -63 23 -128q0 -37 -2 -63t-9 -61q-106 -24 -226.5 -37.5t-234.5 -13.5q1 19 1 32q5 76 24 141q170 91 287 236q-70 132 -102 187q-35 60 -119 187q-31 43 -55 69q-33 35 -52 35
q-13 0 -43 -15q-16 -8 -27 -8q-22 0 -69 44q-41 39 -86 96q-36 46 -49 76.5t-13 73.5q0 62 8 97q12 53 41 53q41 0 119 -78q69 -70 154 -184q75 -101 148 -218l102 -164q45 -74 92 -168q67 135 92 273q22 120 22 306l-57 33q0 66 11.5 119.5t32.5 97.5l23 -6q4 -43 48 -69
q24 -14 61.5 -32t57.5 -26zM778 377q0 22 -8.5 45.5t-37.5 77.5q-30 -39 -89.5 -90t-117.5 -87q118 0 168 7q85 12 85 47z" />
    <glyph glyph-name="uniFEFC" unicode="&#xfefc;" horiz-adv-x="1230" arabic-form="final" 
d="M807 816q0 -20 -2 -34t-10 -35q-56 125 -166 258q-122 147 -192 147q-15 0 -30 -26t-35 -26q-27 0 -85 35q-73 44 -117 102q-59 78 -59 166q0 63 41 63q72 0 225 -91q171 -101 287 -236q143 -165 143 -323zM1291 293h-131q-84 0 -135 91q-61 110 -61 333q0 16 -3.5 43
t-3.5 34q-96 -267 -171 -366q-89 -116 -251 -154q-138 -32 -470 -32v28q269 81 401 140q213 94 323 217q133 148 133 351q0 98 -12.5 183t-34.5 174l33 84q20 49 37 83q26 -144 49 -311q16 -115 31 -247q19 -162 33 -261q18 -126 54 -180q24 -36 48 -36h131v-174z" />
    <glyph glyph-name=".notdef" horiz-adv-x="1144" 
d="M256 0v1280h1024v-1280h-1024zM288 32h960v1216h-960v-1216z" />
    <glyph glyph-name="space" unicode=" " horiz-adv-x="682" 
 />
    <glyph glyph-name="exclam" unicode="!" horiz-adv-x="402" 
d="M344 448q6 212 24 382q10 98 32 234q12 82 16 118q8 60 8 112q0 106 -26 160t-76 54t-76 -54q-24 -54 -24 -160q0 -52 6 -110q4 -36 16 -116q20 -136 30 -236q18 -170 26 -384h44zM322 190q46 0 76 -32q26 -30 26 -72t-26 -70q-28 -34 -76 -34q-46 0 -72 34
q-24 30 -24 70q0 42 24 72q28 32 72 32z" />
    <glyph glyph-name="quotedbl" unicode="&#x22;" horiz-adv-x="700" 
d="M610 920l60 458q6 68 -12 104q-20 38 -66 38q-50 0 -68 -38q-18 -36 -8 -104l60 -458h34zM280 920l60 458q8 66 -12 104t-66 38q-50 0 -68 -38q-18 -36 -8 -104l60 -458h34z" />
    <glyph glyph-name="numbersign" unicode="#" horiz-adv-x="1412" 
d="M508 924h356l-94 -372h-354zM530 1468l-112 -454h-254l-22 -90h252l-92 -372l-242 2l-24 -92h242l-112 -450h114l112 450h356l-114 -450h116l112 450h250l26 90h-254l94 372h242l28 90h-248l114 454h-114l-112 -454h-358l116 454h-116z" />
    <glyph glyph-name="dollar" unicode="$" horiz-adv-x="1224" 
d="M522 1664v-192q-202 0 -312 -118q-92 -100 -92 -244q0 -156 142 -264q96 -72 262 -126v-656q-122 28 -234 122q-100 84 -190 216l-42 -20l132 -376q48 28 90 46q40 14 72 14q14 0 40 -8q16 -4 48 -16q30 -10 44 -16l40 -10v-224h82v214l56 -2q172 0 288 94
q132 104 132 296q0 176 -144 284q-102 78 -332 152v586q66 0 162 -74q122 -94 234 -274l30 24l-130 370l-100 -44q-18 -4 -40 4q-14 4 -46 18q-34 14 -52 20q-32 10 -58 10v194h-82zM604 700q188 -66 268 -136q94 -80 94 -208q0 -158 -102 -234q-90 -68 -260 -68v646z
M522 1418v2v-574q-124 46 -190 100q-104 84 -104 204q0 134 98 208q82 60 196 60z" />
    <glyph glyph-name="percent" unicode="%" horiz-adv-x="1688" 
d="M602 1422q-182 0 -328 -184q-140 -178 -140 -378q0 -88 40 -150q56 -88 180 -88q186 0 328 190q136 178 136 376q0 12 -2 22q0 14 -2 26q18 -6 56 -12q36 -8 62 -8q54 0 114 22q50 16 96 44l-742 -1318h102l842 1480h-94q-54 -76 -138 -120q-86 -46 -184 -46q-38 0 -68 8
q-34 8 -64 24q-24 50 -66 78q-52 34 -128 34zM750 1256q6 -10 10 -34q6 -24 6 -54q0 -168 -106 -318q-108 -156 -240 -156q-74 0 -114 52q-36 48 -36 130q0 150 98 304q110 170 252 170q24 -34 56 -56q20 -14 72 -36zM1406 796q-184 0 -328 -182q-140 -178 -140 -380
q0 -96 44 -158q56 -80 174 -80q188 0 332 190q134 176 134 368q0 110 -50 172q-56 70 -166 70zM1424 724q72 0 108 -48q38 -48 38 -134q0 -168 -106 -318q-108 -156 -240 -156q-74 0 -114 52q-36 48 -36 130q0 150 98 304q110 170 252 170z" />
    <glyph glyph-name="ampersand" unicode="&#x26;" horiz-adv-x="1632" 
d="M660 910q-34 86 -54 192q-16 86 -16 142q0 82 52 142q58 62 148 62q74 0 132 -64q56 -62 56 -142q0 -98 -62 -172q-76 -92 -256 -160zM976 146q-54 -44 -122 -66q-66 -22 -144 -22q-172 0 -290 120q-114 120 -114 290q0 106 64 194q72 98 206 146q78 -184 184 -360
q110 -186 216 -302zM1094 810q102 0 138 -34t24 -114q-20 -118 -64 -224q-50 -122 -130 -214q-98 122 -196 284q-100 168 -184 352q232 88 324 190q68 78 68 184q0 116 -80 194q-80 80 -202 80q-152 0 -242 -86q-86 -86 -86 -224q0 -64 22 -146q18 -72 66 -190
q-204 -90 -296 -206q-88 -112 -88 -274q0 -150 132 -278q140 -140 336 -140q102 0 208 40q98 36 174 94q66 -58 142 -92q74 -32 134 -32q98 0 180 58q64 48 126 134l-24 32q-56 -68 -124 -96q-60 -24 -158 -24q-50 0 -102 30q-46 24 -92 70q84 88 150 228q58 124 94 264
q18 74 60 106q44 34 132 34v52h-442v-52z" />
    <glyph glyph-name="quotesingle" unicode="'" horiz-adv-x="370" 
d="M274 920l58 458q8 68 -10 104q-20 38 -66 38q-50 0 -68 -38q-18 -36 -8 -104l58 -458h36z" />
    <glyph glyph-name="parenleft" unicode="(" horiz-adv-x="712" 
d="M676 1610v36q-262 -150 -392 -388q-120 -224 -120 -520q0 -300 120 -524q128 -238 392 -384v34q-186 156 -284 370q-106 230 -106 504q0 272 106 504q102 222 284 368z" />
    <glyph glyph-name="parenright" unicode=")" horiz-adv-x="712" 
d="M104 1610q180 -146 282 -368q108 -232 108 -504q0 -274 -108 -504q-98 -214 -282 -370v-34q262 146 390 384q122 224 122 524q0 296 -122 520q-130 238 -390 388v-36z" />
    <glyph glyph-name="asterisk" unicode="*" horiz-adv-x="917" 
d="M448 1066q0 -20 4 -48q4 -16 14 -52q14 -56 20 -88q8 -58 8 -114q-44 28 -82 60l-58 58q-30 30 -46 44q-28 24 -52 38q-30 18 -58 12q-28 -4 -40 -28q-16 -22 -8 -48q10 -30 48 -54q14 -8 38 -16q16 -6 52 -14q58 -16 90 -28q56 -20 104 -50q-52 -32 -110 -54
q-34 -12 -90 -28q-32 -8 -44 -14q-22 -6 -34 -16q-34 -20 -44 -50q-12 -30 4 -56q12 -22 42 -26q34 -6 68 16q16 12 32 30q12 10 34 38q36 42 62 66q40 38 92 68q0 -60 -8 -114q-6 -32 -20 -82q-10 -34 -14 -50q-4 -28 -4 -52q0 -40 20 -64q18 -24 44 -24q24 0 44 24t20 64
q0 24 -6 52q-4 16 -14 50q-16 50 -22 82q-10 54 -8 114q50 -32 94 -72q26 -24 66 -68q22 -24 32 -34q18 -18 34 -28q32 -20 62 -14q26 4 40 26q10 26 0 54q-10 32 -38 48q-18 10 -42 18q-14 6 -46 16q-52 16 -84 28q-54 22 -106 52q48 32 100 50q30 10 82 24q34 8 50 14
q26 8 44 18q34 22 46 52q10 28 -4 50q-18 22 -48 24q-34 4 -68 -20q-12 -6 -28 -20q-8 -10 -30 -32q-38 -40 -64 -64q-44 -40 -92 -70q-2 58 8 116q6 32 22 90q10 34 14 52q6 26 6 44q0 42 -20 64q-18 20 -44 20q-28 0 -44 -20q-20 -22 -20 -64z" />
    <glyph glyph-name="plus" unicode="+" horiz-adv-x="1240" 
d="M586 1248v-440h-466v-106h466v-462h112v462h462v106h-462v440h-112z" />
    <glyph glyph-name="comma" unicode="," horiz-adv-x="440" 
d="M168 -256l24 -26q104 84 150 148q66 92 66 200q0 70 -36 106q-30 30 -80 30q-40 0 -70 -30t-30 -74q0 -40 24 -70q24 -28 50 -28q30 0 38 -28q8 -26 -2 -68q-12 -34 -50 -78q-30 -32 -84 -82z" />
    <glyph glyph-name="hyphen" unicode="-" horiz-adv-x="1116" 
d="M182 808v-106h916v106h-916z" />
    <glyph glyph-name="period" unicode="." horiz-adv-x="426" 
d="M296 204q-54 0 -86 -34q-26 -32 -26 -82t26 -82q32 -38 86 -38q56 0 86 38q28 32 28 82t-28 82q-30 34 -86 34z" />
    <glyph glyph-name="slash" unicode="/" horiz-adv-x="1300" 
d="M772 1632h-102l-666 -1776h96z" />
    <glyph glyph-name="zero" unicode="0" horiz-adv-x="1216" 
d="M616 1508q-258 0 -392 -234q-116 -204 -116 -538q0 -328 116 -532q134 -232 392 -232q256 0 390 232q118 204 118 532q0 334 -118 538q-134 234 -390 234zM616 1454q190 0 290 -216q90 -192 90 -502q0 -304 -90 -494q-100 -216 -290 -216q-192 0 -292 216
q-86 188 -86 494q0 310 86 502q100 216 292 216z" />
    <glyph glyph-name="one" unicode="1" horiz-adv-x="932" 
d="M296 -2h702v52q-158 0 -222 28q-72 28 -72 104v1326q-104 -62 -190 -94q-110 -40 -248 -56v-38h180q64 0 96 -24q34 -24 34 -80v-1034q0 -76 -66 -104q-60 -28 -214 -28v-52z" />
    <glyph glyph-name="two" unicode="2" horiz-adv-x="1136" 
d="M1100 376l-36 10q-66 -164 -136 -226q-64 -50 -180 -50h-504q60 138 186 260q98 98 250 202q214 150 300 270q92 126 92 280q0 188 -104 282q-108 100 -332 100q-212 0 -338 -120q-106 -104 -106 -240q0 -70 24 -116q26 -48 68 -48q36 0 60 22q30 24 30 72q0 22 -8 36
q-2 10 -14 26q-14 22 -20 40q-10 28 -10 74q0 100 86 152q82 50 218 50q144 0 224 -70q88 -78 88 -236q0 -128 -46 -214q-54 -104 -206 -220q-170 -124 -312 -292q-154 -182 -210 -362v-64h830z" />
    <glyph glyph-name="three" unicode="3" horiz-adv-x="1130" 
d="M518 760l-2 2q208 0 314 -94q100 -90 100 -250q0 -176 -86 -284q-94 -120 -272 -120q-176 0 -228 88q-30 48 -22 162l4 42q0 48 -32 74q-26 24 -60 24q-40 0 -66 -24q-32 -30 -32 -90q0 -136 110 -228q120 -98 326 -98q248 0 380 140q114 122 114 314q0 134 -88 232
q-98 110 -274 138q140 38 228 128q96 98 96 234q0 168 -108 262t-304 94q-194 0 -314 -94q-102 -84 -102 -190q0 -56 32 -86q26 -24 64 -24q30 0 54 30q26 34 26 78l-4 42q-12 90 16 128q50 66 228 66q138 0 212 -90q68 -80 68 -216q0 -158 -102 -244q-102 -88 -280 -88
q-46 12 -66 8q-24 -6 -24 -36q0 -28 26 -36q22 -4 68 6z" />
    <glyph glyph-name="four" unicode="4" horiz-adv-x="1162" 
d="M486 -2h526v48q-106 0 -146 16q-50 18 -50 70v264h266v64h-266v1042h-62l-634 -1046v-60h568v-262q0 -52 -46 -72q-42 -18 -156 -18v-46zM688 1288v-828h-502z" />
    <glyph glyph-name="five" unicode="5" horiz-adv-x="1122" 
d="M626 1358h356l32 114h-758l-46 -762l42 -18q54 76 132 124q98 62 210 62q172 0 266 -130q84 -114 84 -290q0 -166 -84 -288q-96 -144 -266 -144q-186 0 -238 76q-32 44 -22 158l4 54q0 42 -28 66q-26 22 -64 22t-64 -22q-26 -24 -26 -70q0 -140 120 -236
q130 -106 342 -106q220 0 348 162q112 138 112 326q0 198 -112 328q-124 146 -348 146q-116 0 -202 -32q-82 -34 -148 -106l34 566h324z" />
    <glyph glyph-name="six" unicode="6" horiz-adv-x="1126" 
d="M276 690q0 352 108 558q104 196 272 196q94 0 146 -38q50 -38 50 -98q0 -48 26 -78q28 -28 70 -28t64 28q24 28 24 78q0 76 -80 134q-94 66 -250 66q-264 0 -414 -236q-146 -228 -146 -614q0 -358 132 -534q118 -160 338 -160q182 0 308 118q148 132 148 368
q0 226 -110 354q-104 120 -274 120q-134 0 -248 -72q-92 -58 -164 -162zM276 590q56 106 144 180q108 88 222 88q140 0 222 -106q78 -104 78 -278q0 -224 -82 -340q-82 -120 -244 -120q-156 0 -238 110q-102 138 -102 466z" />
    <glyph glyph-name="seven" unicode="7" horiz-adv-x="1150" 
d="M1088 1472h-856l-94 -394l34 -12q46 128 96 194q74 96 170 96h558l-88 -146q-244 -410 -330 -592q-136 -290 -150 -516q-6 -68 24 -106q26 -32 68 -32q38 0 62 44q26 48 20 126q-22 278 136 638q92 208 320 584l30 46v70z" />
    <glyph glyph-name="eight" unicode="8" horiz-adv-x="1124" 
d="M612 1508q-192 0 -304 -122q-96 -106 -96 -240q0 -146 70 -248q68 -98 188 -140q-188 -92 -260 -200q-58 -88 -58 -220q0 -168 132 -274q128 -100 324 -100q190 0 328 116q140 116 140 278q0 184 -96 296q-88 104 -268 156q138 48 208 126q80 86 80 220q0 170 -106 262
q-104 90 -282 90zM276 344q0 156 50 232q52 80 218 162q222 -70 324 -154q116 -94 116 -228q0 -146 -98 -240q-102 -102 -272 -102q-148 0 -242 88q-96 90 -96 242zM610 1464q134 0 214 -82q78 -84 78 -228q0 -118 -64 -196q-56 -70 -182 -126q-178 60 -264 128
q-96 80 -96 190q0 150 90 236q84 78 224 78z" />
    <glyph glyph-name="nine" unicode="9" horiz-adv-x="1126" 
d="M942 778q0 -350 -110 -556q-102 -198 -266 -198q-96 0 -150 40q-48 38 -48 96q0 50 -28 80q-26 26 -66 26q-44 0 -66 -26q-24 -28 -24 -80q0 -74 80 -132q94 -68 252 -68q260 0 410 238q148 230 148 612q0 360 -134 536q-120 160 -336 160q-182 0 -310 -116
q-146 -132 -146 -362t108 -360q104 -122 276 -122q132 0 246 72q90 58 164 160zM944 878q-56 -104 -146 -178q-108 -88 -218 -88q-144 0 -224 108q-78 106 -78 284q0 220 80 334q82 118 246 118q154 0 236 -108q104 -140 104 -470z" />
    <glyph glyph-name="colon" unicode=":" horiz-adv-x="416" 
d="M342 1252q-52 0 -82 -36q-26 -32 -26 -78q0 -44 26 -76q30 -36 82 -36q50 0 80 36q28 32 28 76q0 46 -28 78q-30 36 -80 36zM342 442q-52 0 -82 -34q-26 -32 -26 -78q0 -44 26 -78q30 -36 82 -36q50 0 80 36q28 34 28 78q0 46 -28 78q-30 34 -80 34z" />
    <glyph glyph-name="semicolon" unicode=";" horiz-adv-x="418" 
d="M342 1254q-52 0 -82 -34q-26 -32 -26 -78q0 -44 26 -78q30 -36 82 -36q50 0 80 36q28 34 28 78q0 46 -28 78q-30 34 -80 34zM232 -34l24 -26q94 70 142 166q52 102 52 234q0 48 -30 80q-30 34 -76 34t-80 -34q-30 -32 -30 -76q0 -48 26 -80q24 -28 52 -28q34 0 46 -16
t2 -54q-14 -56 -46 -106q-34 -54 -82 -94z" />
    <glyph glyph-name="less" unicode="&#x3c;" horiz-adv-x="1176" 
d="M1064 1458l-908 -722l908 -724l68 78l-824 646l824 646z" />
    <glyph glyph-name="equal" unicode="=" horiz-adv-x="1224" 
d="M128 600v-106h1024v106h-1024zM128 994v-110h1024v110h-1024z" />
    <glyph glyph-name="greater" unicode="&#x3e;" horiz-adv-x="1176" 
d="M226 1458l-70 -76l826 -646l-826 -646l70 -78l906 724z" />
    <glyph glyph-name="question" unicode="?" horiz-adv-x="1002" 
d="M518 356q0 106 56 218q54 106 160 212l12 16q82 82 114 136q54 90 54 200q0 182 -124 282q-110 88 -284 88q-170 0 -276 -74q-118 -86 -118 -248q0 -56 20 -94q22 -46 68 -46q40 0 64 20q30 22 30 64q0 24 -14 42q-8 12 -28 28q-22 20 -30 32q-12 20 -12 44q0 80 82 130
q82 48 206 48q118 0 198 -88q78 -84 78 -204q0 -72 -28 -156q-30 -90 -80 -162q-102 -136 -136 -214q-52 -118 -52 -274h40zM490 172q-46 0 -72 -32q-24 -30 -24 -72q0 -40 24 -70q28 -34 72 -34q46 0 74 34q28 30 28 70q0 42 -28 72q-28 32 -74 32z" />
    <glyph glyph-name="at" unicode="@" horiz-adv-x="1930" 
d="M1204 480q2 -110 52 -162q50 -50 154 -50q146 0 280 138q96 100 142 206q28 70 42 146q14 74 14 152q0 158 -52 282t-154 218q-104 94 -242 140t-310 46q-192 0 -354 -58q-150 -54 -282 -164q-156 -128 -242 -294q-94 -184 -94 -400q0 -198 74 -354q76 -158 234 -278
q116 -86 264 -134q158 -50 352 -50t364 62q148 54 292 158l-32 38q-128 -94 -278 -148q-166 -58 -340 -58q-178 0 -330 56q-140 50 -244 140q-126 106 -184 236q-56 128 -56 300q0 208 74 382q66 156 192 282q108 114 272 172q158 58 344 58q142 0 264 -42q116 -40 210 -120
q124 -110 172 -256q28 -90 30 -200q0 -86 -16 -164t-46 -148q-50 -112 -158 -204q-106 -90 -186 -90q-50 0 -86 26q-42 28 -36 72l16 108l166 612h-108l-54 -182q-22 90 -74 140q-58 54 -148 54q-78 0 -156 -36q-72 -34 -132 -92q-84 -80 -136 -194q-56 -120 -56 -236
q0 -156 82 -242q74 -80 190 -80q90 0 166 50q82 54 144 162zM1112 1108q78 0 124 -64q42 -60 42 -150q0 -42 -10 -92q-8 -46 -22 -104q-20 -54 -42 -104t-50 -98q-56 -92 -120 -136q-58 -40 -120 -40q-82 0 -124 54q-38 54 -38 156q0 112 36 234q38 130 102 210
q48 60 100 94q62 40 122 40z" />
    <glyph glyph-name="A" unicode="A" horiz-adv-x="1668" 
d="M774 1508l-114 -46l-428 -1202q-48 -134 -90 -174q-40 -36 -126 -36v-52h446v52q-138 0 -174 36q-38 38 0 150l110 300h618l132 -348q30 -82 -14 -112q-38 -26 -170 -26v-52h520v52q-86 0 -130 32q-50 32 -76 114zM700 1372l292 -776h-574z" />
    <glyph glyph-name="B" unicode="B" horiz-adv-x="1462" 
d="M76 -2h748q242 0 384 126q130 112 130 280q0 154 -88 250q-98 106 -298 144q170 48 250 138q70 78 70 194q0 152 -128 246q-132 96 -358 96h-710v-52q112 0 156 -32q42 -32 42 -110v-1092q0 -80 -42 -108q-40 -28 -156 -28v-52zM402 810v468q0 76 40 110q40 32 132 32
h206q172 0 268 -92q84 -78 84 -188q0 -122 -98 -222q-106 -108 -254 -108h-378zM402 758h412q164 0 278 -108q110 -106 110 -246q0 -142 -104 -242q-114 -112 -300 -112h-224q-96 0 -132 28q-40 30 -40 108v572z" />
    <glyph glyph-name="C" unicode="C" horiz-adv-x="1426" 
d="M1342 396l-36 18q-96 -180 -218 -264q-120 -82 -278 -82q-246 0 -400 194q-154 190 -154 482q0 310 130 510q132 202 348 202q178 0 334 -122q106 -84 204 -226l34 16l-142 374l-146 -48l-20 8q-78 28 -120 36q-66 14 -150 14q-274 0 -448 -226q-164 -216 -164 -538
q0 -362 190 -578q178 -202 458 -202q218 0 372 130q126 108 206 302z" />
    <glyph glyph-name="D" unicode="D" horiz-adv-x="1502" 
d="M76 2h594q350 0 540 230q168 202 168 508q0 304 -168 506q-190 228 -540 228h-594v-50q94 0 138 -32q42 -34 42 -106v-1082q0 -82 -42 -116t-138 -34v-52zM386 204v1082q0 72 38 106q40 32 126 32h120q268 0 426 -214q144 -194 144 -470q0 -280 -144 -472
q-158 -214 -426 -214h-120q-88 0 -126 34t-38 116z" />
    <glyph glyph-name="E" unicode="E" horiz-adv-x="1448" 
d="M76 2h1110l138 358l-36 20q-126 -176 -246 -250q-126 -76 -302 -76h-190q-84 0 -124 34t-40 106v546h310q108 0 164 -62q58 -64 58 -198h48v574h-48q0 -140 -58 -200q-52 -56 -164 -56h-310v494q0 70 40 102q38 30 120 30h202q174 0 292 -82q68 -48 158 -170l52 -68
l30 20l-144 350h-1060v-50q94 0 136 -30q44 -32 44 -102v-1098q0 -74 -44 -106q-42 -34 -136 -34v-52z" />
    <glyph glyph-name="F" unicode="F" horiz-adv-x="1394" 
d="M76 -2h522v52q-126 0 -170 30q-42 32 -42 120v546h296q110 0 166 -58q66 -66 66 -216h48v576h-48q0 -154 -64 -208q-48 -40 -166 -40h-298v492q0 66 34 98q36 34 110 34h214q172 0 314 -106q94 -70 182 -198l30 18l-148 336h-1046v-50q106 0 146 -34q34 -28 34 -98v-1092
q0 -90 -34 -120q-36 -30 -146 -30v-52z" />
    <glyph glyph-name="G" unicode="G" horiz-adv-x="1542" 
d="M1460 664h-524v-56q132 0 182 -34q44 -32 44 -112v-156q0 -100 -116 -192q-124 -98 -282 -98q-210 0 -350 180q-156 200 -156 552q0 306 150 508q150 200 374 200q176 0 328 -112q96 -72 210 -220l34 14l-142 370l-166 -42q-44 18 -110 28q-80 14 -164 14
q-290 0 -472 -216t-182 -554q0 -372 176 -576q170 -198 470 -198q118 0 224 42q60 24 152 82l22 12l34 -102h94v464q0 78 36 112q38 34 134 34v56z" />
    <glyph glyph-name="H" unicode="H" horiz-adv-x="1598" 
d="M86 -2h470v52q-96 0 -134 30q-36 30 -36 102v554h800v-554q0 -70 -44 -102q-40 -30 -126 -30v-52h468v52q-94 0 -132 30q-40 32 -40 102v1122q0 62 40 90q40 30 132 30v50h-468v-50q84 0 126 -30q44 -28 44 -90v-518h-800v518q0 62 38 90q40 30 132 30v50h-470v-50
q96 0 136 -30q34 -26 34 -90v-1122q0 -72 -38 -102q-36 -30 -132 -30v-52z" />
    <glyph glyph-name="I" unicode="I" horiz-adv-x="706" 
d="M82 1474v-50q102 0 146 -28q44 -30 44 -108v-1118q0 -64 -44 -92t-146 -28v-52h506v52q-104 0 -148 28q-42 28 -42 92v1118q0 78 42 108q42 28 148 28v50h-506z" />
    <glyph glyph-name="J" unicode="J" horiz-adv-x="960" 
d="M798 1474h-498v-50q102 0 144 -30t42 -104v-960q0 -138 -40 -220q-42 -88 -122 -88q-50 0 -74 32q-18 26 -18 70q0 54 -26 82t-76 28q-46 0 -70 -34q-22 -30 -22 -78q0 -84 80 -122q70 -32 204 -32q126 0 204 100q86 110 86 312v910q0 74 40 104q42 30 146 30v50z" />
    <glyph glyph-name="K" unicode="K" horiz-adv-x="1620" 
d="M84 -2h478v52q-104 0 -142 28q-34 24 -34 86v408l290 266l464 -696q32 -56 -16 -76q-36 -16 -148 -16v-52h528v52q-104 0 -142 22q-34 18 -82 94l-512 754l414 374q84 74 128 100q52 30 122 30v50h-482v-50q122 0 154 -46q28 -40 -18 -92l-700 -630v634q0 80 36 108
q38 26 140 26v50h-478v-50q104 0 138 -28q34 -26 34 -112v-1118q0 -62 -36 -88q-36 -28 -136 -28v-52z" />
    <glyph glyph-name="L" unicode="L" horiz-adv-x="1406" 
d="M76 -2h1056l150 356l-40 20q-86 -152 -210 -236q-126 -88 -270 -88h-212q-84 0 -118 32q-32 30 -32 96v1116q0 76 38 102q44 28 172 28v50h-534v-50q112 0 154 -28q40 -26 40 -102v-1116q0 -66 -40 -96q-44 -32 -154 -32v-52z" />
    <glyph glyph-name="M" unicode="M" horiz-adv-x="1868" 
d="M82 -2h428v52q-114 0 -156 32q-40 32 -40 108v1184h24l524 -1390h32l532 1420h22v-1214q0 -72 -42 -104q-46 -36 -154 -36v-52h498v52q-96 0 -138 36q-36 34 -36 104v1120q0 62 32 88q38 26 142 26v50h-360l-478 -1286l-482 1286h-348v-50q94 0 134 -26t40 -88v-1120
q0 -76 -38 -108q-40 -32 -136 -32v-52z" />
    <glyph glyph-name="N" unicode="N" horiz-adv-x="1638" 
d="M76 -2h422v52q-102 0 -142 32q-38 30 -38 108v1106l980 -1304h34v1318q0 58 44 86q46 28 138 28v50h-424v-50q94 0 138 -26q44 -28 44 -88v-1070l-934 1234h-262v-50q96 0 138 -32t42 -110v-1092q0 -76 -42 -108q-40 -32 -138 -32v-52z" />
    <glyph glyph-name="O" unicode="O" horiz-adv-x="1490" 
d="M750 1508q-302 0 -478 -240q-158 -218 -158 -532q0 -312 158 -528q176 -242 478 -242q312 0 492 242q162 214 162 528q0 316 -162 532q-180 240 -492 240zM750 1456q246 0 388 -226q126 -200 126 -496q0 -292 -126 -492q-142 -224 -388 -224q-236 0 -374 224
q-124 202 -124 492q0 294 124 496q138 226 374 226z" />
    <glyph glyph-name="P" unicode="P" horiz-adv-x="1378" 
d="M76 -2h538v52q-122 0 -170 38q-42 36 -42 114v492h420q190 0 308 106q124 112 124 304q0 170 -124 272q-114 96 -290 96h-764v-52q112 0 156 -26q42 -28 42 -102v-1090q0 -78 -42 -114q-46 -38 -156 -38v-52zM402 746v546q0 72 34 102q34 26 110 26h244q152 0 242 -96
q82 -88 82 -220q0 -138 -82 -240q-92 -118 -244 -118h-386z" />
    <glyph glyph-name="Q" unicode="Q" horiz-adv-x="1564" 
d="M760 1508q-312 0 -492 -240q-160 -216 -160 -532q0 -314 160 -528q180 -242 492 -242q66 0 120 10t102 30q48 -106 110 -166q72 -70 160 -70q64 0 114 30q32 18 90 72l16 12l-26 32q-44 -22 -78 -30q-30 -8 -76 -8q-66 0 -124 58q-50 48 -78 118q154 70 244 280
q80 186 80 402q0 312 -170 532q-184 240 -484 240zM760 1456q246 0 388 -226q126 -200 126 -496q0 -174 -48 -332q-58 -196 -168 -278q-72 156 -208 234q-102 56 -202 56q-114 0 -184 -56q-74 -60 -64 -160q-74 74 -116 244q-38 148 -38 292q0 296 126 496q142 226 388 226z
M760 18q-98 0 -170 32q-78 34 -156 114q0 96 64 146q50 40 124 40q80 0 160 -54q106 -76 174 -230q-40 -22 -84 -34q-50 -14 -112 -14z" />
    <glyph glyph-name="R" unicode="R" horiz-adv-x="1492" 
d="M76 -2h522v52q-108 0 -152 36q-44 34 -44 110v536h284l404 -734h278v52q-86 0 -130 20q-50 20 -80 76l-332 590q196 12 302 120q98 100 98 254q0 162 -124 260q-130 102 -360 102h-666v-52q114 0 156 -26t42 -96v-1102q0 -78 -42 -110q-44 -36 -156 -36v-52zM402 784v514
q0 66 38 96q34 26 112 26h182q164 0 256 -82q94 -82 94 -228q0 -138 -68 -224q-80 -102 -236 -102h-378z" />
    <glyph glyph-name="S" unicode="S" horiz-adv-x="1290" 
d="M130 380l-42 -20l144 -388q34 26 74 42q42 18 76 18q10 0 32 -4l48 -14q68 -20 108 -30q72 -16 134 -16q210 0 334 98q140 108 140 314q0 180 -148 286q-110 80 -354 144q-198 58 -290 124q-126 90 -126 236q0 148 96 222q84 64 222 64q168 0 306 -100q120 -86 218 -252
l32 20l-134 372l-100 -40q-18 -6 -44 -2q-16 4 -58 16q-56 18 -90 26q-60 12 -120 12q-228 0 -346 -122q-94 -100 -94 -250q0 -178 150 -292q108 -80 324 -146q252 -72 338 -136q102 -76 102 -222q0 -168 -106 -250q-92 -72 -260 -72q-196 0 -352 118q-114 86 -214 244z" />
    <glyph glyph-name="T" unicode="T" horiz-adv-x="1654" 
d="M474 -6h590v52q-128 0 -174 18q-58 24 -58 94v1148q0 64 50 90q48 26 158 26q158 0 256 -82q62 -52 146 -196l22 -34l34 12l-120 352h-1214l-120 -338l30 -14q88 144 164 204q118 96 296 96q96 0 134 -26q38 -24 38 -90v-1148q0 -68 -70 -94q-48 -18 -162 -18v-52z" />
    <glyph glyph-name="U" unicode="U" horiz-adv-x="1666" 
d="M76 1472v-52q116 0 158 -28q40 -26 40 -94v-820q0 -252 156 -390q140 -124 362 -124q254 0 398 122q154 128 154 366v846q0 68 42 94q44 28 156 28v52h-450v-52q110 0 154 -28q42 -26 42 -94v-834q0 -230 -144 -342q-112 -90 -288 -90q-200 0 -328 120q-126 118 -126 304
v842q0 66 42 94q46 28 154 28v52h-522z" />
    <glyph glyph-name="V" unicode="V" horiz-adv-x="1612" 
d="M1022 1472v-52q140 0 174 -30q30 -26 2 -108l-394 -1090l-410 1132q-22 62 16 80q34 16 170 16v52h-520v-52q102 0 150 -30q34 -22 56 -80l484 -1346h34l478 1312q30 94 68 118q36 26 142 26v52h-450z" />
    <glyph glyph-name="W" unicode="W" horiz-adv-x="2080" 
d="M32 1472v-50q104 0 144 -16q38 -16 52 -66l384 -1376h34l328 1148l322 -1148h34l378 1318q24 86 58 110q40 30 146 30v50h-448v-50q136 0 174 -34q34 -28 14 -106l-300 -1038l-304 1074q-20 64 18 86q38 18 170 18v50h-520v-50q108 0 146 -16q36 -16 50 -66l32 -122
l-276 -974l-304 1074q-20 64 18 86q36 18 170 18v50h-520z" />
    <glyph glyph-name="X" unicode="X" horiz-adv-x="1504" 
d="M60 -2h448v52q-138 0 -176 30q-40 28 2 100l342 508l348 -536q36 -62 -12 -84q-38 -18 -168 -18v-52h520v52q-76 0 -114 20q-44 24 -84 90l-416 638l324 478q56 80 104 110q54 34 130 34v52h-448v-52q144 0 178 -26q20 -34 -24 -100l-302 -440l-314 490q-24 40 30 60
q48 16 162 16v52h-520v-52q88 0 134 -24q34 -18 58 -70l374 -582l-366 -552q-42 -68 -94 -102q-44 -40 -116 -40v-52z" />
    <glyph glyph-name="Y" unicode="Y" horiz-adv-x="1482" 
d="M434 -2h554v52q-128 0 -172 28q-40 24 -40 88v456l368 652q46 88 80 114q46 32 124 32v52h-438v-52q140 0 180 -30q34 -26 2 -98l-350 -616l-352 656q-30 52 2 70q36 18 154 18v52h-480v-52q70 0 110 -16q32 -16 70 -70l402 -746v-420q0 -66 -42 -90q-44 -28 -172 -28
v-52z" />
    <glyph glyph-name="Z" unicode="Z" horiz-adv-x="1348" 
d="M1060 -2l148 352l-34 18q-92 -158 -204 -240q-104 -78 -212 -78h-508l968 1382l-22 40h-948l-122 -354l32 -14q80 152 174 224q114 92 274 92h440l-976 -1394l22 -28h968z" />
    <glyph glyph-name="bracketleft" unicode="[" horiz-adv-x="626" 
d="M410 1630v-1792h426v60h-298v1672h298v60h-426z" />
    <glyph glyph-name="backslash" unicode="\" horiz-adv-x="968" 
d="M772 -144h-102l-666 1776h96z" />
    <glyph glyph-name="bracketright" unicode="]" horiz-adv-x="626" 
d="M292 1630v-60h300v-1672h-300v-60h426v1792h-426z" />
    <glyph glyph-name="asciicircum" unicode="^" horiz-adv-x="1112" 
d="M416 1534l-362 -512h70l380 406l388 -406h74l-370 512h-180z" />
    <glyph glyph-name="underscore" unicode="_" horiz-adv-x="1224" 
d="M0 -178h1024v104h-1024v-104z" />
    <glyph glyph-name="grave" unicode="`" horiz-adv-x="672" 
d="M678 1130l-276 284q-44 44 -82 58q-50 16 -80 -22q-34 -40 -12 -78q16 -32 74 -68l302 -174h74z" />
    <glyph glyph-name="a" unicode="a" horiz-adv-x="1114" 
d="M1042 64l-18 22q-28 -26 -54 -38q-18 -8 -40 -8q-24 0 -32 32q-8 28 -8 78v568q0 132 -82 204q-78 70 -212 70q-196 0 -320 -58q-116 -58 -116 -138q0 -42 20 -64q20 -24 60 -24q36 0 60 28q16 20 30 58q28 82 82 114q58 34 174 34q88 0 136 -56q46 -52 46 -148v-146
q-316 -48 -480 -150q-160 -98 -160 -238q0 -106 70 -170q76 -70 220 -70q114 0 204 40q72 34 146 100q0 -62 20 -96q26 -44 90 -44q54 0 96 30q30 20 68 70zM768 536v-370q-70 -64 -134 -90q-70 -30 -176 -30q-94 0 -146 46q-48 44 -48 116q0 132 148 222q138 84 356 106z
" />
    <glyph glyph-name="b" unicode="b" horiz-adv-x="1182" 
d="M334 1490l-260 -96l8 -32q68 0 98 -20t30 -74v-1300h30l84 118q48 -54 108 -84q78 -38 192 -38q210 0 328 160q104 140 104 352q0 214 -104 356q-118 160 -328 160q-106 0 -184 -32q-58 -26 -106 -74v604zM334 152v656q42 54 84 78q66 36 164 36q168 0 258 -138
q80 -122 80 -308q0 -184 -80 -304q-90 -138 -258 -138q-100 0 -164 38q-44 26 -84 80z" />
    <glyph glyph-name="c" unicode="c" horiz-adv-x="1060" 
d="M988 224l-30 16q-92 -108 -174 -152q-72 -40 -168 -40q-168 0 -262 124q-90 118 -90 316q0 208 92 334q88 116 216 116q82 0 130 -32q38 -26 72 -90l14 -32q16 -40 28 -54q22 -26 62 -26q52 0 72 44q20 42 -8 98q-28 58 -116 100q-94 46 -202 46q-202 0 -346 -148
q-150 -156 -150 -396q0 -198 132 -340q132 -144 318 -144q140 0 248 80q80 60 162 180z" />
    <glyph glyph-name="d" unicode="d" horiz-adv-x="1184" 
d="M850 -12q82 8 130 12q54 4 132 8v44q-72 0 -104 34q-32 32 -32 98v1304l-294 -100l10 -30q94 0 128 -18q34 -20 34 -72v-390q-52 54 -108 80q-76 34 -188 34q-212 0 -328 -160q-102 -140 -102 -356q0 -208 106 -352q118 -160 324 -160q106 0 186 36q64 30 106 76v-88z
M854 802v-652l-12 -10q-40 -48 -78 -68q-66 -38 -164 -38q-168 0 -258 138q-78 118 -78 304t78 308q90 138 258 138q94 0 154 -30q54 -28 100 -90z" />
    <glyph glyph-name="e" unicode="e" horiz-adv-x="1120" 
d="M1018 234q-78 -98 -170 -146q-94 -50 -214 -50q-164 0 -262 106q-112 122 -112 370h776q0 226 -120 354q-118 124 -320 124q-210 0 -342 -148q-126 -144 -126 -362q0 -232 130 -376q132 -142 348 -142q160 0 274 72q92 58 168 172zM902 572h-642q8 158 106 266
q96 104 228 104q140 0 218 -88q80 -92 90 -282z" />
    <glyph glyph-name="f" unicode="f" horiz-adv-x="836" 
d="M96 -2h508v52q-130 0 -172 24q-42 26 -42 102v722h236v56h-236v194q0 122 20 180q22 52 64 52q22 0 44 -8q12 -6 34 -20q24 -16 38 -22q22 -10 52 -10q32 0 60 24t28 50q0 56 -40 82q-34 22 -96 22q-142 0 -238 -130q-88 -122 -88 -276v-138h-174v-56h174v-722
q0 -76 -38 -102q-34 -24 -134 -24v-52z" />
    <glyph glyph-name="g" unicode="g" horiz-adv-x="1214" 
d="M564 992q-170 0 -274 -84q-112 -88 -112 -240q0 -96 50 -174q48 -74 132 -114q-76 -26 -114 -48q-66 -38 -66 -80t44 -70q50 -32 162 -54q-110 -24 -194 -74q-102 -62 -102 -130q0 -104 110 -158q118 -56 364 -56q228 0 352 50q144 58 144 182q0 96 -76 152
q-66 48 -186 68l-184 30l-228 36q-50 10 -68 32q-14 14 -12 38q0 18 30 36q28 16 74 26q42 -12 78 -14q24 -4 76 -4q162 0 268 86q112 90 112 238q0 56 -20 110q-20 52 -52 96q32 26 58 24q16 -2 46 -20l24 -12q16 -8 32 -8q30 0 50 24q22 22 22 54q0 30 -32 50
q-28 18 -62 18q-42 0 -88 -24t-86 -68q-40 36 -100 56q-76 26 -172 26zM598 -240q-188 0 -292 44q-96 42 -96 110q0 58 60 102q68 52 212 82q60 -6 122 -16q36 -4 96 -14l48 -8q98 -14 150 -58q48 -40 48 -96q0 -60 -100 -102q-100 -44 -248 -44zM564 942q122 0 190 -86
q60 -74 60 -188q0 -112 -60 -188q-68 -88 -190 -88q-126 0 -194 88q-60 74 -60 188t60 188q68 86 194 86z" />
    <glyph glyph-name="h" unicode="h" horiz-adv-x="1238" 
d="M78 -2h402v52q-78 0 -110 24q-32 26 -32 84v586q68 72 134 108q82 42 182 42q110 0 158 -52q44 -48 44 -148v-536q0 -58 -32 -82q-30 -26 -108 -26v-52h400v52q-72 0 -106 26q-32 26 -32 82v572q0 136 -74 202q-68 60 -196 60q-112 0 -216 -60q-62 -34 -154 -118v676
l-260 -102l10 -32q70 0 98 -20q30 -24 30 -88v-1090q0 -58 -32 -84q-32 -24 -106 -24v-52z" />
    <glyph glyph-name="i" unicode="i" horiz-adv-x="604" 
d="M302 1508q-54 0 -82 -32q-26 -28 -26 -72q0 -40 26 -68q28 -32 82 -32q50 0 80 32q28 28 28 68q0 44 -28 72q-30 32 -80 32zM102 -2v52q74 0 104 20q32 20 32 80v626q0 46 -26 68q-32 24 -112 24l-6 30l266 94v-842q0 -60 28 -80t110 -20v-52h-396z" />
    <glyph glyph-name="j" unicode="j" horiz-adv-x="620" 
d="M90 898l294 94v-940q0 -198 -84 -274q-44 -60 -188 -68q-52 4 -92 40q-16 44 -20 92q8 44 12 64q32 28 56 32q40 0 68 -4q44 -24 48 -76q-8 -32 -12 -64q0 -16 24 -20q32 12 42 44q24 40 24 126v816q0 60 -32 82q-34 20 -128 20zM312 1508q-50 0 -80 -32q-24 -28 -24 -72
q0 -40 24 -68q30 -32 80 -32t80 32q28 28 28 68q0 44 -28 72q-30 32 -80 32z" />
    <glyph glyph-name="k" unicode="k" horiz-adv-x="1262" 
d="M68 -2h396v52q-74 0 -106 28q-34 26 -34 92v198l190 162l272 -378q36 -52 0 -78q-30 -24 -112 -24v-52h456v52q-68 0 -114 24q-44 22 -80 68l-276 380l-64 82l260 224q44 40 92 74q50 24 116 24v52h-408v-52q90 0 122 -26q34 -28 -16 -78l-438 -376v1044l-256 -96l10 -28
q64 0 92 -18q34 -22 34 -78v-1100q0 -64 -34 -92q-32 -28 -102 -28v-52z" />
    <glyph glyph-name="l" unicode="l" horiz-adv-x="612" 
d="M98 -2h404v52q-78 0 -112 30q-32 30 -32 96v1314l-268 -94l8 -28q76 0 108 -24q30 -22 30 -72v-1096q0 -66 -32 -96t-106 -30v-52z" />
    <glyph glyph-name="m" unicode="m" horiz-adv-x="1818" 
d="M80 -2h410v50q-76 0 -110 28q-32 28 -32 88v576q78 82 138 116q76 44 168 44q74 0 124 -48q48 -48 48 -116v-572q0 -60 -32 -88t-104 -28v-50h396v50q-70 0 -104 28q-34 30 -34 88v588q76 72 140 106q80 44 158 44q86 0 136 -52q48 -48 48 -118v-568q0 -60 -34 -88
q-32 -28 -102 -28v-50h404v50q-72 0 -110 28q-36 30 -36 88v600q0 90 -64 156q-68 72 -172 72q-102 0 -204 -56q-82 -44 -164 -124q-22 86 -92 136q-64 44 -140 44q-110 0 -216 -62q-64 -40 -152 -122v184l-268 -82l8 -36q76 0 104 -20q34 -22 34 -90v-600q0 -60 -34 -88
q-36 -28 -112 -28v-50z" />
    <glyph glyph-name="n" unicode="n" horiz-adv-x="1230" 
d="M70 -2h396v52q-74 0 -106 28q-32 26 -32 92v578q86 76 156 110q86 42 182 42t138 -54q38 -46 38 -142v-534q0 -66 -32 -92q-32 -28 -106 -28v-52h396v52q-74 0 -104 28q-32 26 -32 92v528q0 138 -68 214t-192 76q-108 0 -210 -56q-60 -32 -156 -112l-10 -10v182l-258 -80
l6 -32q78 0 104 -22t26 -88v-600q0 -66 -30 -92q-30 -28 -106 -28v-52z" />
    <glyph glyph-name="o" unicode="o" horiz-adv-x="1134" 
d="M588 992q-228 0 -354 -158q-112 -142 -112 -358q0 -212 112 -354q126 -158 354 -158q226 0 354 158q114 142 114 354q0 216 -114 358q-128 158 -354 158zM588 942q162 0 252 -142q80 -128 80 -324q0 -192 -80 -318q-90 -144 -252 -144q-164 0 -254 144q-78 126 -78 318
q0 196 78 324q90 142 254 142z" />
    <glyph glyph-name="p" unicode="p" horiz-adv-x="1182" 
d="M338 188v618q46 62 104 90q58 26 146 26q166 0 256 -132q80 -116 80 -296t-80 -294q-90 -132 -256 -132q-102 0 -168 40q-42 24 -82 80zM78 -290h396v52q-68 0 -102 26q-34 28 -34 90v228q48 -48 110 -74q76 -34 184 -34q210 0 324 154q104 134 104 342q0 210 -104 346
q-114 152 -324 152q-108 0 -184 -30q-60 -26 -110 -80v110l-260 -86l10 -30q70 0 100 -20q28 -20 28 -70v-908q0 -64 -32 -90q-30 -26 -106 -26v-52z" />
    <glyph glyph-name="q" unicode="q" horiz-adv-x="1182" 
d="M712 -290h398v52q-82 0 -108 16q-30 20 -30 78v1126l-24 6l-84 -122q-54 66 -126 96q-74 30 -182 30q-212 0 -326 -152q-102 -136 -102 -346q0 -208 102 -342q114 -154 326 -154q100 0 172 28t122 84v-254q0 -56 -42 -78q-30 -16 -96 -16v-52zM850 802v-614
q-40 -54 -88 -82q-66 -38 -162 -38q-168 0 -258 132q-78 114 -78 294q0 182 78 296q90 132 258 132q96 0 160 -36q50 -28 90 -84z" />
    <glyph glyph-name="r" unicode="r" horiz-adv-x="986" 
d="M66 -2h396v52q-80 0 -108 24t-28 84v526q98 84 144 118q56 40 106 64q30 16 54 8q14 -2 36 -22q20 -14 32 -20q22 -12 48 -12q42 0 74 30t32 64q0 38 -32 68t-74 30q-84 0 -198 -74q-68 -44 -194 -154l-28 -26v252l-260 -98l12 -32q76 0 102 -20q24 -18 24 -74v-628
q0 -58 -38 -84q-34 -24 -100 -24v-52z" />
    <glyph glyph-name="s" unicode="s" horiz-adv-x="1016" 
d="M160 290l-26 -12l120 -314l84 34q22 8 50 4l60 -14q44 -14 72 -18q44 -10 90 -10q138 0 232 66q108 76 108 204q0 122 -90 196q-86 70 -300 136q-158 50 -214 86q-74 46 -74 114q0 84 58 130q58 44 156 44q130 0 256 -96q94 -74 142 -160l34 16l-116 294l-76 -36
q-14 -6 -34 -2q-14 2 -46 10q-42 12 -68 18q-46 8 -92 8q-144 0 -234 -64q-84 -64 -84 -162q0 -106 76 -172q86 -76 316 -148q160 -48 224 -94t64 -118q0 -98 -68 -156q-66 -58 -170 -58q-152 0 -276 92q-84 60 -174 182z" />
    <glyph glyph-name="t" unicode="t" horiz-adv-x="820" 
d="M68 908h158v-710q0 -116 56 -178q54 -56 148 -54q76 0 140 42q68 46 118 136l-24 16q-44 -48 -88 -74q-50 -32 -94 -32q-66 0 -100 30t-34 86v738h276v60h-276v338h-42q-8 -174 -70 -262q-60 -84 -168 -94v-42z" />
    <glyph glyph-name="u" unicode="u" horiz-adv-x="1228" 
d="M82 916l8 -32q72 0 100 -20q28 -22 28 -76v-572q0 -120 72 -186t200 -66q106 0 216 60q80 42 144 102v-138q78 8 126 12q54 4 134 8v44q-72 0 -106 34q-32 32 -32 98v808l-258 -76l8 -32q72 0 102 -20q26 -20 26 -70v-614q-70 -58 -132 -88q-86 -42 -186 -42
q-108 0 -150 38t-42 128v776z" />
    <glyph glyph-name="v" unicode="v" horiz-adv-x="1254" 
d="M62 978v-52q66 0 96 -14q30 -16 56 -72l276 -678l80 -198h34l344 876q22 48 60 68q38 18 108 18v52h-364v-52q82 0 116 -26q32 -24 16 -60l-260 -682l-278 684q-18 50 18 70q28 14 110 14v52h-412z" />
    <glyph glyph-name="w" unicode="w" horiz-adv-x="1736" 
d="M78 978v-52q68 0 98 -16q28 -14 48 -58l252 -650l88 -238h34l252 684l172 -452l90 -232h34l306 888q12 36 48 54q40 20 114 20v52h-346v-52q82 0 116 -20q28 -18 18 -54l-232 -680l-260 680q-14 44 12 60q28 14 120 14v52h-406v-52q68 0 98 -14q22 -20 40 -66l42 -120
l-198 -556l-258 682q-18 42 12 58q28 16 108 16v52h-402z" />
    <glyph glyph-name="x" unicode="x" horiz-adv-x="1316" 
d="M522 978h-414v-52q60 0 102 -20q38 -20 76 -66l290 -354l-258 -310q-68 -80 -124 -104q-44 -22 -120 -22v-52h386v52q-96 0 -114 22q-20 22 20 82l242 288l264 -324q32 -32 0 -52q-18 -16 -110 -16v-52h428v52q-68 0 -106 16q-40 14 -64 52l-338 416l254 310q32 44 82 62
q52 20 136 20v52h-376v-52q84 0 106 -16q20 -16 -8 -56l-228 -274l-224 278q-34 40 -12 54q20 14 110 14v52z" />
    <glyph glyph-name="y" unicode="y" horiz-adv-x="1274" 
d="M80 978v-52q72 0 104 -16q22 -12 40 -44l296 -644l64 -152l-40 -98q-36 -84 -64 -124q-32 -48 -60 -48q-30 0 -46 18q-12 10 -24 38q-16 30 -26 42q-20 18 -52 18q-48 0 -74 -30q-26 -28 -26 -72q0 -42 32 -70q24 -26 112 -26q96 4 150 32q64 46 118 176l368 856
q38 90 82 120q38 24 120 24v52h-354v-52q84 0 108 -22t6 -72l-262 -610l-288 630q-18 44 2 58q20 16 104 16v52h-390z" />
    <glyph glyph-name="z" unicode="z" horiz-adv-x="1058" 
d="M248 978l-126 -296l32 -12q84 132 154 192q78 64 164 64h304l-684 -896v-32h738l120 324l-26 14q-92 -166 -172 -230q-72 -56 -172 -56h-332l686 890v38h-686z" />
    <glyph glyph-name="braceleft" unicode="{" horiz-adv-x="870" 
d="M896 1604v26q-238 -32 -334 -160q-58 -76 -56 -184v-260q0 -136 -44 -190q-62 -74 -236 -74v-48q170 0 236 -74q44 -50 44 -158v-290q0 -110 62 -190q94 -122 328 -158v26q-158 42 -220 128q-56 78 -56 220v276q0 104 -48 154q-52 56 -196 90q142 24 198 102
q46 66 46 200v232q0 128 52 208q68 104 224 124z" />
    <glyph glyph-name="bar" unicode="|" horiz-adv-x="310" 
d="M448 1636v-1804h110v1804h-110z" />
    <glyph glyph-name="braceright" unicode="}" horiz-adv-x="870" 
d="M166 1608q154 -20 222 -124q54 -80 54 -208v-232q0 -134 44 -200q56 -78 202 -102q-148 -34 -200 -90q-46 -50 -46 -154v-276q0 -142 -56 -220q-64 -86 -220 -128v-26q232 36 326 158q62 80 64 190v290q0 108 44 158q64 74 236 74v48q-176 0 -236 74q-44 54 -44 190v260
q0 108 -58 184q-94 128 -332 160v-26z" />
    <glyph glyph-name="asciitilde" unicode="~" horiz-adv-x="1404" 
d="M1368 860l-28 22q-94 -86 -160 -118q-74 -36 -176 -36q-50 0 -116 20q-40 12 -120 44q-92 36 -138 48q-78 22 -138 22q-96 0 -188 -74q-88 -72 -140 -186l22 -16q78 84 160 124q74 36 146 36q54 0 124 -20q42 -12 122 -46q90 -36 132 -50q74 -24 134 -24q102 0 196 60
q106 66 168 194z" />
    <glyph glyph-name="uni00A0" unicode="&#xa0;" horiz-adv-x="120" 
 />
    <glyph glyph-name="exclamdown" unicode="&#xa1;" horiz-adv-x="434" 
d="M458 772h-44q-8 -210 -26 -380q-10 -100 -32 -234q-12 -82 -16 -118q-6 -60 -6 -114q0 -104 24 -158q26 -56 78 -56q48 0 74 56q26 54 26 158q0 54 -8 112q-4 36 -16 116q-20 136 -30 234q-18 170 -24 384zM436 1002q50 0 84 40q32 36 32 78q0 44 -32 80q-34 38 -84 38
q-54 0 -88 -38q-30 -36 -30 -80t30 -78q34 -40 88 -40z" />
    <glyph glyph-name="cent" unicode="&#xa2;" horiz-adv-x="994" 
d="M768 1246l-92 -264l-22 4q-20 4 -32 4q-16 2 -30 2q-180 0 -318 -148q-146 -160 -146 -396q0 -130 60 -246q60 -110 158 -176l-106 -310h72l94 280q32 -16 68 -24q34 -8 72 -8q116 0 218 80q78 62 158 180l-32 16q-88 -106 -168 -152q-66 -40 -138 -40q-40 0 -78 12
q-36 10 -68 28l258 746l10 -18l16 -36q16 -38 30 -52q20 -24 60 -24q50 0 70 44q22 42 -6 98q-16 32 -52 62q-38 30 -86 52l102 286h-72zM646 900l-264 -768q-58 58 -88 150t-30 206q0 204 88 334q82 116 188 116q34 0 60 -10q24 -8 46 -28z" />
    <glyph glyph-name="sterling" unicode="&#xa3;" horiz-adv-x="1148" 
d="M36 740v-66h284q20 -108 32 -202q16 -120 14 -208q-34 18 -66 26q-34 10 -64 10q-86 0 -138 -44t-52 -122q0 -70 46 -116q44 -44 110 -44q68 0 128 48q62 50 92 136l62 -54q72 -66 116 -94q74 -46 152 -46q90 0 148 80q60 80 84 236l-24 6q-48 -124 -108 -164
q-34 -24 -102 -24q-66 0 -130 28q-40 16 -114 62l-68 40q2 16 2 34q2 10 2 32q4 78 0 190q-2 94 -10 190h526v66h-540q-18 102 -26 178q-12 112 -12 226q0 136 66 212q68 76 192 76q104 0 160 -28q64 -32 64 -106q-2 -20 -12 -36q-6 -10 -22 -24q-16 -16 -22 -28
q-10 -18 -6 -46q6 -38 36 -56q26 -16 60 -10q36 6 58 34q26 32 26 80q0 126 -102 208q-98 78 -234 78q-156 0 -270 -94q-124 -108 -124 -282q0 -92 12 -178q6 -48 26 -132l16 -72h-268zM220 248q24 0 64 -12q42 -14 76 -36q-10 -80 -60 -128q-42 -42 -88 -42q-48 0 -76 30
q-26 28 -26 72q0 54 32 86q32 30 78 30z" />
    <glyph glyph-name="currency" unicode="&#xa4;" horiz-adv-x="1224" 
d="M512 942q166 0 264 -122q90 -110 90 -270q0 -158 -90 -268q-98 -124 -264 -124q-168 0 -266 124q-86 110 -86 268q0 160 86 270q98 122 266 122zM180 230l-172 -178l48 -48l172 178q54 -48 122 -72q74 -28 162 -28q86 0 160 30q70 26 124 76l176 -182l46 48l-176 178
q54 64 82 148q30 82 30 170q0 92 -30 174q-28 86 -82 148l188 186l-48 50l-188 -184q-54 48 -124 72q-72 24 -158 24t-160 -24q-70 -24 -126 -70l-174 172l-46 -44l174 -176q-54 -68 -82 -152q-26 -84 -26 -176q0 -88 26 -170q28 -84 82 -150z" />
    <glyph glyph-name="yen" unicode="&#xa5;" horiz-adv-x="1442" 
d="M412 -2h554v52q-128 0 -174 28q-40 24 -40 88v422h378v64h-368l96 184h272v64h-236l194 374q42 88 76 114q44 32 140 32v52h-450v-52q140 0 178 -30q34 -26 2 -98l-202 -392h-214l-216 432q-30 52 2 70q36 18 178 18v52h-520v-52q88 0 126 -16q34 -16 70 -70l214 -434
h-248v-64h270l100 -184h-370v-64h400v-420q0 -66 -40 -90q-46 -28 -172 -28v-52zM652 836h144l-72 -134z" />
    <glyph glyph-name="brokenbar" unicode="&#xa6;" horiz-adv-x="310" 
d="M204 1392v-710h110v710h-110zM204 426v-712h110v712h-110z" />
    <glyph glyph-name="section" unicode="&#xa7;" horiz-adv-x="926" 
d="M142 644q0 -82 46 -168q54 -94 156 -178q222 -180 274 -238q54 -58 54 -128q0 -78 -50 -124q-46 -46 -120 -46q-76 0 -118 30q-36 22 -34 46q0 8 6 16q4 6 16 18q22 20 32 34q16 26 16 54q0 34 -24 60q-28 30 -74 30q-44 0 -76 -28q-34 -34 -34 -90q0 -92 82 -154
t204 -62q138 0 216 86q72 78 72 188q0 88 -44 156q-38 62 -142 156l2 4l30 -2q110 0 176 82q60 74 60 182q0 92 -54 182q-46 78 -128 150l-278 244q-36 32 -56 78q-14 38 -14 76q0 52 34 96q46 56 128 56q64 0 102 -20q36 -20 36 -52q0 -2 -6 -6q-2 -4 -10 -12
q-24 -22 -36 -36q-18 -28 -18 -60t18 -58q26 -36 78 -36q50 0 78 34q26 30 26 82q0 92 -80 152q-74 56 -176 56q-120 0 -200 -62q-88 -70 -88 -200q0 -98 56 -178q36 -50 142 -142l-4 -4l-38 2q-108 0 -174 -76q-64 -74 -64 -190zM390 864q88 0 228 -132q144 -136 144 -230
q0 -68 -46 -112q-40 -40 -98 -40q-66 0 -146 60q-50 38 -128 120q-44 48 -62 80q-30 52 -30 108q0 74 46 114q38 32 92 32z" />
    <glyph glyph-name="dieresis" unicode="&#xa8;" horiz-adv-x="736" 
d="M246 1244q0 -36 22 -66q28 -36 76 -36q42 0 72 30t30 72t-30 72q-32 30 -72 30q-48 0 -76 -36q-22 -30 -22 -66zM582 1244q0 -36 22 -66q28 -36 76 -36q42 0 72 30t30 72t-30 72q-32 30 -72 30q-48 0 -76 -36q-22 -30 -22 -66z" />
    <glyph glyph-name="copyright" unicode="&#xa9;" horiz-adv-x="1708" 
d="M1170 568v0l-32 18q-90 -110 -172 -154q-72 -40 -168 -40q-148 0 -236 100q-84 96 -84 252q0 180 90 284q84 98 212 98q60 0 102 -32q34 -28 66 -90l14 -32q18 -40 30 -54q22 -26 62 -26q50 0 70 44q22 42 -6 98q-28 58 -116 100q-94 46 -202 46q-204 0 -332 -126
q-126 -126 -126 -326q0 -176 130 -298t320 -122q116 0 218 80q78 60 160 180zM798 1416v0q302 0 492 -218q170 -198 170 -464q0 -262 -170 -460q-190 -220 -492 -220q-306 0 -496 220q-170 198 -170 460q0 266 170 464q190 218 496 218zM796 1490v0q-358 0 -566 -236
q-188 -212 -188 -520q0 -306 188 -518q208 -236 566 -236q354 0 564 236q190 212 190 518q0 308 -190 520q-210 236 -564 236z" />
    <glyph glyph-name="ordfeminine" unicode="&#xaa;" horiz-adv-x="992" 
d="M78 668v-64h792v64h-792zM862 832l-18 18q-30 -26 -48 -36q-16 -8 -34 -8q-20 0 -28 28q-4 20 -4 66v372q0 100 -74 158q-72 56 -188 56q-140 0 -240 -48q-96 -50 -96 -116q0 -34 16 -54q18 -20 54 -20q42 0 66 22q18 18 30 50q24 66 58 88q32 18 102 18q78 0 114 -38
q38 -36 38 -116v-52q-264 -36 -374 -92q-132 -70 -132 -208q0 -88 58 -138t170 -50q86 0 160 34q64 30 118 84q0 -52 18 -80q26 -38 88 -38q48 0 84 28q30 22 62 72zM610 1172v-270q-52 -50 -108 -72q-54 -22 -134 -22q-62 0 -100 34q-38 32 -38 82q0 98 120 168
q104 60 260 80z" />
    <glyph glyph-name="guillemotleft" unicode="&#xab;" horiz-adv-x="1048" 
d="M86 732l86 -76l86 -78l96 -86q28 -30 80 -80q40 -40 56 -54q22 -22 28 -22q8 0 14 6q8 6 8 16q0 18 -34 70q-22 34 -60 88l-86 106l-84 106l44 60l138 186q80 110 80 124q0 12 -4 18q-6 4 -16 4q-8 0 -12 -2l-22 -22l-192 -180q-84 -78 -144 -128zM478 732l86 -76l86 -78
l92 -82l78 -78q44 -44 60 -58q24 -24 32 -24t14 6q8 6 8 16q0 18 -34 70q-22 34 -60 88l-78 96l-92 116l44 60l138 186q80 110 80 124q0 12 -6 18q-4 4 -14 4q-8 0 -12 -2l-22 -22l-192 -180q-84 -78 -144 -128z" />
    <glyph glyph-name="logicalnot" unicode="&#xac;" horiz-adv-x="1772" 
d="M2 1002v-58h1502v-582h70v640h-1572z" />
    <glyph glyph-name="uni00AD" unicode="&#xad;" horiz-adv-x="726" 
d="M128 786v-104h526v104h-526z" />
    <glyph glyph-name="registered" unicode="&#xae;" horiz-adv-x="1710" 
d="M364 210h386v52q-78 0 -106 28q-24 22 -24 80v338h178l302 -498h124q-84 -74 -188 -114q-110 -42 -238 -42q-132 0 -244 44q-106 40 -190 112zM1278 262q-48 2 -76 18t-50 52l-238 378q136 8 216 92q72 76 72 178q0 110 -94 180q-98 74 -268 74h-482v-52q84 0 110 -20
q24 -18 24 -74v-718q0 -60 -24 -80q-28 -28 -110 -28v-46q-108 98 -168 240q-56 136 -56 278q0 266 170 464q188 218 494 218q302 0 492 -218q170 -198 170 -464q0 -128 -46 -248q-48 -128 -136 -224zM620 760v328q0 54 20 74t76 20h116q112 0 182 -58q68 -56 68 -144
q0 -90 -50 -148q-58 -72 -166 -72h-246zM796 1490q-358 0 -566 -236q-188 -212 -188 -520q0 -306 188 -516q208 -236 566 -236q356 0 566 236q190 210 190 516q0 308 -190 520q-212 236 -566 236z" />
    <glyph glyph-name="macron" unicode="&#xaf;" horiz-adv-x="726" 
d="M128 1304v-104h526v104h-526z" />
    <glyph glyph-name="degree" unicode="&#xb0;" horiz-adv-x="786" 
d="M452 906q122 0 206 86q86 86 86 208q0 124 -86 210q-84 84 -206 84q-124 0 -210 -84q-84 -86 -84 -210q0 -122 84 -208q86 -86 210 -86zM452 982q-88 0 -150 66q-60 64 -60 152q0 90 60 154q62 64 150 64q86 0 146 -64q62 -66 62 -154q0 -86 -62 -152q-60 -66 -146 -66z
" />
    <glyph glyph-name="plusminus" unicode="&#xb1;" horiz-adv-x="1472" 
d="M778 1476v-550h-584v-104h584v-560h110v560h578v104h-578v550h-110zM194 188v-104h1272v104h-1272z" />
    <glyph glyph-name="uni00B2" unicode="&#xb2;" horiz-adv-x="712" 
d="M114 648h456l52 198l-34 10q-26 -68 -58 -98q-30 -30 -78 -30h-272q22 58 86 110q36 30 126 86q102 62 140 100q64 62 64 136q0 96 -74 158q-70 62 -170 62q-102 0 -170 -72q-64 -66 -72 -164q0 -40 20 -66q18 -22 48 -26q26 -4 48 8q24 14 28 40q2 22 -4 36
q-4 10 -16 20q-14 14 -18 24q-8 16 -4 40q4 54 38 82q36 28 92 28q78 0 112 -44q28 -38 28 -120q0 -56 -50 -110q-30 -34 -112 -96q-88 -68 -126 -108q-62 -68 -80 -142v-62z" />
    <glyph glyph-name="uni00B3" unicode="&#xb3;" horiz-adv-x="686" 
d="M274 1050v-58q106 4 166 -22q78 -36 78 -124q0 -84 -42 -126q-36 -38 -108 -38q-66 0 -86 34q-12 20 -10 60l2 10q0 32 -22 52q-18 16 -44 16q-26 -2 -44 -20q-20 -20 -20 -56q0 -66 66 -104q60 -36 162 -36q122 0 188 54q68 52 68 152q0 88 -60 134q-50 38 -138 44
q74 8 126 54q56 50 56 118q0 86 -72 138q-64 48 -150 48q-72 0 -134 -28q-72 -32 -94 -88q-20 -50 4 -78q20 -22 52 -22q46 0 58 30q8 16 6 58v24q0 30 20 46q22 14 70 14q58 0 92 -34q38 -36 38 -98q0 -76 -50 -114q-48 -40 -138 -40h-40z" />
    <glyph glyph-name="acute" unicode="&#xb4;" horiz-adv-x="670" 
d="M164 1130h74l302 174q56 36 72 68q22 38 -12 78q-30 38 -80 22q-40 -14 -80 -58z" />
    <glyph glyph-name="uni00B5" unicode="&#xb5;" horiz-adv-x="1162" 
d="M210 292v-108v-296q0 -50 -24 -82q-28 -42 -84 -42v-50h332v52q-66 0 -88 38q-14 24 -14 84v104q24 -14 54 -20q28 -8 62 -8q86 0 190 60q78 44 138 102v-138q78 8 126 12q54 4 134 8v44q-72 0 -106 34q-32 32 -32 98v808l-258 -76l8 -32q72 0 102 -20q26 -20 26 -70
v-614q-66 -58 -126 -88q-80 -42 -160 -42q-84 0 -122 36q-36 38 -36 120v786l-258 -76l8 -32q72 0 100 -20q28 -22 28 -76v-496v-64v-44v108z" />
    <glyph glyph-name="paragraph" unicode="&#xb6;" horiz-adv-x="1306" 
d="M738 1480h-174q-222 0 -350 -128q-116 -116 -116 -286q0 -166 116 -282q128 -128 350 -128h64v-946h112v1660h182v-1660h112v1660h170v110h-466z" />
    <glyph glyph-name="periodcentered" unicode="&#xb7;" horiz-adv-x="428" 
d="M358 868q-54 0 -86 -38q-26 -34 -26 -86q0 -50 26 -84q32 -38 86 -38t86 38q30 34 30 84q0 52 -30 86q-32 38 -86 38z" />
    <glyph glyph-name="cedilla" unicode="&#xb8;" horiz-adv-x="660" 
d="M168 40l16 -10q12 6 36 8h38q74 0 104 -20q28 -20 28 -72q0 -68 -58 -102q-42 -24 -102 -24q-34 0 -64 10q-20 8 -56 30l-26 -58l8 -4q34 -24 60 -34q42 -16 104 -16q152 0 224 58q64 50 64 146q0 82 -44 122q-38 36 -110 42q-42 6 -70 4q-16 -2 -34 -6l-12 -4l58 166
h-80z" />
    <glyph glyph-name="uni00B9" unicode="&#xb9;" horiz-adv-x="600" 
d="M188 666h386v42q-70 0 -102 12q-40 16 -40 58v586l-40 16q-48 -32 -114 -64q-64 -30 -104 -40l14 -36q32 12 68 18q40 6 72 4v-484q0 -40 -44 -56q-28 -12 -96 -14v-42z" />
    <glyph glyph-name="ordmasculine" unicode="&#xba;" horiz-adv-x="992" 
d="M474 1486q-168 0 -266 -108q-86 -100 -86 -248q0 -146 86 -242q96 -108 266 -108q166 0 262 108q90 98 90 242q0 148 -90 248q-96 108 -262 108zM474 1434q104 0 168 -90q62 -86 62 -214t-62 -210q-64 -88 -168 -88q-110 0 -172 88q-58 82 -58 210q0 130 58 214
q62 90 172 90zM78 668v-64h792v64h-792z" />
    <glyph glyph-name="guillemotright" unicode="&#xbb;" horiz-adv-x="1048" 
d="M958 732l-64 56q-58 48 -144 128l-192 180q-18 20 -22 22t-10 2q-14 0 -18 -4q-2 -6 -2 -18q0 -14 80 -128l140 -188l40 -54l-84 -106l-84 -106q-36 -46 -62 -88q-32 -52 -32 -70q0 -10 6 -16t16 -6q4 0 26 22q16 14 56 54q52 50 80 80q52 48 98 86l84 78zM564 732
l-64 56l-144 128q-104 94 -190 180q-20 20 -24 22q-6 2 -10 2q-12 0 -18 -4q-4 -6 -4 -18q0 -14 76 -122l138 -182l50 -66l-94 -116l-76 -96q-40 -54 -62 -88q-32 -52 -32 -70q0 -10 6 -16t16 -6q4 0 30 24l60 58q48 50 78 78l92 82l44 40l84 74z" />
    <glyph glyph-name="onequarter" unicode="&#xbc;" horiz-adv-x="1128" 
d="M56 1304v48q104 0 240 72v-584q0 -96 96 -96h40v-48h-368v48h40q96 0 96 96v400q0 64 -56 64h-88zM808 1384l-576 -1376l-48 24l568 1376zM801 205h-282v58l307 490h42v-499h116v-49h-108v-67q0 -58 58 -58h33v-50h-282v50h50q66 0 66 58v67zM612 254h181v292z" />
    <glyph glyph-name="onehalf" unicode="&#xbd;" horiz-adv-x="1106" 
d="M56 1304v48q104 0 240 72v-584q0 -96 96 -96h40v-48h-368v48h40q96 0 96 96v400q0 64 -56 64h-88zM808 1384l-576 -1376l-48 24l568 1376zM962 222l-24 -194h-368v67q56 76 176 211t120 252q0 143 -112 143q-104 0 -104 -84q0 -33 16 -42q16 -17 16 -50q0 -51 -64 -51
q-56 0 -56 93q0 185 200 185q192 0 192 -185q0 -118 -96 -219q-160 -168 -216 -236h192q72 0 88 110h40z" />
    <glyph glyph-name="threequarters" unicode="&#xbe;" horiz-adv-x="1152" 
d="M848 1384l-576 -1376l-48 24l568 1376zM480 872q0 -80 -56 -128q-56 -64 -184 -64q-96 0 -160 56q-48 64 -48 112q0 72 48 72q72 0 72 -64q0 -24 -16 -56q0 -72 104 -72q64 0 104 32q32 40 32 112t-40 120q-56 48 -112 48h-56v40h64q120 0 120 152q0 64 -40 112
q-24 24 -56 24q-80 0 -88 -72q16 -24 16 -56q0 -48 -64 -48q-56 0 -56 72q0 40 40 88q48 56 152 56q88 0 144 -56q48 -48 48 -120q0 -128 -128 -176q160 -32 160 -184zM801 205h-282v58l307 490h42v-499h116v-49h-108v-67q0 -58 58 -58h33v-50h-282v50h50q66 0 66 58v67z
M612 254h181v292z" />
    <glyph glyph-name="questiondown" unicode="&#xbf;" horiz-adv-x="794" 
d="M582 786v-294q-170 -12 -274 -114q-104 -104 -104 -266q0 -160 122 -282q122 -120 284 -120q80 0 132 30q56 32 56 88q0 40 -22 60q-24 20 -68 20q-38 0 -64 -18q-16 -12 -40 -44q-22 -28 -36 -40q-22 -18 -52 -18q-86 0 -146 86q-56 80 -56 172q0 154 98 262
q98 106 238 106v372h-68zM618 1002q52 0 84 40q32 34 32 78t-32 80q-34 38 -84 38q-54 0 -88 -38q-30 -36 -30 -80t30 -78q34 -40 88 -40z" />
    <glyph glyph-name="Agrave" unicode="&#xc0;" horiz-adv-x="1590" 
d="M806 1428v0l-114 -48l-404 -1118q-54 -136 -94 -174q-38 -38 -124 -38v-52h448v52q-140 0 -178 38q-40 40 4 152l92 262h568l118 -310q36 -84 -8 -114q-40 -28 -176 -28v-52h522v52q-84 0 -128 34q-46 32 -78 116zM718 1280v0l264 -718h-526zM898 1430v0l-142 242
q-24 50 -66 64q-40 14 -62 -18q-26 -36 -14 -66q8 -20 46 -56l2 -2l170 -164h66z" />
    <glyph glyph-name="Aacute" unicode="&#xc1;" horiz-adv-x="1590" 
d="M718 1280l264 -718h-526zM806 1428l-114 -48l-404 -1118q-54 -136 -94 -174q-38 -38 -124 -38v-52h448v52q-140 0 -178 38q-40 40 4 152l92 262h568l118 -310q36 -84 -8 -114q-40 -28 -176 -28v-52h522v52q-84 0 -128 34q-46 32 -78 116zM638 1430h66l170 164v2
q38 36 46 56q12 30 -12 66q-24 32 -64 18q-42 -14 -64 -64z" />
    <glyph glyph-name="Acircumflex" unicode="&#xc2;" horiz-adv-x="1590" 
d="M1088 1470v0l-256 286h-126l-254 -286h70l248 154l248 -154h70zM718 1280v0l264 -718h-526zM806 1428v0l-114 -48l-404 -1118q-54 -136 -94 -174q-38 -38 -124 -38v-52h448v52q-140 0 -178 38q-40 40 4 152l92 262h568l118 -310q36 -84 -8 -114q-40 -28 -176 -28v-52h522
v52q-84 0 -128 34q-46 32 -78 116z" />
    <glyph glyph-name="Atilde" unicode="&#xc3;" horiz-adv-x="1590" 
d="M1050 1708q-26 -58 -52 -80t-66 -22q-22 0 -54 12q-24 8 -46 18l-48 24q-36 20 -70 28q-34 10 -66 10q-94 0 -152 -70q-48 -56 -62 -138h60q12 42 30 62q30 34 82 34q16 0 36 -6t38 -18l48 -22q52 -26 82 -36q40 -14 84 -14q100 0 156 78q32 44 56 134l4 6h-60zM718 1280
v0l264 -718h-526zM806 1428v0l-114 -48l-404 -1118q-54 -136 -94 -174q-38 -38 -124 -38v-52h448v52q-140 0 -178 38q-40 40 4 152l92 262h568l118 -310q36 -84 -8 -114q-40 -28 -176 -28v-52h522v52q-84 0 -128 34q-46 32 -78 116z" />
    <glyph glyph-name="Adieresis" unicode="&#xc4;" horiz-adv-x="1590" 
d="M462 1606v0q0 -34 22 -66q28 -36 76 -36q42 0 72 30t30 72t-30 72q-32 30 -72 30q-46 0 -74 -36q-24 -30 -24 -66zM870 1606v0q0 -36 22 -66q28 -36 76 -36q42 0 72 30t30 72t-30 72q-32 30 -72 30q-46 0 -74 -36q-24 -30 -24 -66zM718 1280v0l264 -718h-526zM806 1428v0
l-114 -48l-404 -1118q-54 -136 -94 -174q-38 -38 -124 -38v-52h448v52q-140 0 -178 38q-40 40 4 152l92 262h568l118 -310q36 -84 -8 -114q-40 -28 -176 -28v-52h522v52q-84 0 -128 34q-46 32 -78 116z" />
    <glyph glyph-name="Aring" unicode="&#xc5;" horiz-adv-x="1590" 
d="M782 1692q64 0 102 -42q36 -38 36 -92q0 -52 -36 -90q-38 -42 -102 -42q-66 0 -104 42q-34 38 -34 90q0 54 34 92q38 42 104 42zM718 1280l264 -718h-526zM694 1382l-2 -2l-404 -1118q-54 -136 -94 -174q-38 -38 -124 -38v-52h448v52q-140 0 -178 38q-40 40 4 152l92 262
h568l118 -310q36 -84 -8 -114q-40 -28 -176 -28v-52h522v52q-84 0 -128 34q-46 32 -78 116l-430 1168q74 16 118 72q40 50 40 118q0 80 -52 134q-56 60 -148 60q-94 0 -150 -60q-48 -54 -48 -134q0 -56 28 -102q28 -50 82 -74z" />
    <glyph glyph-name="AE" unicode="&#xc6;" horiz-adv-x="2154" 
d="M12 -2h460v50h-100q-62 6 -82 40q-24 38 8 104l188 284h510v-316q0 -60 -52 -86q-48 -26 -142 -26v-50h1032l132 358l-34 18q-90 -180 -228 -264q-100 -62 -208 -62h-212q-78 0 -114 20q-42 22 -42 74v522h164q118 0 186 -42q92 -58 92 -198h52v548h-50q0 -148 -92 -210
q-64 -46 -186 -46h-166v448q0 86 44 128q44 44 140 44h230q102 0 214 -96q98 -86 158 -202l32 16l-142 334h-1094v-52q116 0 158 -26q38 -22 14 -64l-662 -1064q-46 -80 -102 -110q-44 -24 -106 -24v-50zM996 528h-478l478 788v-788z" />
    <glyph glyph-name="Ccedilla" unicode="&#xc7;" horiz-adv-x="1346" 
d="M562 -88l14 -10q14 6 36 8h38q72 0 104 -16q30 -14 30 -42q0 -36 -40 -56q-34 -18 -84 -20q-36 0 -82 16q-42 14 -74 34l-28 -58q34 -24 62 -34q42 -16 110 -22q148 0 226 48q64 40 64 98q0 50 -44 78q-38 24 -110 30q-42 4 -72 2q-16 -2 -34 -4l-12 -4l14 40l46 -2
q190 0 334 128q120 108 202 290l-36 18q-94 -168 -212 -252q-114 -80 -242 -80q-218 0 -368 182q-148 180 -148 438q0 268 124 460q128 196 314 196q152 2 300 -122q100 -84 198 -226l34 16l-142 374l-146 -48l-34 12q-72 24 -106 32q-52 12 -108 12q-246 0 -414 -218
q-160 -208 -160 -488q0 -284 142 -478q134 -182 346 -228z" />
    <glyph glyph-name="Egrave" unicode="&#xc8;" horiz-adv-x="1374" 
d="M76 -2h1036l138 362l-36 18q-126 -176 -246 -250q-128 -78 -300 -78h-104q-84 0 -122 34q-40 34 -40 108v506h220q108 0 164 -62q58 -66 58 -200h50v574h-50q0 -140 -58 -200q-52 -56 -164 -56h-220v452q0 70 40 100q38 30 122 30h110q178 0 296 -82q70 -50 158 -174
l46 -62l30 20l-142 350h-986v-52q104 0 150 -30q48 -30 48 -100v-1014q0 -74 -48 -108q-46 -34 -150 -34v-52zM810 1430v0l-140 242q-26 50 -68 64q-40 14 -60 -18q-26 -38 -14 -68q8 -20 48 -56l168 -164h66z" />
    <glyph glyph-name="Eacute" unicode="&#xc9;" horiz-adv-x="1374" 
d="M76 -2h1036l138 362l-36 18q-126 -176 -246 -250q-128 -78 -300 -78h-104q-84 0 -122 34q-40 34 -40 108v506h220q108 0 164 -62q58 -66 58 -200h50v574h-50q0 -140 -58 -200q-52 -56 -164 -56h-220v452q0 70 40 100q38 30 122 30h110q178 0 296 -82q70 -50 158 -174
l46 -62l30 20l-142 350h-986v-52q104 0 150 -30q48 -30 48 -100v-1014q0 -74 -48 -108q-46 -34 -150 -34v-52zM548 1430h66l170 164v2q38 36 46 56q12 30 -12 66q-24 32 -64 18q-42 -14 -64 -64z" />
    <glyph glyph-name="Ecircumflex" unicode="&#xca;" horiz-adv-x="1374" 
d="M1006 1470v0l-256 286h-126l-254 -286h70l248 154l248 -154h70zM76 -2h1036l138 362l-36 18q-126 -176 -246 -250q-128 -78 -300 -78h-104q-84 0 -122 34q-40 34 -40 108v506h220q108 0 164 -62q58 -66 58 -200h50v574h-50q0 -140 -58 -200q-52 -56 -164 -56h-220v452
q0 70 40 100q38 30 122 30h110q178 0 296 -82q70 -50 158 -174l46 -62l30 20l-142 350h-986v-52q104 0 150 -30q48 -30 48 -100v-1014q0 -74 -48 -108q-46 -34 -150 -34v-52z" />
    <glyph glyph-name="Edieresis" unicode="&#xcb;" horiz-adv-x="1374" 
d="M76 -2h1036l138 362l-36 18q-126 -176 -246 -250q-128 -78 -300 -78h-104q-84 0 -122 34q-40 34 -40 108v506h220q108 0 164 -62q58 -66 58 -200h50v574h-50q0 -140 -58 -200q-52 -56 -164 -56h-220v452q0 70 40 100q38 30 122 30h110q178 0 296 -82q70 -50 158 -174
l46 -62l30 20l-142 350h-986v-52q104 0 150 -30q48 -30 48 -100v-1014q0 -74 -48 -108q-46 -34 -150 -34v-52zM374 1606v0q0 -36 22 -66q28 -36 76 -36q42 0 72 30t30 72t-30 72q-32 30 -72 30q-48 0 -76 -36q-22 -30 -22 -66zM782 1606v0q0 -36 20 -66q28 -36 76 -36
q42 0 72 30q32 30 32 72t-32 72q-30 30 -72 30q-46 0 -74 -36q-22 -30 -22 -66z" />
    <glyph glyph-name="Igrave" unicode="&#xcc;" horiz-adv-x="754" 
d="M108 1388v-52q120 0 166 -28t46 -106v-1030q0 -64 -46 -92q-50 -30 -166 -30v-52h554v52q-118 0 -168 30q-46 28 -46 92v1030q0 78 46 106t168 28v52h-554zM572 1430v0l-142 242q-24 50 -66 64q-40 14 -62 -18q-26 -36 -14 -66q8 -20 46 -56l2 -2l170 -164h66z" />
    <glyph glyph-name="Iacute" unicode="&#xcd;" horiz-adv-x="754" 
d="M108 1388v-52q120 0 166 -28t46 -106v-1030q0 -64 -46 -92q-50 -30 -166 -30v-52h554v52q-118 0 -168 30q-46 28 -46 92v1030q0 78 46 106t168 28v52h-554zM284 1430h66l168 164q38 36 46 56q12 30 -12 68q-22 32 -62 18q-42 -14 -66 -64z" />
    <glyph glyph-name="Icircumflex" unicode="&#xce;" horiz-adv-x="838" 
d="M108 1388v0v-52q120 0 166 -28t46 -106v-1030q0 -64 -46 -92q-50 -30 -166 -30v-52h554v52q-118 0 -168 30q-46 28 -46 92v1030q0 78 46 106t168 28v52h-554zM704 1470v0l-256 286h-128l-254 -286h70l248 154l250 -154h70z" />
    <glyph glyph-name="Idieresis" unicode="&#xcf;" horiz-adv-x="754" 
d="M108 1388v0v-52q120 0 166 -28t46 -106v-1030q0 -64 -46 -92q-50 -30 -166 -30v-52h554v52q-118 0 -168 30q-46 28 -46 92v1030q0 78 46 106t168 28v52h-554zM122 1606v0q0 -36 22 -66q26 -36 74 -36q42 0 72 30t30 72t-30 72q-32 30 -72 30q-46 0 -74 -36
q-22 -30 -22 -66zM458 1606v0q0 -36 20 -66q28 -36 76 -36q42 0 72 30q32 30 32 72t-32 72t-72 30q-46 0 -74 -36q-22 -30 -22 -66z" />
    <glyph glyph-name="Eth" unicode="&#xd0;" horiz-adv-x="1536" 
d="M18 842v-64h258v-578q0 -82 -50 -116q-46 -32 -160 -32v-52h568q330 0 520 178q200 186 200 528q0 324 -212 512q-192 170 -482 170h-584v-52q124 0 168 -32q32 -24 32 -82v-380h-258zM730 842h-326v356q0 78 76 112q62 26 180 26q270 0 412 -140q154 -152 154 -470
q0 -388 -168 -548q-128 -124 -382 -124q-146 0 -208 30q-64 32 -64 108v586h326v64z" />
    <glyph glyph-name="Ntilde" unicode="&#xd1;" horiz-adv-x="1528" 
d="M76 -2h470v52q-124 0 -170 32q-42 32 -42 110v1010l894 -1212h36v1234q0 58 46 86q46 26 150 26v52h-470v-52q116 0 166 -26q48 -26 48 -86v-984l-850 1148h-278v-52q110 0 154 -32q44 -30 44 -110v-1002q0 -78 -44 -110t-154 -32v-52zM1050 1708q-26 -58 -52 -80
t-66 -22q-22 0 -54 12q-24 8 -46 18l-48 24q-36 20 -70 28q-34 10 -66 10q-94 0 -152 -70q-48 -56 -62 -138h60q12 42 30 62q30 34 82 34q16 0 36 -6t38 -18l48 -22q52 -26 82 -36q40 -14 84 -14q100 0 156 78q32 44 56 134l4 6h-60z" />
    <glyph glyph-name="Ograve" unicode="&#xd2;" horiz-adv-x="1457" 
d="M726 1428q-286 0 -456 -226q-156 -208 -156 -506q0 -296 156 -502q170 -228 456 -228q284 0 456 228q156 206 156 502q0 298 -156 506q-172 226 -456 226zM726 1376q218 0 350 -212q122 -192 122 -470q0 -272 -122 -464q-132 -212 -350 -212q-220 0 -354 212
q-120 192 -120 464q0 278 120 470q134 212 354 212zM856 1430v0l-142 242q-26 50 -68 64q-40 14 -60 -18q-26 -38 -14 -68q8 -20 48 -56l168 -164h68z" />
    <glyph glyph-name="Oacute" unicode="&#xd3;" horiz-adv-x="1589" 
d="M726 1428q-286 0 -456 -226q-156 -208 -156 -506q0 -296 156 -502q170 -228 456 -228q284 0 456 228q156 206 156 502q0 298 -156 506q-172 226 -456 226zM726 1376q218 0 350 -212q122 -192 122 -470q0 -272 -122 -464q-132 -212 -350 -212q-220 0 -354 212
q-120 192 -120 464q0 278 120 470q134 212 354 212zM610 1430h66l168 164q38 36 46 56q12 30 -12 68q-22 32 -62 18q-42 -14 -66 -64z" />
    <glyph glyph-name="Ocircumflex" unicode="&#xd4;" horiz-adv-x="1595" 
d="M726 1428q-286 0 -456 -226q-156 -208 -156 -506q0 -296 156 -502q170 -228 456 -228q284 0 456 228q156 206 156 502q0 298 -156 506q-172 226 -456 226zM726 1376q218 0 350 -212q122 -192 122 -470q0 -272 -122 -464q-132 -212 -350 -212q-220 0 -354 212
q-120 192 -120 464q0 278 120 470q134 212 354 212zM1054 1470v0l-256 286h-126l-254 -286h70l248 154l248 -154h70z" />
    <glyph glyph-name="Otilde" unicode="&#xd5;" horiz-adv-x="1341" 
d="M972 1708q-28 -60 -54 -80q-24 -22 -64 -22q-22 0 -54 12q-24 8 -46 18l-50 24q-36 20 -70 28q-34 10 -64 10q-94 0 -154 -70q-46 -54 -62 -138h60q12 42 30 62q30 34 84 34q16 0 36 -6q18 -6 38 -18l48 -22q52 -26 80 -36q42 -14 86 -14q102 0 158 82q32 46 54 134l2 2
h-58zM726 1428q-286 0 -456 -226q-156 -208 -156 -506q0 -296 156 -502q170 -228 456 -228q284 0 456 228q156 206 156 502q0 298 -156 506q-172 226 -456 226zM726 1376q218 0 350 -212q122 -192 122 -470q0 -272 -122 -464q-132 -212 -350 -212q-220 0 -354 212
q-120 192 -120 464q0 278 120 470q134 212 354 212z" />
    <glyph glyph-name="Odieresis" unicode="&#xd6;" horiz-adv-x="1241" 
d="M726 1428q-286 0 -456 -226q-156 -208 -156 -506q0 -296 156 -502q170 -228 456 -228q284 0 456 228q156 206 156 502q0 298 -156 506q-172 226 -456 226zM726 1376q218 0 350 -212q122 -192 122 -470q0 -272 -122 -464q-132 -212 -350 -212q-220 0 -354 212
q-120 192 -120 464q0 278 120 470q134 212 354 212zM460 1606v0q0 -36 22 -66q26 -36 74 -36q42 0 72 30q32 30 32 72t-32 72t-72 30q-46 0 -74 -36q-22 -30 -22 -66zM796 1606v0q0 -36 20 -66q28 -36 76 -36q42 0 72 30q32 30 32 72t-32 72t-72 30q-46 0 -74 -36
q-22 -30 -22 -66z" />
    <glyph glyph-name="multiply" unicode="&#xd7;" horiz-adv-x="1320" 
d="M1472 1298l-48 46l-594 -520l-592 520l-44 -46l592 -518l-588 -518l48 -48l586 516l588 -514l46 44l-588 514z" />
    <glyph glyph-name="Oslash" unicode="&#xd8;" horiz-adv-x="1424" 
d="M1152 1576l-122 -236q-68 44 -140 66q-80 22 -164 22q-286 0 -456 -226q-156 -206 -156 -504q0 -172 62 -326q64 -158 184 -268l-144 -286h70l126 246q62 -48 142 -72q78 -26 172 -26q284 0 456 230q156 208 156 502q0 178 -66 334q-68 162 -190 266l142 278h-72z
M992 1264l-588 -1072q-74 104 -114 236q-38 130 -38 268q0 276 120 470q134 210 354 210q76 0 144 -28q66 -28 122 -84zM448 138l590 1074q76 -104 118 -240q42 -132 42 -276q0 -272 -122 -466q-134 -212 -350 -212q-82 0 -154 34q-68 30 -124 86z" />
    <glyph glyph-name="Ugrave" unicode="&#xd9;" horiz-adv-x="1584" 
d="M76 1388v-52q114 0 158 -28q40 -28 40 -96v-734q0 -250 150 -390q134 -124 326 -124q226 0 364 122q148 130 148 366v760q0 68 42 96q44 28 156 28v52h-450v-52q110 0 154 -28q42 -28 42 -96v-748q0 -228 -138 -342q-108 -90 -256 -90q-170 0 -290 120t-120 304v756
q0 66 42 96q46 28 154 28v52h-522zM866 1430v0l-140 242q-26 50 -68 64q-40 14 -60 -18q-26 -38 -14 -68q8 -20 48 -56l168 -164h66z" />
    <glyph glyph-name="Uacute" unicode="&#xda;" horiz-adv-x="1584" 
d="M76 1388v-52q114 0 158 -28q40 -28 40 -96v-734q0 -250 150 -390q134 -124 326 -124q226 0 364 122q148 130 148 366v760q0 68 42 96q44 28 156 28v52h-450v-52q110 0 154 -28q42 -28 42 -96v-748q0 -228 -138 -342q-108 -90 -256 -90q-170 0 -290 120t-120 304v756
q0 66 42 96q46 28 154 28v52h-522zM674 1430h66l170 164v2q38 36 46 56q12 30 -12 66q-24 32 -64 18q-42 -14 -64 -64z" />
    <glyph glyph-name="Ucircumflex" unicode="&#xdb;" horiz-adv-x="1584" 
d="M76 1388v-52q114 0 158 -28q40 -28 40 -96v-734q0 -250 150 -390q134 -124 326 -124q226 0 364 122q148 130 148 366v760q0 68 42 96q44 28 156 28v52h-450v-52q110 0 154 -28q42 -28 42 -96v-748q0 -228 -138 -342q-108 -90 -256 -90q-170 0 -290 120t-120 304v756
q0 66 42 96q46 28 154 28v52h-522zM1124 1470v0l-256 286h-126l-254 -286h70l248 154l248 -154h70z" />
    <glyph glyph-name="Udieresis" unicode="&#xdc;" horiz-adv-x="1584" 
d="M76 1388v-52q114 0 158 -28q40 -28 40 -96v-734q0 -250 150 -390q134 -124 326 -124q226 0 364 122q148 130 148 366v760q0 68 42 96q44 28 156 28v52h-450v-52q110 0 154 -28q42 -28 42 -96v-748q0 -228 -138 -342q-108 -90 -256 -90q-170 0 -290 120t-120 304v756
q0 66 42 96q46 28 154 28v52h-522zM524 1606v0q0 -36 22 -66q28 -36 76 -36q42 0 72 30t30 72t-30 72q-32 30 -72 30q-48 0 -76 -36q-22 -30 -22 -66zM860 1606v0q0 -36 22 -66q28 -36 76 -36q42 0 72 30t30 72t-30 72q-32 30 -72 30q-48 0 -76 -36q-22 -30 -22 -66z" />
    <glyph glyph-name="Yacute" unicode="&#xdd;" horiz-adv-x="1442" 
d="M412 -2h554v52q-128 0 -174 28q-40 24 -40 88v404l336 618q42 88 76 114q44 34 140 34v52h-450v-52q140 0 178 -30q34 -26 2 -100l-316 -582l-316 622q-30 52 2 70q38 20 178 20v52h-520v-52q88 0 126 -18q32 -14 70 -68l366 -712v-370q0 -66 -40 -90q-46 -28 -172 -28
v-52zM648 1430h68l168 164v2q38 36 46 56q12 30 -12 66q-22 32 -64 18t-64 -64z" />
    <glyph glyph-name="Thorn" unicode="&#xde;" horiz-adv-x="1244" 
d="M134 1388v-52q126 0 176 -20t50 -70v-1100q0 -54 -48 -78q-52 -26 -178 -26v-44h610v44q-142 0 -200 28q-56 24 -56 80v124q342 0 514 104q176 106 176 322t-176 320q-172 102 -514 102v124q0 48 58 70q58 20 198 20v52h-610zM1050 700q0 -168 -170 -274
q-162 -100 -392 -100v744q230 0 392 -98q170 -104 170 -272z" />
    <glyph glyph-name="germandbls" unicode="&#xdf;" horiz-adv-x="1244" 
d="M80 -2h450v50q-86 0 -124 22q-36 20 -36 66v998q0 118 90 186q78 56 176 56q106 0 188 -72q94 -80 94 -216q0 -188 -102 -262q-70 -52 -202 -52v-52q172 0 278 -112q104 -108 104 -278q0 -100 -32 -176q-28 -64 -76 -104q-40 -32 -88 -40q-42 -8 -66 6q-16 12 -20 36
q-2 12 -2 42q0 46 -10 62q-16 28 -72 28q-50 0 -72 -36q-20 -34 -6 -82t62 -80q56 -38 140 -38q164 0 260 88q110 98 110 294q0 166 -90 276q-82 104 -228 146q136 44 198 156q56 104 30 226q-28 124 -128 204q-108 88 -264 88q-192 0 -306 -102q-96 -86 -96 -192v-998
q0 -46 -36 -66q-38 -22 -124 -22v-50z" />
    <glyph glyph-name="agrave" unicode="&#xe0;" horiz-adv-x="1058" 
d="M986 64l-18 22q-28 -26 -54 -38q-18 -8 -40 -8q-24 0 -32 32q-8 28 -8 78v568q0 132 -82 204q-78 70 -212 70q-158 0 -270 -58q-110 -60 -110 -138q0 -42 20 -64q20 -24 60 -24q36 0 60 28q16 18 32 58q26 80 74 114q46 34 124 34q88 0 136 -56q46 -52 46 -148v-146
q-280 -48 -432 -150q-152 -100 -152 -238q0 -104 66 -170q70 -70 196 -70q96 0 180 40q70 34 142 100q0 -62 20 -96q26 -44 90 -44q54 0 96 30q30 22 68 70zM712 536v-370q-68 -64 -130 -90q-66 -30 -154 -30q-72 0 -118 46t-46 116q0 130 142 222q124 82 306 106zM700 1082
v0l-142 242q-24 50 -66 64q-40 14 -62 -18q-26 -36 -14 -66q8 -20 46 -56l2 -2l170 -164h66z" />
    <glyph glyph-name="aacute" unicode="&#xe1;" horiz-adv-x="1058" 
d="M986 64l-18 22q-28 -26 -54 -38q-18 -8 -40 -8q-24 0 -32 32q-8 28 -8 78v568q0 132 -82 204q-78 70 -212 70q-158 0 -270 -58q-110 -60 -110 -138q0 -42 20 -64q20 -24 60 -24q36 0 60 28q16 18 32 58q26 80 74 114q46 34 124 34q88 0 136 -56q46 -52 46 -148v-146
q-280 -48 -432 -150q-152 -100 -152 -238q0 -104 66 -170q70 -70 196 -70q96 0 180 40q70 34 142 100q0 -62 20 -96q26 -44 90 -44q54 0 96 30q30 22 68 70zM712 536v-370q-68 -64 -130 -90q-66 -30 -154 -30q-72 0 -118 46t-46 116q0 130 142 222q124 82 306 106zM390 1082
h68l168 164q38 36 46 56q12 30 -12 68q-22 32 -64 18t-64 -64z" />
    <glyph glyph-name="acircumflex" unicode="&#xe2;" horiz-adv-x="1058" 
d="M986 64l-18 22q-28 -26 -54 -38q-18 -8 -40 -8q-24 0 -32 32q-8 28 -8 78v568q0 132 -82 204q-78 70 -212 70q-158 0 -270 -58q-110 -60 -110 -138q0 -42 20 -64q20 -24 60 -24q36 0 60 28q16 18 32 58q26 80 74 114q46 34 124 34q88 0 136 -56q46 -52 46 -148v-146
q-280 -48 -432 -150q-152 -100 -152 -238q0 -104 66 -170q70 -70 196 -70q96 0 180 40q70 34 142 100q0 -62 20 -96q26 -44 90 -44q54 0 96 30q30 22 68 70zM712 536v-370q-68 -64 -130 -90q-66 -30 -154 -30q-72 0 -118 46t-46 116q0 130 142 222q124 82 306 106zM854 1082
v0l-256 286h-126l-256 -286h70l248 156l250 -156h70z" />
    <glyph glyph-name="atilde" unicode="&#xe3;" horiz-adv-x="1058" 
d="M986 64l-18 22q-28 -26 -54 -38q-18 -8 -40 -8q-24 0 -32 32q-8 28 -8 78v568q0 132 -82 204q-78 70 -212 70q-158 0 -270 -58q-110 -60 -110 -138q0 -42 20 -64q20 -24 60 -24q36 0 60 28q16 18 32 58q26 80 74 114q46 34 124 34q88 0 136 -56q46 -52 46 -148v-146
q-280 -48 -432 -150q-152 -100 -152 -238q0 -104 66 -170q70 -70 196 -70q96 0 180 40q70 34 142 100q0 -62 20 -96q26 -44 90 -44q54 0 96 30q30 22 68 70zM712 536v-370q-68 -64 -130 -90q-66 -30 -154 -30q-72 0 -118 46t-46 116q0 130 142 222q124 82 306 106zM788 1332
q-26 -60 -52 -82q-24 -22 -66 -22q-22 0 -52 12q-26 8 -46 20l-50 24q-36 20 -70 28q-34 10 -64 10q-94 0 -154 -70q-46 -54 -62 -140h60q12 42 30 64q30 34 82 34q16 0 38 -6q16 -8 38 -20l48 -22l12 -4q50 -24 74 -32q38 -14 80 -14q102 0 158 84q32 44 54 134l2 2h-60z
" />
    <glyph glyph-name="adieresis" unicode="&#xe4;" horiz-adv-x="1058" 
d="M986 64l-18 22q-28 -26 -54 -38q-18 -8 -40 -8q-24 0 -32 32q-8 28 -8 78v568q0 132 -82 204q-78 70 -212 70q-158 0 -270 -58q-110 -60 -110 -138q0 -42 20 -64q20 -24 60 -24q36 0 60 28q16 18 32 58q26 80 74 114q46 34 124 34q88 0 136 -56q46 -52 46 -148v-146
q-280 -48 -432 -150q-152 -100 -152 -238q0 -104 66 -170q70 -70 196 -70q96 0 180 40q70 34 142 100q0 -62 20 -96q26 -44 90 -44q54 0 96 30q30 22 68 70zM712 536v-370q-68 -64 -130 -90q-66 -30 -154 -30q-72 0 -118 46t-46 116q0 130 142 222q124 82 306 106zM250 1184
q0 -36 22 -66q26 -36 74 -36q42 0 72 30q32 30 32 72t-32 72q-30 30 -72 30q-46 0 -74 -36q-22 -30 -22 -66zM584 1184q0 -36 20 -66q28 -36 76 -36q42 0 72 30q32 30 32 72q0 44 -32 72q-30 30 -72 30q-46 0 -74 -36q-22 -30 -22 -66z" />
    <glyph glyph-name="aring" unicode="&#xe5;" horiz-adv-x="1058" 
d="M986 64l-18 22q-28 -26 -54 -38q-18 -8 -40 -8q-24 0 -32 32q-8 28 -8 78v568q0 132 -82 204q-78 70 -212 70q-158 0 -270 -58q-110 -60 -110 -138q0 -42 20 -64q20 -24 60 -24q36 0 60 28q16 18 32 58q26 80 74 114q46 34 124 34q88 0 136 -56q46 -52 46 -148v-146
q-280 -48 -432 -150q-152 -100 -152 -238q0 -104 66 -170q70 -70 196 -70q96 0 180 40q70 34 142 100q0 -62 20 -96q26 -44 90 -44q54 0 96 30q30 22 68 70zM712 536v-370q-68 -64 -130 -90q-66 -30 -154 -30q-72 0 -118 46t-46 116q0 130 142 222q124 82 306 106zM536 1410
q64 0 102 -42q36 -38 36 -92t-36 -92q-38 -42 -102 -42q-66 0 -104 42q-34 38 -34 92t34 92q38 42 104 42zM536 1470q-94 0 -150 -60q-48 -54 -48 -134q0 -78 48 -132q56 -62 150 -62t150 62q50 54 50 132q0 80 -50 134q-56 60 -150 60z" />
    <glyph glyph-name="ae" unicode="&#xe6;" horiz-adv-x="1690" 
d="M1564 536q0 198 -106 322q-114 134 -306 134q-74 0 -150 -34q-94 -44 -150 -126q-40 84 -136 126q-82 34 -190 34q-106 0 -202 -52q-100 -56 -164 -156q-48 -84 -6 -134q34 -38 90 -38q36 2 60 26t30 64q0 16 -2 34q0 10 -4 30q-8 36 -6 54q2 30 26 54q40 48 144 60
q100 12 162 -20q60 -30 94 -102q32 -76 28 -186q-338 -50 -468 -112q-186 -90 -186 -278q0 -138 104 -200q84 -52 224 -52q116 0 218 50q100 48 184 138q54 -98 162 -146q104 -48 220 -34q120 16 214 98q102 88 146 238q8 34 -4 38q-14 4 -32 -28q-52 -100 -128 -166
q-84 -78 -168 -78q-196 0 -280 114q-78 106 -78 328h660zM1436 600h-532q2 168 68 250q64 80 194 80q146 0 214 -98q56 -82 56 -232zM830 212l-10 -10q-86 -72 -174 -100q-78 -24 -198 -24q-80 0 -136 36q-62 42 -62 112q0 148 134 228q118 70 394 118q-4 -88 14 -200
q16 -98 38 -160z" />
    <glyph glyph-name="ccedilla" unicode="&#xe7;" horiz-adv-x="994" 
d="M436 -88l16 -10q12 6 36 8h38q72 0 104 -16q28 -14 28 -42q0 -36 -40 -56q-32 -18 -82 -20q-34 0 -82 16q-42 14 -76 34l-26 -58q36 -24 62 -34q42 -16 110 -22q146 0 224 48q64 40 64 98q0 52 -44 78q-38 24 -110 30q-42 4 -70 2q-16 -2 -36 -4l-10 -4l10 32
q114 4 214 82q78 62 156 178l-32 16q-88 -108 -168 -152q-66 -40 -138 -40q-146 0 -234 122q-86 118 -86 304q0 194 88 320q82 116 188 116q60 0 100 -32q34 -26 66 -90l16 -36q16 -38 30 -52q20 -24 60 -24q50 0 70 44q22 42 -6 98t-112 100q-88 46 -172 46
q-180 0 -318 -146q-146 -156 -146 -384q0 -156 96 -290q100 -142 248 -172z" />
    <glyph glyph-name="egrave" unicode="&#xe8;" horiz-adv-x="1054" 
d="M952 234q-76 -96 -168 -146q-88 -50 -184 -50q-142 0 -232 108q-108 130 -108 388h708q0 210 -116 336q-112 122 -290 122q-188 0 -312 -148q-122 -146 -122 -362q0 -230 126 -376q126 -142 318 -142q138 0 246 72q86 58 164 172zM834 592h-574q8 142 102 248
q90 102 198 102q116 0 188 -86q76 -92 86 -264zM704 1082v0l-140 242q-26 50 -68 64q-40 14 -60 -18q-26 -38 -14 -68q8 -20 48 -56l168 -164h66z" />
    <glyph glyph-name="eacute" unicode="&#xe9;" horiz-adv-x="1054" 
d="M952 234q-76 -96 -168 -146q-88 -50 -184 -50q-142 0 -232 108q-108 130 -108 388h708q0 210 -116 336q-112 122 -290 122q-188 0 -312 -148q-122 -146 -122 -362q0 -230 126 -376q126 -142 318 -142q138 0 246 72q86 58 164 172zM834 592h-574q8 142 102 248
q90 102 198 102q116 0 188 -86q76 -92 86 -264zM408 1082h66l170 164v2q38 36 46 56q12 30 -12 66q-24 32 -64 18q-42 -14 -64 -64z" />
    <glyph glyph-name="ecircumflex" unicode="&#xea;" horiz-adv-x="1054" 
d="M952 234q-76 -96 -168 -146q-88 -50 -184 -50q-142 0 -232 108q-108 130 -108 388h708q0 210 -116 336q-112 122 -290 122q-188 0 -312 -148q-122 -146 -122 -362q0 -230 126 -376q126 -142 318 -142q138 0 246 72q86 58 164 172zM834 592h-574q8 142 102 248
q90 102 198 102q116 0 188 -86q76 -92 86 -264zM894 1082v0l-256 286h-126l-254 -286h70l248 156l248 -156h70z" />
    <glyph glyph-name="edieresis" unicode="&#xeb;" horiz-adv-x="1054" 
d="M952 234q-76 -96 -168 -146q-88 -50 -184 -50q-142 0 -232 108q-108 130 -108 388h708q0 210 -116 336q-112 122 -290 122q-188 0 -312 -148q-122 -146 -122 -362q0 -230 126 -376q126 -142 318 -142q138 0 246 72q86 58 164 172zM834 592h-574q8 142 102 248
q90 102 198 102q116 0 188 -86q76 -92 86 -264zM304 1184q0 -36 22 -66q28 -36 76 -36q42 0 72 30t30 72t-30 72t-72 30q-48 0 -76 -36q-22 -30 -22 -66zM640 1184q0 -36 22 -66q28 -36 76 -36q42 0 72 30t30 72t-30 72t-72 30q-48 0 -76 -36q-22 -30 -22 -66z" />
    <glyph glyph-name="igrave" unicode="&#xec;" horiz-adv-x="604" 
d="M102 -2h396v52q-82 0 -110 20t-28 80v842l-266 -94l6 -30q80 0 112 -24q26 -22 26 -68v-626q0 -60 -32 -80q-30 -20 -104 -20v-52zM430 1082v0l-142 242q-24 50 -66 64q-40 14 -62 -18q-26 -36 -14 -66q8 -20 46 -56l2 -2l170 -164h66z" />
    <glyph glyph-name="iacute" unicode="&#xed;" horiz-adv-x="604" 
d="M102 -2h396v52q-82 0 -110 20t-28 80v842l-266 -94l6 -30q80 0 112 -24q26 -22 26 -68v-626q0 -60 -32 -80q-30 -20 -104 -20v-52zM170 1082h68l168 164v2q38 36 46 56q12 30 -12 66q-22 32 -64 18t-64 -64z" />
    <glyph glyph-name="icircumflex" unicode="&#xee;" horiz-adv-x="796" 
d="M102 -2h396v52q-82 0 -110 20t-28 80v842l-266 -94l6 -30q80 0 112 -24q26 -22 26 -68v-626q0 -60 -32 -80q-30 -20 -104 -20v-52zM598 1082v0l-232 286h-128l-236 -286h70l230 156l226 -156h70z" />
    <glyph glyph-name="idieresis" unicode="&#xef;" horiz-adv-x="736" 
d="M102 -2h396v52q-82 0 -110 20t-28 80v842l-266 -94l6 -30q80 0 112 -24q26 -22 26 -68v-626q0 -60 -32 -80q-30 -20 -104 -20v-52zM32 1184q0 -34 22 -66q28 -36 76 -36q42 0 72 30t30 72t-30 72t-72 30q-46 0 -74 -36q-24 -30 -24 -66zM368 1184q0 -36 22 -66
q28 -36 76 -36q42 0 72 30t30 72t-30 72t-72 30q-46 0 -74 -36q-24 -30 -24 -66z" />
    <glyph glyph-name="eth" unicode="&#xf0;" horiz-adv-x="1066" 
d="M552 854q-206 0 -326 -136q-108 -126 -108 -312q0 -182 108 -304q120 -138 326 -138q202 0 322 132q110 120 110 300q0 116 -16 206q-12 70 -30 112q-18 148 -84 290q-66 140 -158 238l160 142l-32 42l-174 -138q-86 68 -142 96q-44 22 -130 44l-30 -28q58 -28 120 -72
q64 -48 108 -102l-290 -222l38 -42l286 220q54 -66 88 -170q34 -100 42 -204q-44 22 -88 34q-50 12 -100 12zM552 804q34 0 68 -10q30 -10 60 -30l8 -4q34 -24 46 -34q24 -20 40 -42q34 -56 54 -128t20 -148q0 -162 -76 -272q-82 -122 -220 -122q-142 0 -226 122
q-74 110 -74 272q0 164 74 276q84 120 226 120z" />
    <glyph glyph-name="ntilde" unicode="&#xf1;" horiz-adv-x="1162" 
d="M74 -2h396v52q-74 0 -106 28q-32 26 -32 92v578q86 76 150 112q82 44 152 44q74 0 110 -56q32 -50 32 -144v-534q0 -66 -32 -92q-30 -28 -104 -28v-52h396v52q-76 0 -106 28q-32 26 -32 92v528q0 136 -62 216q-62 78 -164 78q-76 0 -164 -48q-50 -30 -140 -102l-36 -32
v182l-258 -80l6 -32q78 0 104 -22t26 -88v-600q0 -66 -30 -92q-30 -28 -106 -28v-52zM788 1300q-26 -60 -52 -80q-24 -22 -66 -22q-22 0 -52 12q-24 8 -46 18l-50 24q-36 20 -70 28q-34 10 -64 10q-94 0 -154 -70q-46 -54 -62 -138h60q12 42 30 62q30 34 82 34q16 0 38 -6
q18 -6 38 -18l48 -22q52 -26 80 -36q42 -14 86 -14q102 0 158 82q32 46 54 134l2 2h-60z" />
    <glyph glyph-name="ograve" unicode="&#xf2;" horiz-adv-x="1066" 
d="M554 992q-204 0 -324 -158q-108 -144 -108 -358q0 -210 108 -354q120 -158 324 -158q202 0 324 158q110 144 110 354q0 214 -110 358q-122 158 -324 158zM554 942q138 0 222 -142q76 -130 76 -322q0 -190 -76 -320q-84 -144 -222 -144q-140 0 -224 144q-74 130 -74 320
q0 192 74 322q84 142 224 142zM704 1082v0l-140 242q-26 50 -68 64q-40 14 -60 -18q-26 -38 -14 -68q8 -20 48 -56l168 -164h66z" />
    <glyph glyph-name="oacute" unicode="&#xf3;" horiz-adv-x="1066" 
d="M554 992q-204 0 -324 -158q-108 -144 -108 -358q0 -210 108 -354q120 -158 324 -158q202 0 324 158q110 144 110 354q0 214 -110 358q-122 158 -324 158zM554 942q138 0 222 -142q76 -130 76 -322q0 -190 -76 -320q-84 -144 -222 -144q-140 0 -224 144q-74 130 -74 320
q0 192 74 322q84 142 224 142zM390 1082h68l168 164q38 36 46 56q12 30 -12 68q-22 32 -64 18t-64 -64z" />
    <glyph glyph-name="ocircumflex" unicode="&#xf4;" horiz-adv-x="1066" 
d="M554 992q-204 0 -324 -158q-108 -144 -108 -358q0 -210 108 -354q120 -158 324 -158q202 0 324 158q110 144 110 354q0 214 -110 358q-122 158 -324 158zM554 942q138 0 222 -142q76 -130 76 -322q0 -190 -76 -320q-84 -144 -222 -144q-140 0 -224 144q-74 130 -74 320
q0 192 74 322q84 142 224 142zM850 1082v0l-256 286h-126l-254 -286h70l246 156l250 -156h70z" />
    <glyph glyph-name="otilde" unicode="&#xf5;" horiz-adv-x="1066" 
d="M554 992q-204 0 -324 -158q-108 -144 -108 -358q0 -210 108 -354q120 -158 324 -158q202 0 324 158q110 144 110 354q0 214 -110 358q-122 158 -324 158zM554 942q138 0 222 -142q76 -130 76 -322q0 -190 -76 -320q-84 -144 -222 -144q-140 0 -224 144q-74 130 -74 320
q0 192 74 322q84 142 224 142zM788 1300q-26 -60 -52 -80q-24 -22 -66 -22q-22 0 -52 12q-24 8 -46 18l-50 24q-36 20 -70 28q-34 10 -64 10q-94 0 -154 -70q-46 -54 -62 -138h60q12 42 30 62q30 34 82 34q16 0 38 -6q18 -6 38 -18l48 -22q52 -26 80 -36q42 -14 86 -14
q102 0 158 82q32 46 54 134l2 2h-60z" />
    <glyph glyph-name="odieresis" unicode="&#xf6;" horiz-adv-x="1066" 
d="M554 992q-204 0 -324 -158q-108 -144 -108 -358q0 -210 108 -354q120 -158 324 -158q202 0 324 158q110 144 110 354q0 214 -110 358q-122 158 -324 158zM554 942q138 0 222 -142q76 -130 76 -322q0 -190 -76 -320q-84 -144 -222 -144q-140 0 -224 144q-74 130 -74 320
q0 192 74 322q84 142 224 142zM246 1184q0 -36 22 -66q28 -36 76 -36q42 0 72 30t30 72t-30 72t-72 30q-48 0 -76 -36q-22 -30 -22 -66zM582 1184q0 -36 22 -66q28 -36 76 -36q42 0 72 30t30 72t-30 72t-72 30q-48 0 -76 -36q-22 -30 -22 -66z" />
    <glyph glyph-name="divide" unicode="&#xf7;" horiz-adv-x="1472" 
d="M194 766v-66h1272v66h-1272zM838 142q56 0 90 34q30 32 30 76q0 48 -30 80q-34 34 -90 34t-90 -34q-28 -32 -28 -80q0 -44 28 -76q34 -34 90 -34zM838 1090q56 0 90 36q30 32 30 76q0 46 -30 78q-34 34 -90 34t-90 -34q-28 -32 -28 -78q0 -44 28 -76q34 -36 90 -36z" />
    <glyph glyph-name="oslash" unicode="&#xf8;" horiz-adv-x="1066" 
d="M912 1112l-118 -198q-50 38 -108 58q-64 20 -132 20q-204 0 -324 -158q-108 -144 -108 -358q0 -124 40 -232q44 -112 126 -184l-142 -244h70l122 206q46 -26 98 -42q56 -16 118 -16q202 0 324 158q110 144 110 354q0 116 -38 220q-38 106 -108 178l142 238h-72zM750 842
l-412 -696q-40 66 -62 152q-20 88 -20 180q0 192 74 322q84 142 224 142q58 0 110 -26q48 -26 86 -74zM378 92l408 690q32 -62 48 -142q18 -78 18 -162q0 -190 -76 -320q-84 -144 -222 -144q-52 0 -98 22q-44 20 -78 56z" />
    <glyph glyph-name="ugrave" unicode="&#xf9;" horiz-adv-x="1162" 
d="M74 916l8 -32q72 0 100 -20q28 -22 28 -76v-560q0 -126 68 -196q64 -68 170 -68q86 0 190 60q78 44 138 102v-138q78 8 126 12q54 4 134 8v44q-72 0 -106 34q-32 32 -32 98v808l-258 -76l8 -32q72 0 102 -20q26 -20 26 -70v-614q-66 -58 -126 -88q-80 -42 -160 -42
q-84 0 -122 36q-36 38 -36 120v786zM704 1082v0l-140 242q-26 50 -68 64q-40 14 -60 -18q-26 -38 -14 -68q8 -20 48 -56l168 -164h66z" />
    <glyph glyph-name="uacute" unicode="&#xfa;" horiz-adv-x="1162" 
d="M74 916l8 -32q72 0 100 -20q28 -22 28 -76v-560q0 -126 68 -196q64 -68 170 -68q86 0 190 60q78 44 138 102v-138q78 8 126 12q54 4 134 8v44q-72 0 -106 34q-32 32 -32 98v808l-258 -76l8 -32q72 0 102 -20q26 -20 26 -70v-614q-66 -58 -126 -88q-80 -42 -160 -42
q-84 0 -122 36q-36 38 -36 120v786zM390 1082h68l168 164q38 36 46 56q12 30 -12 68q-22 32 -64 18t-64 -64z" />
    <glyph glyph-name="ucircumflex" unicode="&#xfb;" horiz-adv-x="1162" 
d="M74 916l8 -32q72 0 100 -20q28 -22 28 -76v-560q0 -126 68 -196q64 -68 170 -68q86 0 190 60q78 44 138 102v-138q78 8 126 12q54 4 134 8v44q-72 0 -106 34q-32 32 -32 98v808l-258 -76l8 -32q72 0 102 -20q26 -20 26 -70v-614q-66 -58 -126 -88q-80 -42 -160 -42
q-84 0 -122 36q-36 38 -36 120v786zM850 1082v0l-256 286h-126l-254 -286h70l246 156l250 -156h70z" />
    <glyph glyph-name="udieresis" unicode="&#xfc;" horiz-adv-x="1162" 
d="M74 916l8 -32q72 0 100 -20q28 -22 28 -76v-560q0 -126 68 -196q64 -68 170 -68q86 0 190 60q78 44 138 102v-138q78 8 126 12q54 4 134 8v44q-72 0 -106 34q-32 32 -32 98v808l-258 -76l8 -32q72 0 102 -20q26 -20 26 -70v-614q-66 -58 -126 -88q-80 -42 -160 -42
q-84 0 -122 36q-36 38 -36 120v786zM246 1184q0 -36 22 -66q28 -36 76 -36q42 0 72 30t30 72t-30 72t-72 30q-48 0 -76 -36q-22 -30 -22 -66zM582 1184q0 -36 22 -66q28 -36 76 -36q42 0 72 30t30 72t-30 72t-72 30q-48 0 -76 -36q-22 -30 -22 -66z" />
    <glyph glyph-name="yacute" unicode="&#xfd;" horiz-adv-x="1220" 
d="M84 978v-52q72 0 104 -16q22 -12 42 -46l336 -794l-38 -98q-34 -82 -62 -124q-32 -48 -60 -48q-30 0 -48 18q-10 10 -24 38q-16 30 -28 42q-22 18 -54 18q-46 0 -74 -30q-24 -28 -24 -72q0 -42 32 -70q36 -34 110 -34q100 0 156 48q72 62 144 244l306 780q40 92 82 120
q38 24 120 24v52h-348v-52q80 0 104 -22t6 -72l-236 -602l-264 622q-18 44 2 58q22 16 102 16v52h-386zM406 1082h66l170 164v2q38 36 46 56q12 30 -12 66q-24 32 -64 18q-42 -14 -64 -64z" />
    <glyph glyph-name="thorn" unicode="&#xfe;" horiz-adv-x="1116" 
d="M322 1428l-258 -94v-36q72 2 102 -18q32 -20 32 -74v-1338q0 -66 -38 -88q-26 -16 -98 -16v-52h404v52q-72 2 -104 20q-40 24 -40 84v190q36 -38 92 -62q68 -32 150 -32q180 0 298 146q116 142 116 358q0 224 -102 360q-112 146 -312 146q-76 0 -146 -32q-60 -30 -96 -74
v560zM322 152v638q40 52 82 78q58 36 134 36q144 0 228 -136q76 -124 76 -300t-76 -298q-82 -136 -224 -136q-82 0 -138 38q-42 26 -82 80z" />
    <glyph glyph-name="ydieresis" unicode="&#xff;" horiz-adv-x="1220" 
d="M84 978v-52q72 0 104 -16q22 -12 42 -46l336 -794l-38 -98q-34 -82 -62 -124q-32 -48 -60 -48q-30 0 -48 18q-10 10 -24 38q-16 30 -28 42q-22 18 -54 18q-46 0 -74 -30q-24 -28 -24 -72q0 -42 32 -70q36 -34 110 -34q100 0 156 48q72 62 144 244l306 780q40 92 82 120
q38 24 120 24v52h-348v-52q80 0 104 -22t6 -72l-236 -602l-264 622q-18 44 2 58q22 16 102 16v52h-386zM338 1184q0 -36 22 -66q28 -36 76 -36q42 0 72 30t30 72t-30 72t-72 30q-48 0 -76 -36q-22 -30 -22 -66zM674 1184q0 -36 22 -66q28 -36 76 -36q42 0 72 30t30 72
t-30 72t-72 30q-48 0 -76 -36q-22 -30 -22 -66z" />
    <glyph glyph-name="Amacron" unicode="&#x100;" horiz-adv-x="1590" 
d="M464 1630v-76h630v76h-630zM718 1280v0l264 -718h-526zM806 1428v0l-114 -48l-404 -1118q-54 -136 -94 -174q-38 -38 -124 -38v-52h448v52q-140 0 -178 38q-40 40 4 152l92 262h568l118 -310q36 -84 -8 -114q-40 -28 -176 -28v-52h522v52q-84 0 -128 34q-46 32 -78 116z
" />
    <glyph glyph-name="amacron" unicode="&#x101;" horiz-adv-x="1058" 
d="M986 64l-18 22q-28 -26 -54 -38q-18 -8 -40 -8q-24 0 -32 32q-8 28 -8 78v568q0 132 -82 204q-78 70 -212 70q-158 0 -270 -58q-110 -60 -110 -138q0 -42 20 -64q20 -24 60 -24q36 0 60 28q16 18 32 58q26 80 74 114q46 34 124 34q88 0 136 -56q46 -52 46 -148v-146
q-280 -48 -432 -150q-152 -100 -152 -238q0 -104 66 -170q70 -70 196 -70q96 0 180 40q70 34 142 100q0 -62 20 -96q26 -44 90 -44q54 0 96 30q30 22 68 70zM712 536v-370q-68 -64 -130 -90q-66 -30 -154 -30q-72 0 -118 46t-46 116q0 130 142 222q124 82 306 106zM214 1190
v-76h630v76h-630z" />
    <glyph glyph-name="Abreve" unicode="&#x102;" horiz-adv-x="1590" 
d="M1006 1728l-6 -10q-38 -72 -72 -100q-54 -46 -154 -46q-96 0 -154 42q-58 40 -72 114h-60v-10q0 -122 86 -194q80 -66 198 -66q164 0 238 116q40 60 52 152l2 2h-58zM718 1280v0l264 -718h-526zM806 1428v0l-114 -48l-404 -1118q-54 -136 -94 -174q-38 -38 -124 -38v-52
h448v52q-140 0 -178 38q-40 40 4 152l92 262h568l118 -310q36 -84 -8 -114q-40 -28 -176 -28v-52h522v52q-84 0 -128 34q-46 32 -78 116z" />
    <glyph glyph-name="abreve" unicode="&#x103;" horiz-adv-x="1058" 
d="M986 64l-18 22q-28 -26 -54 -38q-18 -8 -40 -8q-24 0 -32 32q-8 28 -8 78v568q0 132 -82 204q-78 70 -212 70q-158 0 -270 -58q-110 -60 -110 -138q0 -42 20 -64q20 -24 60 -24q36 0 60 28q16 18 32 58q26 80 74 114q46 34 124 34q88 0 136 -56q46 -52 46 -148v-146
q-280 -48 -432 -150q-152 -100 -152 -238q0 -104 66 -170q70 -70 196 -70q96 0 180 40q70 34 142 100q0 -62 20 -96q26 -44 90 -44q54 0 96 30q30 22 68 70zM712 536v-370q-68 -64 -130 -90q-66 -30 -154 -30q-72 0 -118 46t-46 116q0 130 142 222q124 82 306 106zM774 1382
l-6 -10q-38 -72 -72 -98q-54 -46 -154 -46q-96 0 -154 42q-58 40 -72 112h-60v-8q0 -122 86 -194q80 -66 198 -66q164 0 238 114q40 60 52 152l2 2h-58z" />
    <glyph glyph-name="Aogonek" unicode="&#x104;" horiz-adv-x="1590" 
d="M718 1280l264 -718h-526zM806 1428l-114 -48l-404 -1118q-54 -136 -94 -174q-38 -38 -124 -38v-52h448v52q-140 0 -178 38q-40 40 4 152l92 262h568l118 -310q36 -84 -8 -114q-40 -28 -176 -28v-52h162q-28 -34 -42 -66q-16 -36 -16 -68q0 -66 42 -106q42 -42 110 -42
q64 0 128 48q54 40 98 106l-42 32q-44 -36 -70 -48q-40 -24 -80 -24q-28 0 -50 20t-22 44q0 26 12 54q8 22 30 50h262v52q-84 0 -128 34q-46 32 -78 116z" />
    <glyph glyph-name="aogonek" unicode="&#x105;" horiz-adv-x="1076" 
d="M712 536v-370q-68 -64 -130 -90q-66 -30 -154 -30q-72 0 -118 46t-46 116q0 130 142 222q124 82 306 106zM772 -34q54 -26 124 16q48 32 90 82l-18 22q-28 -26 -54 -38q-18 -8 -40 -8q-24 0 -32 32q-8 28 -8 78v568q0 132 -82 204q-78 70 -212 70q-158 0 -270 -58
q-110 -60 -110 -138q0 -42 20 -64q20 -24 60 -24q36 0 60 28q16 18 32 58q26 80 74 114q46 34 124 34q88 0 136 -56q46 -52 46 -148v-146q-280 -48 -432 -150q-152 -100 -152 -238q0 -104 66 -170q70 -70 196 -70q96 0 180 40q70 34 142 100l4 -70l2 -12q-32 -32 -50 -66
q-22 -42 -22 -78q0 -78 44 -122q40 -44 110 -44q62 0 116 48q40 36 88 108l-42 32l-26 -22q-28 -26 -44 -36q-26 -16 -58 -16q-30 0 -50 22q-22 24 -22 60q0 16 2 30t8 28z" />
    <glyph glyph-name="Cacute" unicode="&#x106;" horiz-adv-x="1346" 
d="M1262 382l-36 18q-94 -168 -212 -252q-114 -80 -242 -80q-220 0 -368 184q-148 182 -148 452q0 280 124 474q128 198 314 198q152 0 300 -122q102 -84 198 -224l34 16l-142 374l-148 -48l-28 10q-74 26 -108 34q-54 12 -110 12q-246 0 -414 -220q-160 -212 -160 -504
q0 -332 184 -542q176 -198 426 -198q190 0 334 128q120 108 202 290zM566 1430h68l168 164v2q38 36 46 56q12 30 -12 66q-22 32 -64 18t-64 -64z" />
    <glyph glyph-name="cacute" unicode="&#x107;" horiz-adv-x="994" 
d="M922 224l-32 16q-88 -106 -168 -152q-66 -40 -138 -40q-146 0 -234 124q-86 120 -86 316q0 204 88 334q82 116 188 116q60 0 100 -32q34 -26 66 -90l16 -36q16 -38 30 -52q20 -24 60 -24q50 0 70 44q22 42 -6 98t-112 100q-88 46 -172 46q-180 0 -318 -148
q-146 -160 -146 -396q0 -196 128 -340q124 -144 290 -144q116 0 218 80q78 62 158 180zM402 1082h68l168 164v2q38 36 46 56q12 30 -12 66q-22 32 -64 18t-64 -64z" />
    <glyph glyph-name="Ccircumflex" unicode="&#x108;" horiz-adv-x="1346" 
d="M1000 1470v0l-256 286h-126l-254 -286h70l246 154l250 -154h70zM1262 382l-36 18q-94 -168 -212 -252q-114 -80 -242 -80q-220 0 -368 184q-148 182 -148 452q0 280 124 474q128 198 314 198q152 0 300 -122q102 -84 198 -224l34 16l-142 374l-148 -48l-28 10
q-74 26 -108 34q-54 12 -110 12q-246 0 -414 -220q-160 -212 -160 -504q0 -332 184 -542q176 -198 426 -198q190 0 334 128q120 108 202 290z" />
    <glyph glyph-name="ccircumflex" unicode="&#x109;" horiz-adv-x="994" 
d="M922 224l-32 16q-88 -106 -168 -152q-66 -40 -138 -40q-146 0 -234 124q-86 120 -86 316q0 204 88 334q82 116 188 116q60 0 100 -32q34 -26 66 -90l16 -36q16 -38 30 -52q20 -24 60 -24q50 0 70 44q22 42 -6 98t-112 100q-88 46 -172 46q-180 0 -318 -148
q-146 -160 -146 -396q0 -196 128 -340q124 -144 290 -144q116 0 218 80q78 62 158 180zM850 1082v0l-256 286h-126l-254 -286h70l246 156l250 -156h70z" />
    <glyph glyph-name="Cdotaccent" unicode="&#x10a;" horiz-adv-x="1346" 
d="M682 1708q-54 0 -84 -34q-28 -32 -28 -78q0 -44 28 -76q30 -36 84 -36t86 36q28 32 28 76q0 46 -28 78q-32 34 -86 34zM1262 382l-36 18q-94 -168 -212 -252q-114 -80 -242 -80q-220 0 -368 184q-148 182 -148 452q0 280 124 474q128 198 314 198q152 0 300 -122
q102 -84 198 -224l34 16l-142 374l-148 -48l-28 10q-74 26 -108 34q-54 12 -110 12q-246 0 -414 -220q-160 -212 -160 -504q0 -332 184 -542q176 -198 426 -198q190 0 334 128q120 108 202 290z" />
    <glyph glyph-name="cdotaccent" unicode="&#x10b;" horiz-adv-x="994" 
d="M922 224l-32 16q-88 -106 -168 -152q-66 -40 -138 -40q-146 0 -234 124q-86 120 -86 316q0 204 88 334q82 116 188 116q60 0 100 -32q34 -26 66 -90l16 -36q16 -38 30 -52q20 -24 60 -24q50 0 70 44q22 42 -6 98t-112 100q-88 46 -172 46q-180 0 -318 -148
q-146 -160 -146 -396q0 -196 128 -340q124 -144 290 -144q116 0 218 80q78 62 158 180zM544 1336q-54 0 -84 -34q-28 -32 -28 -78q0 -44 28 -76q30 -36 84 -36t86 36q28 32 28 76q0 46 -28 78q-32 34 -86 34z" />
    <glyph glyph-name="Ccaron" unicode="&#x10c;" horiz-adv-x="1346" 
d="M1016 1756h-70l-250 -156l-248 156h-70l256 -286h126zM1262 382l-36 18q-94 -168 -212 -252q-114 -80 -242 -80q-220 0 -368 184q-148 182 -148 452q0 280 124 474q128 198 314 198q152 0 300 -122q102 -84 198 -224l34 16l-142 374l-148 -48l-28 10q-74 26 -108 34
q-54 12 -110 12q-246 0 -414 -220q-160 -212 -160 -504q0 -332 184 -542q176 -198 426 -198q190 0 334 128q120 108 202 290z" />
    <glyph glyph-name="ccaron" unicode="&#x10d;" horiz-adv-x="994" 
d="M922 224l-32 16q-88 -106 -168 -152q-66 -40 -138 -40q-146 0 -234 124q-86 120 -86 316q0 204 88 334q82 116 188 116q60 0 100 -32q34 -26 66 -90l16 -36q16 -38 30 -52q20 -24 60 -24q50 0 70 44q22 42 -6 98t-112 100q-88 46 -172 46q-180 0 -318 -148
q-146 -160 -146 -396q0 -196 128 -340q124 -144 290 -144q116 0 218 80q78 62 158 180zM888 1400h-70l-250 -156l-248 156h-70l256 -288h126z" />
    <glyph glyph-name="Dcaron" unicode="&#x10e;" horiz-adv-x="1462" 
d="M76 0h552q350 0 542 220q168 192 168 484t-168 484q-192 220 -542 220h-552v-52q106 0 152 -32t46 -104v-1018q0 -82 -46 -116q-44 -34 -152 -34v-52zM402 202v1018q0 72 38 104q40 32 124 32h64q268 0 426 -202q144 -184 144 -450q0 -264 -144 -448q-158 -204 -426 -204
h-64q-86 0 -124 34t-38 116zM928 1756h-70l-248 -156l-248 156h-70l254 -286h126z" />
    <glyph glyph-name="dcaron" unicode="&#x10f;" horiz-adv-x="1212" 
d="M786 -12q78 8 126 12q52 4 132 8v44q-72 0 -104 34q-32 30 -32 98v1254l-294 -100l8 -28q94 0 130 -20q34 -20 34 -72v-368q-54 54 -104 80q-70 34 -158 34q-188 0 -298 -158q-98 -142 -98 -344q0 -196 102 -340q112 -158 294 -158q84 0 156 36q62 30 102 76zM786 774
v-624l-14 -12q-40 -48 -72 -68q-56 -36 -134 -36q-144 0 -228 136q-74 120 -74 292q0 174 74 296q84 136 228 136q70 0 124 -30q52 -30 96 -90zM1140 1756h-70l-250 -156l-246 156h-70l254 -286h126z" />
    <glyph glyph-name="Dcroat" unicode="&#x110;" horiz-adv-x="1536" 
d="M18 842v-64h258v-578q0 -82 -50 -116q-46 -32 -160 -32v-52h568q330 0 520 178q200 186 200 528q0 324 -212 512q-192 170 -482 170h-584v-52q124 0 168 -32q32 -24 32 -82v-380h-258zM730 842h-326v356q0 78 76 112q62 26 180 26q270 0 412 -140q154 -152 154 -470
q0 -388 -168 -548q-128 -124 -382 -124q-146 0 -208 30q-64 32 -64 108v586h326v64z" />
    <glyph glyph-name="dcroat" unicode="&#x111;" horiz-adv-x="1168" 
d="M786 -12q78 8 126 12q52 4 132 8v44q-72 0 -104 34q-32 30 -32 98v936h188v64h-188v254l-294 -100l8 -28q94 0 130 -20q34 -20 34 -72v-34h-292v-64h292v-270q-54 54 -104 80q-70 34 -158 34q-188 0 -298 -158q-98 -142 -98 -344q0 -196 102 -340q112 -158 294 -158
q84 0 156 36q62 30 102 76zM786 774v-624l-14 -12q-40 -48 -72 -68q-56 -36 -134 -36q-144 0 -228 136q-74 120 -74 292q0 174 74 296q84 136 228 136q70 0 124 -30q52 -30 96 -90z" />
    <glyph glyph-name="Emacron" unicode="&#x112;" horiz-adv-x="1374" 
d="M344 1630v-76h630v76h-630zM76 -2h1036l138 362l-36 18q-126 -176 -246 -250q-128 -78 -300 -78h-104q-84 0 -122 34q-40 34 -40 108v506h220q108 0 164 -62q58 -66 58 -200h50v574h-50q0 -140 -58 -200q-52 -56 -164 -56h-220v452q0 70 40 100q38 30 122 30h110
q178 0 296 -82q70 -50 158 -174l46 -62l30 20l-142 350h-986v-52q104 0 150 -30q48 -30 48 -100v-1014q0 -74 -48 -108q-46 -34 -150 -34v-52z" />
    <glyph glyph-name="emacron" unicode="&#x113;" horiz-adv-x="1054" 
d="M952 234q-76 -96 -168 -146q-88 -50 -184 -50q-142 0 -232 108q-108 130 -108 388h708q0 210 -116 336q-112 122 -290 122q-188 0 -312 -148q-122 -146 -122 -362q0 -230 126 -376q126 -142 318 -142q138 0 246 72q86 58 164 172zM834 592h-574q8 142 102 248
q90 102 198 102q116 0 188 -86q76 -92 86 -264zM214 1190v-76h630v76h-630z" />
    <glyph glyph-name="Ebreve" unicode="&#x114;" horiz-adv-x="1374" 
d="M872 1728l-6 -10q-38 -72 -72 -100q-54 -46 -152 -46q-96 0 -156 42q-56 40 -72 114h-60v-10q0 -122 88 -194q78 -66 196 -66q164 0 240 116q40 60 52 152l2 2h-60zM76 -2h1036l138 362l-36 18q-126 -176 -246 -250q-128 -78 -300 -78h-104q-84 0 -122 34q-40 34 -40 108
v506h220q108 0 164 -62q58 -66 58 -200h50v574h-50q0 -140 -58 -200q-52 -56 -164 -56h-220v452q0 70 40 100q38 30 122 30h110q178 0 296 -82q70 -50 158 -174l46 -62l30 20l-142 350h-986v-52q104 0 150 -30q48 -30 48 -100v-1014q0 -74 -48 -108q-46 -34 -150 -34v-52z
" />
    <glyph glyph-name="ebreve" unicode="&#x115;" horiz-adv-x="1054" 
d="M952 234q-76 -96 -168 -146q-88 -50 -184 -50q-142 0 -232 108q-108 130 -108 388h708q0 210 -116 336q-112 122 -290 122q-188 0 -312 -148q-122 -146 -122 -362q0 -230 126 -376q126 -142 318 -142q138 0 246 72q86 58 164 172zM834 592h-574q8 142 102 248
q90 102 198 102q116 0 188 -86q76 -92 86 -264zM810 1382l-6 -10q-36 -70 -70 -98q-54 -46 -154 -46q-96 0 -156 42q-56 40 -70 112h-60v-8q0 -122 86 -194q80 -66 196 -66q164 0 240 114q40 60 52 152l2 2h-60z" />
    <glyph glyph-name="Edotaccent" unicode="&#x116;" horiz-adv-x="1374" 
d="M682 1708q-54 0 -84 -34q-28 -32 -28 -78q0 -44 28 -76q30 -36 84 -36t86 36q28 32 28 76q0 46 -28 78q-32 34 -86 34zM76 -2h1036l138 362l-36 18q-126 -176 -246 -250q-128 -78 -300 -78h-104q-84 0 -122 34q-40 34 -40 108v506h220q108 0 164 -62q58 -66 58 -200h50
v574h-50q0 -140 -58 -200q-52 -56 -164 -56h-220v452q0 70 40 100q38 30 122 30h110q178 0 296 -82q70 -50 158 -174l46 -62l30 20l-142 350h-986v-52q104 0 150 -30q48 -30 48 -100v-1014q0 -74 -48 -108q-46 -34 -150 -34v-52z" />
    <glyph glyph-name="edotaccent" unicode="&#x117;" horiz-adv-x="1054" 
d="M952 234q-76 -96 -168 -146q-88 -50 -184 -50q-142 0 -232 108q-108 130 -108 388h708q0 210 -116 336q-112 122 -290 122q-188 0 -312 -148q-122 -146 -122 -362q0 -230 126 -376q126 -142 318 -142q138 0 246 72q86 58 164 172zM834 592h-574q8 142 102 248
q90 102 198 102q116 0 188 -86q76 -92 86 -264zM544 1306q-54 0 -84 -34q-28 -32 -28 -78t28 -76q30 -36 84 -36t86 36q28 30 28 76t-28 78q-32 34 -86 34z" />
    <glyph glyph-name="Eogonek" unicode="&#x118;" horiz-adv-x="1374" 
d="M76 -2h814q-24 -32 -36 -58q-14 -34 -14 -62q0 -78 42 -122t112 -44q64 0 126 48q56 42 98 108l-40 32q-42 -34 -70 -50q-40 -24 -80 -24q-30 0 -52 22q-22 24 -22 60q0 24 10 48q8 20 24 42h124l138 362l-36 18q-126 -176 -246 -250q-128 -78 -300 -78h-104
q-84 0 -122 34q-40 34 -40 108v506h220q108 0 164 -62q58 -66 58 -200h48v574h-48q0 -140 -58 -200q-52 -56 -164 -56h-220v452q0 70 40 100q38 30 122 30h110q178 0 296 -82q70 -50 158 -174l46 -62l30 20l-142 350h-986v-52q104 0 150 -30q48 -30 48 -100v-1014
q0 -74 -48 -108q-46 -34 -150 -34v-52z" />
    <glyph glyph-name="eogonek" unicode="&#x119;" horiz-adv-x="1054" 
d="M834 592h-574q8 142 102 248q90 102 198 102q116 0 188 -86q76 -92 86 -264zM904 -100q-44 -36 -70 -50q-40 -24 -80 -24q-30 0 -52 22q-22 24 -22 60q0 16 4 32q2 10 8 28l4 6q94 20 176 98q50 48 110 136l-30 26q-76 -96 -168 -146q-88 -50 -184 -50q-142 0 -232 108
q-108 130 -108 388h708q0 210 -116 336q-112 122 -290 122q-188 0 -312 -148q-122 -146 -122 -362q0 -224 124 -364q126 -140 342 -154q-14 -22 -20 -42q-8 -24 -8 -44q0 -78 44 -122q40 -44 110 -44q64 0 128 48q54 42 98 108z" />
    <glyph glyph-name="Ecaron" unicode="&#x11a;" horiz-adv-x="1374" 
d="M972 1756h-70l-248 -156l-248 156h-70l254 -286h126zM76 -2h1036l138 362l-36 18q-126 -176 -246 -250q-128 -78 -300 -78h-104q-84 0 -122 34q-40 34 -40 108v506h220q108 0 164 -62q58 -66 58 -200h50v574h-50q0 -140 -58 -200q-52 -56 -164 -56h-220v452q0 70 40 100
q38 30 122 30h110q178 0 296 -82q70 -50 158 -174l46 -62l30 20l-142 350h-986v-52q104 0 150 -30q48 -30 48 -100v-1014q0 -74 -48 -108q-46 -34 -150 -34v-52z" />
    <glyph glyph-name="ecaron" unicode="&#x11b;" horiz-adv-x="1054" 
d="M952 234q-76 -96 -168 -146q-88 -50 -184 -50q-142 0 -232 108q-108 130 -108 388h708q0 210 -116 336q-112 122 -290 122q-188 0 -312 -148q-122 -146 -122 -362q0 -230 126 -376q126 -142 318 -142q138 0 246 72q86 58 164 172zM834 592h-574q8 142 102 248
q90 102 198 102q116 0 188 -86q76 -92 86 -264zM878 1400h-70l-250 -156l-248 156h-70l254 -288h128z" />
    <glyph glyph-name="Gcircumflex" unicode="&#x11c;" horiz-adv-x="1460" 
d="M1376 630h-526v-54q130 0 182 -36q44 -32 44 -110v-144q0 -90 -112 -176q-114 -92 -242 -92q-182 0 -314 166q-152 192 -152 520q0 286 146 482q140 190 338 190q148 0 290 -112q90 -72 206 -220l32 16l-142 366l-166 -40q-40 16 -102 28q-72 14 -128 14
q-262 0 -436 -206q-178 -210 -178 -528q0 -350 172 -544q162 -184 434 -184q52 0 112 14q36 8 102 30l88 26q48 10 88 10h92v384q0 76 36 110q40 36 136 36v54zM1106 1470v0l-256 286h-126l-254 -286h70l246 154l250 -154h70z" />
    <glyph glyph-name="gcircumflex" unicode="&#x11d;" horiz-adv-x="1164" 
d="M540 992q-154 0 -254 -84q-108 -88 -108 -240q0 -96 50 -174q48 -74 132 -114q-76 -26 -114 -48q-66 -38 -66 -80t44 -70q50 -32 162 -54q-110 -24 -194 -74q-102 -62 -102 -130q0 -102 106 -158q112 -56 334 -56q206 0 324 50q140 58 140 182q0 94 -76 150
q-64 48 -184 70l-102 18q-82 16 -122 22l-124 26q-50 12 -68 32q-12 16 -12 38q0 18 30 36q28 16 74 26q40 -10 76 -14q20 -4 54 -4q148 0 250 86q110 90 110 238q0 56 -20 110q-20 52 -52 96q30 26 58 24q16 -2 44 -20q16 -8 26 -12q16 -8 32 -8q30 0 48 24q18 22 18 54
q0 30 -30 50q-26 18 -58 18q-44 0 -90 -24t-84 -68q-38 34 -100 56q-70 26 -152 26zM564 -240q-166 0 -262 44q-92 44 -92 110q0 58 60 102q68 52 212 84l200 -40q100 -20 150 -62q48 -38 48 -92q0 -58 -96 -102q-92 -44 -220 -44zM540 942q106 0 172 -86q58 -76 58 -188
q0 -110 -58 -188q-66 -88 -172 -88q-110 0 -174 88q-56 76 -56 188t56 188q64 86 174 86zM896 1082v0l-256 286h-126l-254 -286h70l246 156l250 -156h70z" />
    <glyph glyph-name="Gbreve" unicode="&#x11e;" horiz-adv-x="1460" 
d="M1376 630h-526v-54q130 0 182 -36q44 -32 44 -110v-144q0 -90 -112 -176q-114 -92 -242 -92q-182 0 -314 166q-152 192 -152 520q0 286 146 482q140 190 338 190q148 0 290 -112q90 -72 206 -220l32 16l-142 366l-166 -40q-40 16 -102 28q-72 14 -128 14
q-262 0 -436 -206q-178 -210 -178 -528q0 -350 172 -544q162 -184 434 -184q52 0 112 14q36 8 102 30l88 26q48 10 88 10h92v384q0 76 36 110q40 36 136 36v54zM1006 1728l-6 -10q-38 -72 -72 -100q-54 -46 -154 -46q-96 0 -154 42q-58 40 -72 114h-60v-10q0 -122 86 -194
q80 -66 198 -66q164 0 238 116q40 60 52 152l2 2h-58z" />
    <glyph glyph-name="gbreve" unicode="&#x11f;" horiz-adv-x="1164" 
d="M540 992q-154 0 -254 -84q-108 -88 -108 -240q0 -96 50 -174q48 -74 132 -114q-76 -26 -114 -48q-66 -38 -66 -80t44 -70q50 -32 162 -54q-110 -24 -194 -74q-102 -62 -102 -130q0 -102 106 -158q112 -56 334 -56q206 0 324 50q140 58 140 182q0 94 -76 150
q-64 48 -184 70l-102 18q-82 16 -122 22l-124 26q-50 12 -68 32q-12 16 -12 38q0 18 30 36q28 16 74 26q40 -10 76 -14q20 -4 54 -4q148 0 250 86q110 90 110 238q0 56 -20 110q-20 52 -52 96q30 26 58 24q16 -2 44 -20q16 -8 26 -12q16 -8 32 -8q30 0 48 24q18 22 18 54
q0 30 -30 50q-26 18 -58 18q-44 0 -90 -24t-84 -68q-38 34 -100 56q-70 26 -152 26zM564 -240q-166 0 -262 44q-92 44 -92 110q0 58 60 102q68 52 212 84l200 -40q100 -20 150 -62q48 -38 48 -92q0 -58 -96 -102q-92 -44 -220 -44zM540 942q106 0 172 -86q58 -76 58 -188
q0 -110 -58 -188q-66 -88 -172 -88q-110 0 -174 88q-56 76 -56 188t56 188q64 86 174 86zM764 1382l-6 -10q-36 -70 -70 -98q-54 -46 -154 -46q-96 0 -156 42q-56 40 -72 112h-58v-8q0 -122 86 -194q80 -66 196 -66q164 0 240 114q40 60 52 152l2 2h-60z" />
    <glyph glyph-name="Gdotaccent" unicode="&#x120;" horiz-adv-x="1460" 
d="M738 1708q-54 0 -84 -34q-28 -32 -28 -78q0 -44 28 -76q30 -36 84 -36t86 36q28 32 28 76q0 46 -28 78q-32 34 -86 34zM1376 630h-526v-54q130 0 182 -36q44 -32 44 -110v-144q0 -90 -112 -176q-114 -92 -242 -92q-182 0 -314 166q-152 192 -152 520q0 286 146 482
q140 190 338 190q148 0 290 -112q90 -72 206 -220l32 16l-142 366l-166 -40q-40 16 -102 28q-72 14 -128 14q-262 0 -436 -206q-178 -210 -178 -528q0 -350 172 -544q162 -184 434 -184q52 0 112 14q36 8 102 30l88 26q48 10 88 10h92v384q0 76 36 110q40 36 136 36v54z" />
    <glyph glyph-name="gdotaccent" unicode="&#x121;" horiz-adv-x="1164" 
d="M540 992q-154 0 -254 -84q-108 -88 -108 -240q0 -96 50 -174q48 -74 132 -114q-76 -26 -114 -48q-66 -38 -66 -80t44 -70q50 -32 162 -54q-110 -24 -194 -74q-102 -62 -102 -130q0 -102 106 -158q112 -56 334 -56q206 0 324 50q140 58 140 182q0 94 -76 150
q-64 48 -184 70l-102 18q-82 16 -122 22l-124 26q-50 12 -68 32q-12 16 -12 38q0 18 30 36q28 16 74 26q40 -10 76 -14q20 -4 54 -4q148 0 250 86q110 90 110 238q0 56 -20 110q-20 52 -52 96q30 26 58 24q16 -2 44 -20q16 -8 26 -12q16 -8 32 -8q30 0 48 24q18 22 18 54
q0 30 -30 50q-26 18 -58 18q-44 0 -90 -24t-84 -68q-38 34 -100 56q-70 26 -152 26zM564 -240q-166 0 -262 44q-92 44 -92 110q0 58 60 102q68 52 212 84l200 -40q100 -20 150 -62q48 -38 48 -92q0 -58 -96 -102q-92 -44 -220 -44zM540 942q106 0 172 -86q58 -76 58 -188
q0 -110 -58 -188q-66 -88 -172 -88q-110 0 -174 88q-56 76 -56 188t56 188q64 86 174 86zM552 1306q-54 0 -86 -34q-28 -32 -28 -78t28 -76q30 -36 86 -36q52 0 84 36q28 30 28 76t-28 78q-32 34 -84 34z" />
    <glyph glyph-name="Gcommaaccent" unicode="&#x122;" horiz-adv-x="1460" 
d="M670 -88l14 -10q12 6 36 8h38q72 0 104 -16q28 -14 28 -42q0 -36 -40 -56q-32 -18 -82 -20q-34 0 -82 16q-42 14 -76 34l-26 -58q36 -24 62 -34q42 -16 110 -22q148 0 224 48q64 40 64 98q0 52 -44 78q-38 24 -110 30q-42 4 -70 2q-16 -2 -36 -4l-10 -4l14 44q34 6 76 18
q26 6 74 22q58 18 86 26q48 10 88 10h92v368q0 76 36 108q40 36 136 36v54h-526v-54q130 0 182 -36q44 -30 44 -108v-128q0 -90 -112 -176q-114 -92 -242 -92q-182 0 -314 164q-152 188 -152 504q0 276 146 468q142 188 338 188q148 0 290 -112q90 -72 206 -220l32 16
l-142 366l-166 -40q-40 16 -102 28q-72 14 -128 14q-260 0 -436 -204q-178 -206 -178 -514q0 -332 166 -522q158 -180 422 -188z" />
    <glyph glyph-name="gcommaaccent" unicode="&#x123;" horiz-adv-x="1164" 
d="M540 992q-154 0 -254 -84q-108 -88 -108 -240q0 -96 50 -174q48 -74 132 -114q-76 -26 -114 -48q-66 -38 -66 -80t44 -70q50 -32 162 -54q-110 -24 -194 -74q-102 -62 -102 -130q0 -102 106 -158q112 -56 334 -56q206 0 324 50q140 58 140 182q0 94 -76 150
q-64 48 -184 70l-102 18q-82 16 -122 22l-124 26q-50 12 -68 32q-12 16 -12 38q0 18 30 36q28 16 74 26q40 -10 76 -14q20 -4 54 -4q148 0 250 86q110 90 110 238q0 56 -20 110q-20 52 -52 96q30 26 58 24q16 -2 44 -20q16 -8 26 -12q16 -8 32 -8q30 0 48 24q18 22 18 54
q0 30 -30 50q-26 18 -58 18q-44 0 -90 -24t-84 -68q-38 34 -100 56q-70 26 -152 26zM564 -240q-166 0 -262 44q-92 44 -92 110q0 58 60 102q68 52 212 84l200 -40q100 -20 150 -62q48 -38 48 -92q0 -58 -96 -102q-92 -44 -220 -44zM540 942q106 0 172 -86q58 -76 58 -188
q0 -110 -58 -188q-66 -88 -172 -88q-110 0 -174 88q-56 76 -56 188t56 188q64 86 174 86zM676 1534l-24 26q-100 -78 -150 -150q-66 -94 -66 -198q0 -68 34 -104q30 -32 82 -32q38 0 68 32q32 32 32 74t-26 70q-24 26 -50 26q-36 0 -44 10q-12 10 -2 46q14 42 54 100
q44 62 92 100z" />
    <glyph glyph-name="Hcircumflex" unicode="&#x124;" horiz-adv-x="1560" 
d="M88 -2h520v52q-112 0 -156 32q-40 30 -40 102v506h712v-506q0 -72 -46 -102q-44 -32 -150 -32v-52h520v52q-110 0 -154 32q-42 30 -42 102v1034q0 62 42 90q46 28 154 28v52h-520v-52q104 0 150 -28t46 -90v-476h-712v476q0 62 42 90q44 28 154 28v52h-520v-52
q114 0 158 -28q38 -26 38 -90v-1034q0 -72 -42 -102q-44 -32 -154 -32v-52zM1088 1470v0l-256 286h-126l-254 -286h70l248 154l248 -154h70z" />
    <glyph glyph-name="hcircumflex" unicode="&#x125;" horiz-adv-x="1234" 
d="M72 -2h396v52q-74 0 -106 24q-32 26 -32 84v570q68 70 130 106q76 42 152 42q84 0 126 -52q40 -50 40 -146v-520q0 -58 -30 -82q-30 -26 -106 -26v-52h396v52q-70 0 -104 26q-34 28 -34 82v556q0 134 -68 200q-60 60 -164 60q-88 0 -186 -58q-56 -34 -148 -112l-4 -6v640
l-258 -102l8 -32q70 0 98 -20q30 -24 30 -88v-1038q0 -58 -32 -84q-30 -24 -104 -24v-52zM622 1470v0l-256 286h-126l-236 -286h70l230 154l248 -154h70z" />
    <glyph glyph-name="Hbar" unicode="&#x126;" horiz-adv-x="1560" 
d="M88 -2h520v52q-112 0 -156 32q-40 30 -40 102v504h712v-504q0 -72 -46 -102q-44 -32 -150 -32v-52h520v52q-110 0 -154 32q-42 30 -42 102v820h160v64h-160v150q0 62 42 90q46 28 154 28v52h-520v-52q104 0 150 -28t46 -90v-150h-712v150q0 62 42 90q44 28 154 28v52
h-520v-52q114 0 158 -28q38 -26 38 -90v-150h-162v-64h162v-820q0 -72 -42 -102q-44 -32 -154 -32v-52zM1124 1004v-264h-712v264h712z" />
    <glyph glyph-name="hbar" unicode="&#x127;" horiz-adv-x="1166" 
d="M72 -2h396v52q-74 0 -106 24q-32 26 -32 84v570q68 70 130 106q76 42 152 42q84 0 126 -52q40 -50 40 -146v-520q0 -58 -30 -82q-30 -26 -106 -26v-52h396v52q-70 0 -104 26q-34 28 -34 82v556q0 134 -68 200q-60 60 -164 60q-88 0 -186 -58q-56 -34 -148 -112l-4 -6v300
h384v64h-384v276l-258 -102l8 -32q70 0 98 -18q30 -20 30 -76v-48h-132v-64h132v-940q0 -58 -32 -84q-30 -24 -104 -24v-52z" />
    <glyph glyph-name="Itilde" unicode="&#x128;" horiz-adv-x="876" 
d="M108 1388v0v-52q120 0 166 -28t46 -106v-1030q0 -64 -46 -92q-50 -30 -166 -30v-52h554v52q-118 0 -168 30q-46 28 -46 92v1030q0 78 46 106t168 28v52h-554zM670 1708q-28 -60 -54 -80q-24 -22 -64 -22q-22 0 -54 12q-24 8 -46 18l-50 24q-36 20 -70 28q-34 10 -64 10
q-94 0 -154 -70q-46 -54 -62 -138h60q12 42 30 62q30 34 84 34q16 0 36 -6q18 -6 38 -18l48 -22q52 -26 80 -36q42 -14 86 -14q102 0 158 82q32 46 54 134l2 2h-58z" />
    <glyph glyph-name="itilde" unicode="&#x129;" horiz-adv-x="796" 
d="M102 -2h396v52q-82 0 -110 20t-28 80v842l-266 -94l6 -30q80 0 112 -24q26 -22 26 -68v-626q0 -60 -32 -80q-30 -20 -104 -20v-52zM538 1300q-24 -56 -46 -80q-20 -22 -40 -22q-18 0 -38 8q-10 6 -32 16l-12 6l-50 24q-36 20 -70 28q-34 10 -64 10q-74 0 -126 -70
q-44 -58 -58 -138h60q12 42 26 62q24 34 56 34q16 0 36 -6q18 -6 38 -18l48 -22q52 -26 78 -36q38 -14 70 -14q84 0 134 84q28 46 50 134h-60z" />
    <glyph glyph-name="Imacron" unicode="&#x12a;" horiz-adv-x="830" 
d="M108 1388v0v-52q120 0 166 -28t46 -106v-1030q0 -64 -46 -92q-50 -30 -166 -30v-52h554v52q-118 0 -168 30q-46 28 -46 92v1030q0 78 46 106t168 28v52h-554zM80 1630v-76h630v76h-630z" />
    <glyph glyph-name="imacron" unicode="&#x12b;" horiz-adv-x="796" 
d="M102 -2h396v52q-82 0 -110 20t-28 80v842l-266 -94l6 -30q80 0 112 -24q26 -22 26 -68v-626q0 -60 -32 -80q-30 -20 -104 -20v-52zM2 1190v-76h596v76h-596z" />
    <glyph glyph-name="Ibreve" unicode="&#x12c;" horiz-adv-x="776" 
d="M108 1388v0v-52q120 0 166 -28t46 -106v-1030q0 -64 -46 -92q-50 -30 -166 -30v-52h554v52q-118 0 -168 30q-46 28 -46 92v1030q0 78 46 106t168 28v52h-554zM614 1728l-4 -6q-38 -74 -70 -102q-56 -48 -156 -48q-98 0 -156 42q-56 40 -70 114h-60v-10q0 -122 86 -194
q80 -66 196 -66q164 0 240 116q40 60 52 152l2 2h-60z" />
    <glyph glyph-name="ibreve" unicode="&#x12d;" horiz-adv-x="776" 
d="M102 -2h396v52q-82 0 -110 20t-28 80v842l-266 -94l6 -30q80 0 112 -24q26 -22 26 -68v-626q0 -60 -32 -80q-30 -20 -104 -20v-52zM530 1382l-6 -10q-38 -72 -72 -98q-54 -46 -154 -46q-96 0 -156 42q-56 40 -70 112h-60v-8q0 -122 86 -194q80 -66 198 -66q164 0 238 114
q40 60 52 152l2 2h-58z" />
    <glyph glyph-name="Iogonek" unicode="&#x12e;" horiz-adv-x="754" 
d="M108 1388v-52q120 0 166 -28t46 -106v-1030q0 -64 -46 -92q-50 -30 -166 -30v-52h162q-24 -32 -36 -58q-14 -34 -14 -62q0 -78 44 -122q40 -44 110 -44q64 0 128 48q54 42 98 108l-42 32q-44 -36 -70 -50q-40 -24 -80 -24q-30 0 -52 22q-22 24 -22 60q0 24 10 48
q8 20 24 42h294v52q-118 0 -168 30q-46 28 -46 92v1030q0 78 46 106t168 28v52h-554z" />
    <glyph glyph-name="iogonek" unicode="&#x12f;" horiz-adv-x="626" 
d="M302 1286q-54 0 -82 -30q-26 -28 -26 -72q0 -40 26 -68q28 -34 82 -34q50 0 80 34q28 28 28 68q0 42 -28 72q-30 30 -80 30zM498 -2v52q-82 0 -110 20t-28 80v842l-266 -94l6 -30q80 0 112 -24q26 -22 26 -68v-626q0 -60 -32 -80q-30 -20 -104 -20v-52h90
q-24 -32 -36 -58q-14 -34 -14 -62q0 -78 42 -122t112 -44q64 0 126 48q56 42 98 108l-40 32q-42 -34 -70 -50q-40 -24 -80 -24q-30 0 -52 22q-22 24 -22 60q0 24 10 48q8 20 24 42h208z" />
    <glyph glyph-name="Idotaccent" unicode="&#x130;" horiz-adv-x="754" 
d="M108 1388v0v-52q120 0 166 -28t46 -106v-1030q0 -64 -46 -92q-50 -30 -166 -30v-52h554v52q-118 0 -168 30q-46 28 -46 92v1030q0 78 46 106t168 28v52h-554zM384 1708q-54 0 -86 -34q-26 -32 -26 -78q0 -44 26 -76q32 -36 86 -36q52 0 84 36q30 32 30 76q0 46 -30 78
q-32 34 -84 34z" />
    <glyph glyph-name="dotlessi" unicode="&#x131;" horiz-adv-x="604" 
d="M102 -2h396v52q-82 0 -110 20t-28 80v842l-266 -94l6 -30q80 0 112 -24q26 -22 26 -68v-626q0 -60 -32 -80q-30 -20 -104 -20v-52z" />
    <glyph glyph-name="IJ" unicode="&#x132;" horiz-adv-x="1552" 
d="M96 1388v-52q120 0 166 -28t46 -106v-1030q0 -64 -46 -92q-50 -30 -166 -30v-52h554v52q-118 0 -168 30q-46 28 -46 92v1030q0 78 46 106t168 28v52h-554zM1448 1388h-546v-52q126 0 174 -30q44 -28 44 -102v-874q0 -142 -38 -220q-42 -90 -124 -90q-50 0 -74 32
q-20 28 -20 72q0 54 -26 80q-26 28 -76 28q-46 0 -70 -34q-22 -30 -22 -78q0 -84 82 -122q70 -34 204 -34q126 0 204 102q88 112 88 314v824q0 74 42 102q44 30 158 30v52z" />
    <glyph glyph-name="ij" unicode="&#x133;" horiz-adv-x="1078" 
d="M302 1508q-54 0 -82 -32q-26 -28 -26 -72q0 -40 26 -68q28 -32 82 -32q50 0 80 32q28 28 28 68q0 44 -28 72q-30 32 -80 32zM102 -2h396v52q-82 0 -110 20t-28 80v842l-266 -94l6 -30q80 0 112 -24q26 -22 26 -68v-626q0 -60 -32 -80q-30 -20 -104 -20v-52zM642 898
l12 -36q94 0 126 -20q32 -22 32 -82v-816q0 -86 -24 -126t-76 -40q-14 0 -24 16q-6 10 -16 36q-20 48 -38 68q-32 34 -82 34q-40 0 -62 -26q-18 -26 -18 -70t44 -80q54 -46 148 -46q114 0 184 76q86 90 86 266v940zM864 1508q-50 0 -80 -32q-24 -28 -24 -72q0 -40 24 -68
q30 -32 80 -32q48 0 80 32q28 28 28 68q0 42 -28 72q-32 32 -80 32z" />
    <glyph glyph-name="Jcircumflex" unicode="&#x134;" horiz-adv-x="1020" 
d="M862 1388h-544v-52q126 0 172 -30q44 -28 44 -102v-874q0 -142 -38 -220q-42 -90 -124 -90q-48 0 -72 32q-20 26 -20 72q0 54 -26 80q-26 28 -76 28q-46 0 -70 -34q-22 -30 -22 -78q0 -84 80 -122q70 -34 204 -34q126 0 206 102q86 112 86 314v824q0 74 42 102
q44 30 158 30v52zM906 1470v0l-256 286h-126l-254 -286h70l248 154l248 -154h70z" />
    <glyph glyph-name="jcircumflex" unicode="&#x135;" horiz-adv-x="812" 
d="M90 898l12 -36q94 0 128 -20q32 -22 32 -82v-816v-10q0 -94 -6 -118q-10 -38 -42 -38q-14 0 -22 16q-4 10 -10 38q-10 48 -22 68q-24 32 -70 32q-40 0 -64 -26q-24 -28 -24 -70q0 -40 42 -80q50 -46 122 -46q76 0 138 76q80 94 80 266v940zM614 1082v0l-256 286h-126
l-228 -286h70l222 156l248 -156h70z" />
    <glyph glyph-name="Kcommaaccent" unicode="&#x136;" horiz-adv-x="1562" 
d="M86 -2h520v52q-116 0 -158 30q-38 26 -38 88v356l240 228l434 -606q32 -58 -18 -78q-40 -18 -166 -18v-52h548v52q-104 0 -144 24q-34 20 -80 96l-482 676l380 362q72 76 122 104q48 24 116 24v52h-500v-52q146 0 184 -46q32 -38 -16 -90l-618 -588v592q0 80 40 106
q38 26 156 26v52h-520v-52q120 0 158 -26t38 -112v-1028q0 -64 -38 -90q-44 -30 -158 -30v-52zM568 -74h16q12 6 34 8h40q48 0 72 -16q24 -14 24 -46q0 -44 -42 -66q-36 -20 -94 -20q-44 0 -80 12q-30 10 -64 30l-26 -58q30 -22 72 -36q54 -18 122 -18q106 0 186 46t80 106
q0 54 -52 92q-58 42 -158 42q-30 2 -70 -4q-46 -6 -82 -18z" />
    <glyph glyph-name="kcommaaccent" unicode="&#x137;" horiz-adv-x="1196" 
d="M68 -2h396v52q-74 0 -106 28q-32 26 -32 92v162l162 164l242 -344q32 -56 2 -82q-24 -20 -90 -20v-52h422v52q-62 0 -106 22q-46 22 -76 70l-298 446l214 226q58 50 96 68q52 26 116 26v52h-410v-52q90 0 122 -24q32 -28 -14 -78l-382 -392v1014l-258 -94l10 -28
q64 0 92 -18q34 -22 34 -78v-1040q0 -64 -34 -92q-32 -28 -102 -28v-52zM426 -74h16q12 6 36 8h38q48 0 72 -16q24 -14 24 -46q0 -44 -42 -66q-36 -20 -94 -20q-44 0 -80 12q-30 10 -64 30l-26 -58q34 -22 72 -36q56 -18 122 -18q106 0 186 46t80 106q0 54 -50 92
q-58 42 -160 42q-30 2 -70 -4q-46 -6 -82 -18z" />
    <glyph glyph-name="kgreenlandic" unicode="&#x138;" horiz-adv-x="1194" 
d="M62 -2h396v52q-74 0 -106 28q-32 26 -32 92v198l162 162l242 -378q32 -58 0 -82q-28 -20 -112 -20v-52h444v52q-62 0 -106 22q-46 24 -74 70l-300 470l216 220q56 48 94 68q54 26 118 26v52h-410v-52q88 0 120 -24q34 -28 -12 -80l-382 -382v568l-258 -94l10 -28
q64 0 92 -18q34 -22 34 -78v-620q0 -64 -34 -92q-32 -28 -102 -28v-52z" />
    <glyph glyph-name="Lacute" unicode="&#x139;" horiz-adv-x="1328" 
d="M76 -2h978l150 358l-38 20q-88 -152 -212 -238q-126 -88 -270 -88h-132q-84 0 -118 34q-32 32 -32 98v1026q0 76 40 100q42 28 172 28v52h-538v-52q116 0 158 -28q40 -26 40 -100v-1026q0 -68 -40 -98q-46 -34 -158 -34v-52zM282 1430h66l170 164q38 38 46 56
q12 30 -12 68q-24 32 -64 18q-42 -14 -64 -64z" />
    <glyph glyph-name="lacute" unicode="&#x13a;" horiz-adv-x="612" 
d="M98 -2h404v52q-78 0 -112 30q-32 30 -32 96v1252l-268 -94l8 -28q76 0 108 -24q30 -22 30 -72v-1034q0 -66 -32 -96t-106 -30v-52zM160 1430h66l170 164v2q38 36 46 56q12 30 -12 66q-22 32 -64 18t-64 -64z" />
    <glyph glyph-name="Lcommaaccent" unicode="&#x13b;" horiz-adv-x="1328" 
d="M1054 -2l150 358l-38 20q-88 -152 -212 -238q-126 -88 -270 -88h-132q-84 0 -118 34q-32 32 -32 98v1026q0 76 40 100q42 28 172 28v52h-538v-52q116 0 158 -28q40 -26 40 -100v-1026q0 -68 -40 -98q-46 -34 -158 -34v-52h396l-36 -86l16 -10q12 6 36 8h38q72 0 104 -16
q28 -14 28 -42q0 -36 -40 -56q-32 -18 -82 -20q-34 0 -82 16q-42 14 -76 34l-26 -58q36 -24 62 -34q42 -16 110 -22q146 0 224 48q64 40 64 98q0 52 -44 78q-38 24 -110 30q-42 4 -70 2q-16 -2 -36 -4l-10 -4l10 38h502z" />
    <glyph glyph-name="lcommaaccent" unicode="&#x13c;" horiz-adv-x="678" 
d="M502 -2v52q-78 0 -112 30q-32 30 -32 96v1252l-268 -94l8 -28q76 0 108 -24q30 -22 30 -72v-1034q0 -66 -32 -96t-106 -30v-52h130l-36 -86l16 -10q12 6 36 8h38q72 0 104 -16q28 -14 28 -42q0 -36 -40 -56q-32 -18 -82 -20q-34 0 -82 16q-42 14 -76 34l-26 -58
q34 -22 62 -34q42 -16 110 -22q146 0 224 48q64 40 64 98q0 52 -44 78q-38 24 -110 30q-42 4 -70 2q-16 0 -34 -4l-14 -4l12 38h194z" />
    <glyph glyph-name="Lcaron" unicode="&#x13d;" horiz-adv-x="1374" 
d="M1054 -2l150 358l-38 20q-88 -152 -212 -238q-126 -88 -270 -88h-132q-84 0 -118 34q-32 32 -32 98v1026q0 76 40 100q42 28 172 28v52h-538v-52q116 0 158 -28q40 -26 40 -100v-1026q0 -68 -40 -98q-46 -34 -158 -34v-52h978zM668 1756h-70l-250 -156l-248 156h-70
l256 -286h126z" />
    <glyph glyph-name="lcaron" unicode="&#x13e;" horiz-adv-x="792" 
d="M502 -2v52q-78 0 -112 30q-32 30 -32 96v1252l-268 -94l8 -28q76 0 108 -24q30 -22 30 -72v-1034q0 -66 -32 -96t-106 -30v-52h404zM598 1756h-70l-232 -156l-220 156h-70l228 -286h126z" />
    <glyph glyph-name="Ldot" unicode="&#x13f;" horiz-adv-x="1328" 
d="M952 940q-54 0 -84 -34q-28 -32 -28 -78q0 -44 28 -76q30 -36 84 -36t86 36q28 32 28 76q0 46 -28 78q-32 34 -86 34zM1054 -2l150 358l-38 20q-88 -152 -212 -238q-126 -88 -270 -88h-132q-84 0 -118 34q-32 32 -32 98v1026q0 76 40 100q42 28 172 28v52h-538v-52
q116 0 158 -28q40 -26 40 -100v-1026q0 -68 -40 -98q-46 -34 -158 -34v-52v0h978z" />
    <glyph glyph-name="ldot" unicode="&#x140;" horiz-adv-x="818" 
d="M566 940q-54 0 -84 -34q-28 -32 -28 -78q0 -44 28 -76q30 -36 84 -36t86 36q28 32 28 76q0 46 -28 78q-32 34 -86 34zM472 -2v52q-78 0 -112 30q-32 30 -32 96v1252l-266 -94l8 -28q76 0 106 -24q30 -22 30 -72v-1034q0 -66 -32 -96q-30 -30 -104 -30v-52v0h402z" />
    <glyph glyph-name="Lslash" unicode="&#x141;" horiz-adv-x="1340" 
d="M76 -2h978l150 358l-38 20q-88 -152 -212 -238q-126 -88 -270 -88h-132q-84 0 -118 34q-32 32 -32 98v662l276 312l-56 46l-220 -248v272q0 62 40 86q44 24 172 24v52h-538v-52q114 0 158 -24q40 -24 40 -86v-416l-210 -236l56 -50l154 174v-516q0 -68 -40 -98
q-46 -34 -158 -34v-52z" />
    <glyph glyph-name="lslash" unicode="&#x142;" horiz-adv-x="794" 
d="M542 1196l-184 -208v440l-268 -94l8 -28q76 0 108 -24q30 -22 30 -72v-358l-232 -264l54 -50l178 202v-564q0 -66 -32 -96t-106 -30v-52h404v52q-78 0 -112 30q-32 30 -32 96v704l240 270z" />
    <glyph glyph-name="Nacute" unicode="&#x143;" horiz-adv-x="1584" 
d="M76 -2h470v52q-124 0 -170 32q-42 32 -42 110v1010l894 -1214h36v1236q0 58 46 86q46 26 150 26v52h-470v-52q116 0 166 -26q48 -26 48 -86v-984l-850 1148h-278v-52q110 0 154 -32q44 -30 44 -110v-1002q0 -78 -44 -110t-154 -32v-52zM666 1430h66l170 164q38 38 46 56
q12 30 -12 68q-24 32 -64 18q-42 -14 -64 -64z" />
    <glyph glyph-name="nacute" unicode="&#x144;" horiz-adv-x="1162" 
d="M74 -2h396v52q-74 0 -106 28q-32 26 -32 92v578q86 76 150 112q82 44 152 44q74 0 110 -56q32 -50 32 -144v-534q0 -66 -32 -92q-30 -28 -104 -28v-52h396v52q-76 0 -106 28q-32 26 -32 92v528q0 136 -62 216q-62 78 -164 78q-76 0 -164 -48q-50 -30 -140 -102l-36 -32
v182l-258 -80l6 -32q78 0 104 -22t26 -88v-600q0 -66 -30 -92q-30 -28 -106 -28v-52zM390 1082h68l168 164q38 36 46 56q12 30 -12 68q-22 32 -64 18t-64 -64z" />
    <glyph glyph-name="Ncommaaccent" unicode="&#x145;" horiz-adv-x="1584" 
d="M76 -2h470v52q-124 0 -170 32q-42 32 -42 110v1010l894 -1214h36v1236q0 58 46 86q46 26 150 26v52h-470v-52q116 0 166 -26q48 -26 48 -86v-984l-850 1148h-278v-52q110 0 154 -32q44 -30 44 -110v-1002q0 -78 -44 -110t-154 -32v-52zM608 -74h14q14 6 36 8h38
q50 0 72 -16q26 -14 26 -46q0 -44 -42 -66q-36 -20 -94 -20q-46 0 -82 12q-30 10 -62 30l-28 -58q34 -22 74 -36q54 -18 120 -18q106 0 186 46q82 46 82 106q0 54 -52 92q-58 42 -158 42q-30 2 -72 -4q-44 -6 -80 -18z" />
    <glyph glyph-name="ncommaaccent" unicode="&#x146;" horiz-adv-x="1162" 
d="M74 -2h372v52q-58 0 -84 28q-30 28 -30 92v578q86 76 150 112q82 44 152 44q74 0 110 -56q32 -50 32 -144v-534q0 -66 -32 -92q-30 -28 -104 -28v-52h396v52q-76 0 -106 28q-32 26 -32 92v528q0 136 -62 216q-62 78 -164 78q-76 0 -164 -48q-50 -30 -140 -102l-36 -32
v182l-258 -80l6 -32q78 0 104 -22t26 -88v-600q0 -66 -30 -92q-30 -28 -106 -28v-52zM408 -74h16q12 6 34 8h38q50 0 74 -16q24 -14 24 -46q0 -44 -42 -66q-36 -20 -94 -20q-46 0 -82 12q-30 10 -62 30l-28 -58q34 -22 74 -36q56 -18 122 -18q104 0 184 46q82 48 82 106
q0 54 -52 92q-58 42 -158 42q-30 0 -70 -4q-50 -6 -82 -18z" />
    <glyph glyph-name="Ncaron" unicode="&#x147;" horiz-adv-x="1584" 
d="M76 -2h470v52q-124 0 -170 32q-42 32 -42 110v1010l894 -1212h36v1234q0 58 46 86q46 26 150 26v52h-470v-52q116 0 166 -26q48 -26 48 -86v-984l-850 1148h-278v-52q110 0 154 -32q44 -30 44 -110v-1002q0 -78 -44 -110t-154 -32v-52zM1088 1756h-70l-248 -156l-248 156
h-70l254 -286h126z" />
    <glyph glyph-name="ncaron" unicode="&#x148;" horiz-adv-x="1162" 
d="M74 -2h396v52q-74 0 -106 28q-32 26 -32 92v578q86 76 150 112q82 44 152 44q74 0 110 -56q32 -50 32 -144v-534q0 -66 -32 -92q-30 -28 -104 -28v-52h396v52q-76 0 -106 28q-32 26 -32 92v528q0 136 -62 216q-62 78 -164 78q-76 0 -164 -48q-50 -30 -140 -102l-36 -32
v182l-258 -80l6 -32q78 0 104 -22t26 -88v-600q0 -66 -30 -92q-30 -28 -106 -28v-52zM888 1400h-70l-250 -156l-248 156h-70l256 -288h126z" />
    <glyph glyph-name="napostrophe" unicode="&#x149;" horiz-adv-x="1386" 
d="M330 -2h396v52q-74 0 -106 28q-32 26 -32 92v578q86 76 150 112q82 44 152 44q74 0 110 -56q32 -50 32 -144v-534q0 -66 -32 -92q-30 -28 -104 -28v-52h396v52q-76 0 -106 28q-32 26 -32 92v528q0 136 -62 216q-62 78 -164 78q-76 0 -164 -48q-50 -30 -140 -102l-36 -32
v182l-258 -80l6 -32q78 0 104 -22t26 -88v-600q0 -66 -30 -92q-30 -28 -106 -28v-52zM106 778l24 -26q104 84 150 148q66 92 66 200q0 70 -36 106q-30 30 -80 30q-40 0 -70 -30t-30 -74q0 -40 24 -70q24 -28 50 -28q30 0 38 -28q8 -24 -2 -68q-12 -34 -50 -78
q-30 -32 -84 -82z" />
    <glyph glyph-name="Eng" unicode="&#x14a;" horiz-adv-x="1584" 
d="M76 -2h470v52q-124 0 -170 32q-42 32 -42 110v1010l874 -1186q-10 -136 -66 -194q-46 -52 -130 -52q-48 0 -72 46q-20 38 -20 88q0 54 -26 80q-26 28 -76 28q-46 0 -70 -34q-22 -30 -22 -78q0 -86 80 -138q78 -48 204 -48q118 0 180 62q68 68 74 212v1236q0 58 46 86
q46 26 150 26v52h-470v-52q116 0 166 -26q48 -26 48 -86v-984l-850 1148h-278v-52q110 0 154 -32q44 -30 44 -110v-1002q0 -78 -44 -110t-154 -32v-52z" />
    <glyph glyph-name="eng" unicode="&#x14b;" horiz-adv-x="1092" 
d="M92 -2h418v48q-58 0 -98 22q-44 22 -44 58v634q68 70 152 108q80 34 154 32q74 -4 118 -46q48 -46 48 -128v-744q0 -112 -82 -176q-68 -52 -158 -52q-120 8 -148 34q-20 16 -8 62q4 14 4 20q2 12 4 22q0 32 -26 54q-24 20 -56 22q-34 2 -58 -16q-24 -20 -24 -62
q0 -88 104 -138q88 -42 208 -42q160 0 254 68q114 80 114 248v646q0 166 -66 246q-62 74 -178 74q-98 0 -192 -48q-54 -30 -134 -96l-30 -26v174l-292 -94l16 -36q64 0 104 -16q42 -16 42 -48v-668q0 -40 -44 -66q-40 -24 -102 -24v-46z" />
    <glyph glyph-name="Omacron" unicode="&#x14c;" horiz-adv-x="1424" 
d="M726 1428q-286 0 -456 -226q-156 -208 -156 -506q0 -296 156 -502q170 -228 456 -228q284 0 456 228q156 206 156 502q0 298 -156 506q-172 226 -456 226zM726 1376q218 0 350 -212q122 -192 122 -470q0 -272 -122 -464q-132 -212 -350 -212q-220 0 -354 212
q-120 192 -120 464q0 278 120 470q134 212 354 212zM424 1630v-76h630v76h-630z" />
    <glyph glyph-name="omacron" unicode="&#x14d;" horiz-adv-x="1066" 
d="M554 992q-204 0 -324 -158q-108 -144 -108 -358q0 -210 108 -354q120 -158 324 -158q202 0 324 158q110 144 110 354q0 214 -110 358q-122 158 -324 158zM554 942q138 0 222 -142q76 -130 76 -322q0 -190 -76 -320q-84 -144 -222 -144q-140 0 -224 144q-74 130 -74 320
q0 192 74 322q84 142 224 142zM214 1190v-76h630v76h-630z" />
    <glyph glyph-name="Obreve" unicode="&#x14e;" horiz-adv-x="1424" 
d="M726 1428q-286 0 -456 -226q-156 -208 -156 -506q0 -296 156 -502q170 -228 456 -228q284 0 456 228q156 206 156 502q0 298 -156 506q-172 226 -456 226zM726 1376q218 0 350 -212q122 -192 122 -470q0 -272 -122 -464q-132 -212 -350 -212q-220 0 -354 212
q-120 192 -120 464q0 278 120 470q134 212 354 212zM968 1728l-6 -10q-38 -72 -72 -100q-54 -46 -152 -46t-156 42q-58 40 -72 114h-60v-10q0 -122 86 -194q80 -66 198 -66q160 0 236 110q40 58 56 154l2 6h-60z" />
    <glyph glyph-name="obreve" unicode="&#x14f;" horiz-adv-x="1066" 
d="M554 992q-204 0 -324 -158q-108 -144 -108 -358q0 -210 108 -354q120 -158 324 -158q202 0 324 158q110 144 110 354q0 214 -110 358q-122 158 -324 158zM554 942q138 0 222 -142q76 -130 76 -322q0 -190 -76 -320q-84 -144 -222 -144q-140 0 -224 144q-74 130 -74 320
q0 192 74 322q84 142 224 142zM790 1382l-6 -10q-38 -72 -72 -98q-54 -46 -152 -46q-96 0 -156 42q-56 40 -72 112h-58v-8q0 -122 86 -194q80 -66 196 -66q164 0 240 114q40 60 52 152l2 2h-60z" />
    <glyph glyph-name="Ohungarumlaut" unicode="&#x150;" horiz-adv-x="1424" 
d="M726 1428q-286 0 -456 -226q-156 -208 -156 -506q0 -296 156 -502q170 -228 456 -228q284 0 456 228q156 206 156 502q0 298 -156 506q-172 226 -456 226zM726 1376q218 0 350 -212q122 -192 122 -470q0 -272 -122 -464q-132 -212 -350 -212q-220 0 -354 212
q-120 192 -120 464q0 278 120 470q134 212 354 212zM728 1430h66l168 164q38 36 46 56q12 30 -12 68q-22 32 -62 18q-42 -14 -66 -64zM482 1430h68l168 164q38 36 46 56q12 30 -12 68q-22 32 -62 18q-42 -14 -66 -64z" />
    <glyph glyph-name="ohungarumlaut" unicode="&#x151;" horiz-adv-x="1066" 
d="M554 992q-204 0 -324 -158q-108 -144 -108 -358q0 -210 108 -354q120 -158 324 -158q202 0 324 158q110 144 110 354q0 214 -110 358q-122 158 -324 158zM554 942q138 0 222 -142q76 -130 76 -322q0 -190 -76 -320q-84 -144 -222 -144q-140 0 -224 144q-74 130 -74 320
q0 192 74 322q84 142 224 142zM344 1112h66l168 164q38 36 46 58q12 30 -12 68q-22 30 -62 18q-42 -14 -66 -64zM588 1112h66l168 164q38 36 46 58q12 30 -12 68q-22 30 -62 18q-42 -14 -66 -64z" />
    <glyph glyph-name="OE" unicode="&#x152;" horiz-adv-x="1936" 
d="M1028 1388h-352q-246 0 -408 -224q-148 -204 -148 -470t148 -470q160 -226 408 -226h1040l140 362l-38 18q-126 -176 -246 -250q-128 -78 -300 -78h-60q-84 0 -124 34t-40 108v506h178q108 0 164 -60q58 -64 58 -190h50v548h-50q0 -130 -58 -188q-54 -54 -164 -54h-178
v452q0 70 40 100q38 30 122 30h68q178 0 296 -82q70 -50 158 -174l46 -62l32 20l-144 350h-638zM902 202q0 -82 -40 -116q-38 -34 -124 -34h-62q-166 0 -294 208q-122 198 -122 434t122 436q128 206 294 206h62q84 0 124 -32t40 -104v-998z" />
    <glyph glyph-name="oe" unicode="&#x153;" horiz-adv-x="1720" 
d="M538 944q142 0 226 -142q76 -128 76 -314q0 -182 -76 -308q-84 -140 -226 -140q-138 0 -224 140q-78 128 -78 308q0 182 78 314q88 142 224 142zM538 996q-208 0 -326 -156q-106 -142 -106 -348q0 -204 106 -346q118 -158 326 -158q114 0 208 60q86 56 140 152
q44 -90 160 -152q108 -58 210 -58q112 0 198 44t146 134q24 36 12 52q-10 14 -40 -16q-54 -66 -136 -102q-70 -30 -134 -30q-134 0 -220 96q-108 122 -114 378h658q0 170 -100 300q-114 150 -298 150q-126 0 -222 -64q-82 -56 -120 -144q-42 94 -136 152q-96 56 -212 56z
M1498 598h-528q8 166 86 262q72 84 172 84q98 0 174 -84q86 -96 96 -262z" />
    <glyph glyph-name="Racute" unicode="&#x154;" horiz-adv-x="1422" 
d="M76 -2h522v52q-108 0 -152 36q-44 34 -44 110v484h216l404 -682h276v52q-84 0 -128 20q-50 20 -80 76l-332 538q194 12 302 116q98 96 98 242q0 154 -124 248q-130 98 -360 98h-598v-52q112 0 156 -26q42 -26 42 -90v-1024q0 -78 -42 -110q-44 -36 -156 -36v-52zM402 732
v488q0 62 38 90q36 26 112 26h114q164 0 256 -76q94 -78 94 -218q0 -130 -68 -212q-80 -98 -236 -98h-310zM482 1430h68l168 164q38 36 46 56q12 30 -12 68q-22 32 -62 18q-42 -14 -66 -64z" />
    <glyph glyph-name="racute" unicode="&#x155;" horiz-adv-x="910" 
d="M66 -2h396v52q-80 0 -108 24t-28 84v526v2q64 80 92 110q46 46 96 70q30 16 54 10q14 -4 36 -22q18 -16 30 -22q20 -12 46 -12q44 0 70 30q26 28 26 66t-26 66q-26 30 -66 30q-94 0 -200 -80q-80 -62 -158 -166v236l-260 -100l12 -30q74 0 102 -18q24 -18 24 -68v-628
q0 -58 -38 -84q-34 -24 -100 -24v-52zM390 1082h68l168 164q38 36 46 56q12 30 -12 68q-22 32 -64 18t-64 -64z" />
    <glyph glyph-name="Rcommaaccent" unicode="&#x156;" horiz-adv-x="1422" 
d="M402 732v488q0 62 38 90q36 26 112 26h114q164 0 256 -76q94 -78 94 -218q0 -130 -68 -212q-80 -98 -236 -98h-310zM76 -2h522v52q-108 0 -152 36q-44 34 -44 110v484h216l404 -682h276v52q-84 0 -128 20q-50 20 -80 76l-332 538q194 12 302 116q98 96 98 242
q0 154 -124 248q-130 98 -360 98h-598v-52q112 0 156 -26q42 -26 42 -90v-1024q0 -78 -42 -110q-44 -36 -156 -36v-52zM568 -74h16q12 6 34 8h40q48 0 72 -16q24 -14 24 -46q0 -44 -42 -66q-36 -20 -94 -20q-44 0 -80 12q-30 10 -64 30l-26 -58q30 -22 72 -36
q54 -18 122 -18q106 0 186 46t80 106q0 54 -52 92q-58 42 -158 42q-30 2 -70 -4q-46 -6 -82 -18z" />
    <glyph glyph-name="rcommaaccent" unicode="&#x157;" horiz-adv-x="910" 
d="M462 -2v52q-80 0 -108 24t-28 84v526v2q64 80 92 110q46 46 96 70q30 16 54 10q14 -4 36 -22q18 -14 30 -20q20 -12 46 -12q44 0 70 30q26 26 26 64t-26 66q-26 30 -66 30q-94 0 -200 -80q-80 -62 -158 -166v236l-260 -100l12 -30q74 0 102 -18q24 -18 24 -68v-628
q0 -58 -38 -84q-34 -24 -100 -24v-52h132l-36 -86l16 -10q12 6 34 8h38q72 0 106 -16q28 -14 28 -42q0 -36 -40 -56q-32 -18 -82 -20q-34 0 -82 16q-42 14 -76 34l-28 -58q36 -24 62 -34q42 -16 112 -22q146 0 224 48q64 40 64 98q0 50 -44 78q-38 24 -110 30q-42 4 -70 2
q-16 0 -34 -4l-14 -4l12 38h184z" />
    <glyph glyph-name="Rcaron" unicode="&#x158;" horiz-adv-x="1422" 
d="M402 732v488q0 62 38 90q36 26 112 26h114q164 0 256 -76q94 -78 94 -218q0 -130 -68 -212q-80 -98 -236 -98h-310zM76 -2h522v52q-108 0 -152 36q-44 34 -44 110v484h216l404 -682h276v52q-84 0 -128 20q-50 20 -80 76l-332 538q194 12 302 116q98 96 98 242
q0 154 -124 248q-130 98 -360 98h-598v-52q112 0 156 -26q42 -26 42 -90v-1024q0 -78 -42 -110q-44 -36 -156 -36v-52zM954 1756h-70l-250 -156l-246 156h-70l254 -286h126z" />
    <glyph glyph-name="rcaron" unicode="&#x159;" horiz-adv-x="910" 
d="M66 -2h396v52q-80 0 -108 24t-28 84v526v2q64 80 92 110q46 46 96 70q30 16 54 10q14 -4 36 -22q18 -16 30 -22q20 -12 46 -12q44 0 70 30q26 28 26 66t-26 66q-26 30 -66 30q-94 0 -200 -80q-80 -62 -158 -166v236l-260 -100l12 -30q74 0 102 -18q24 -18 24 -68v-628
q0 -58 -38 -84q-34 -24 -100 -24v-52zM754 1400h-70l-248 -156l-248 156h-70l254 -288h126z" />
    <glyph glyph-name="Sacute" unicode="&#x15a;" horiz-adv-x="1226" 
d="M156 378l-44 -18l146 -390q34 26 74 42q42 18 74 18q12 0 36 -6q14 -4 52 -16q62 -20 96 -28q60 -16 106 -16q186 0 306 96q136 108 136 300q0 166 -138 278q-112 90 -298 134q-190 44 -292 114q-128 90 -128 222q0 134 92 206q80 62 194 62q146 0 278 -98
q118 -90 214 -254l30 20l-132 370l-100 -38q-18 -6 -44 -2q-18 4 -58 18q-52 18 -82 24q-50 12 -98 12q-202 0 -314 -118q-90 -100 -90 -238q0 -164 150 -276q116 -84 324 -138q192 -48 280 -124q96 -82 96 -214q0 -154 -102 -234q-88 -70 -230 -70q-174 0 -324 118
q-114 90 -210 244zM482 1436h68l168 158q38 36 46 56q12 30 -12 68q-22 32 -62 18q-42 -14 -66 -64z" />
    <glyph glyph-name="sacute" unicode="&#x15b;" horiz-adv-x="950" 
d="M164 294l-26 -12l120 -314l84 34q22 8 52 4q18 -4 58 -16t60 -16q38 -10 72 -10q114 0 202 68q102 76 102 206q0 122 -84 198q-86 78 -276 130q-126 34 -174 64q-80 50 -80 144q0 76 54 122q52 44 126 44q110 0 228 -96q92 -76 140 -160l34 16l-116 294l-76 -36
q-14 -6 -36 -2q-14 2 -48 14l-56 16q-36 6 -68 6q-122 0 -204 -66t-82 -166q0 -106 70 -176q86 -86 290 -138q138 -34 194 -80q62 -48 62 -136q0 -92 -66 -152q-60 -58 -144 -58q-126 0 -242 92q-82 62 -170 182zM390 1082h68l168 164q38 36 46 56q12 30 -12 68
q-22 32 -64 18t-64 -64z" />
    <glyph glyph-name="Scircumflex" unicode="&#x15c;" horiz-adv-x="1226" 
d="M156 378l-44 -18l146 -390q34 26 74 42q42 18 74 18q12 0 36 -6q14 -4 52 -16q62 -20 96 -28q60 -16 106 -16q186 0 306 96q136 108 136 300q0 166 -138 278q-112 90 -298 134q-190 44 -292 114q-128 90 -128 222q0 134 92 206q80 62 194 62q146 0 278 -98
q118 -90 214 -254l30 20l-132 370l-100 -38q-18 -6 -44 -2q-18 4 -58 18q-52 18 -82 24q-50 12 -98 12q-202 0 -314 -118q-90 -100 -90 -238q0 -164 150 -276q116 -84 324 -138q192 -48 280 -124q96 -82 96 -214q0 -154 -102 -234q-88 -70 -230 -70q-174 0 -324 118
q-114 90 -210 244zM912 1470v0l-256 286h-126l-256 -286h70l248 154l250 -154h70z" />
    <glyph glyph-name="scircumflex" unicode="&#x15d;" horiz-adv-x="950" 
d="M164 294l-26 -12l120 -314l84 34q22 8 52 4q18 -4 58 -16t60 -16q38 -10 72 -10q114 0 202 68q102 76 102 206q0 122 -84 198q-86 78 -276 130q-126 34 -174 64q-80 50 -80 144q0 76 54 122q52 44 126 44q110 0 228 -96q92 -76 140 -160l34 16l-116 294l-76 -36
q-14 -6 -36 -2q-14 2 -48 14l-56 16q-36 6 -68 6q-122 0 -204 -66t-82 -166q0 -106 70 -176q86 -86 290 -138q138 -34 194 -80q62 -48 62 -136q0 -92 -66 -152q-60 -58 -144 -58q-126 0 -242 92q-82 62 -170 182zM850 1082v0l-256 286h-126l-254 -286h70l246 156l250 -156
h70z" />
    <glyph glyph-name="Scedilla" unicode="&#x15e;" horiz-adv-x="1226" 
d="M510 -88l16 -10q12 6 34 8h40q72 0 104 -16q28 -14 28 -42q0 -36 -40 -56q-32 -18 -82 -20q-34 0 -82 16q-42 14 -76 34l-28 -58q34 -22 62 -34q42 -16 112 -24q146 0 224 50q64 40 64 98q0 50 -44 78q-38 24 -110 30q-42 4 -70 2q-16 0 -34 -4l-14 -4l12 40l14 -2
q18 -4 26 -4q16 -4 30 -4q186 0 306 98q136 108 136 300q0 156 -138 266q-114 88 -298 132q-190 44 -292 112q-128 86 -128 210q0 134 92 206q80 62 194 62q146 0 278 -98q118 -90 214 -254l30 20l-132 370l-100 -38q-18 -6 -44 -2q-18 4 -58 18q-52 18 -82 24
q-50 12 -98 12q-202 0 -314 -118q-90 -100 -90 -238q0 -154 150 -262q118 -86 324 -138q192 -48 280 -122q96 -80 96 -202q0 -154 -102 -234q-88 -72 -230 -72q-174 0 -324 120q-112 88 -210 242l-44 -16l146 -392q34 28 74 44q42 18 74 18q12 0 34 -6q12 -2 46 -14l64 -20z
" />
    <glyph glyph-name="scedilla" unicode="&#x15f;" horiz-adv-x="950" 
d="M436 -88l16 -10q12 6 36 8h38q72 0 104 -16q28 -14 28 -42q0 -36 -40 -56q-32 -18 -82 -20q-34 0 -82 16q-42 14 -76 34l-26 -58q36 -24 62 -34q42 -16 110 -24q146 0 224 50q64 40 64 98q0 52 -44 78q-38 24 -110 30q-42 4 -70 2q-16 -2 -36 -4l-10 -4l10 38h32
q112 0 202 66q102 76 102 198q0 116 -84 192q-88 78 -276 128l-18 6q-120 30 -164 56q-72 46 -72 130q0 76 54 122q52 44 126 44q110 0 228 -96q92 -76 140 -160l34 16l-116 294l-76 -36q-14 -6 -36 -2q-14 2 -48 14l-56 16q-36 6 -68 6q-122 0 -204 -66t-82 -166
q0 -98 70 -164q86 -80 290 -134q138 -34 194 -78q62 -46 62 -128q0 -94 -66 -150q-58 -52 -144 -52q-128 0 -242 86q-86 64 -170 180l-26 -12l120 -306l84 34q10 4 30 0q12 -2 44 -10l60 -18z" />
    <glyph glyph-name="Scaron" unicode="&#x160;" horiz-adv-x="1226" 
d="M156 378l-44 -18l146 -390q34 26 74 42q42 18 74 18q12 0 36 -6q14 -4 52 -16q62 -20 96 -28q60 -16 106 -16q186 0 306 96q136 108 136 300q0 166 -138 278q-112 90 -298 134q-190 44 -292 114q-128 90 -128 222q0 134 92 206q80 62 194 62q146 0 278 -98
q118 -90 214 -254l30 20l-132 370l-100 -38q-18 -6 -44 -2q-18 4 -58 18q-52 18 -82 24q-50 12 -98 12q-202 0 -314 -118q-90 -100 -90 -238q0 -164 150 -276q116 -84 324 -138q192 -48 280 -124q96 -82 96 -214q0 -154 -102 -234q-88 -70 -230 -70q-174 0 -324 118
q-114 90 -210 244zM928 1756h-70l-248 -156l-248 156h-70l254 -286h126z" />
    </font>
</defs>
</svg>
